<svg version="1.1" viewBox="0.0 0.0 52.0 80.0" fill="none" stroke="none" stroke-linecap="square" stroke-miterlimit="10" xmlns:xlink="http://www.w3.org/1999/xlink" xmlns="http://www.w3.org/2000/svg"><clipPath id="p.0"><path d="m0 0l52.0 0l0 80.0l-52.0 0l0 -80.0z" clip-rule="nonzero"/></clipPath><g clip-path="url(#p.0)"><path fill="#1c4587" d="m0 0l52.0 0l0 80.0l-52.0 0z" fill-rule="evenodd"/><path fill="#cfe2f3" d="m11.341482 36.493397l0 0c0 -0.8691368 0.70457363 -1.5737114 1.5737095 -1.5737114l0 0c0.4173746 0 0.81765366 0.165802 1.1127815 0.46092987c0.29512787 0.29512787 0.46092892 0.69540787 0.46092892 1.1127815l0 0c0 0.8691368 -0.70457363 1.5737076 -1.5737104 1.5737076l0 0c-0.86913586 0 -1.5737095 -0.7045708 -1.5737095 -1.5737076z" fill-rule="evenodd"/><path fill="#cfe2f3" d="m11.326203 41.092297l1.5889883 -4.5989l1.5889893 4.5989z" fill-rule="evenodd"/><path fill="#cfe2f3" d="m11.341482 43.370102l0 0c0 -0.8691368 0.70457363 -1.5737114 1.5737095 -1.5737114l0 0c0.4173746 0 0.81765366 0.165802 1.1127815 0.46092987c0.29512787 0.29512787 0.46092892 0.69540787 0.46092892 1.1127815l0 0c0 0.8691368 -0.70457363 1.5737114 -1.5737104 1.5737114l0 0c-0.86913586 0 -1.5737095 -0.7045746 -1.5737095 -1.5737114z" fill-rule="evenodd"/><path fill="#cfe2f3" d="m11.326203 47.969l1.5889883 -4.5989l1.5889893 4.5989z" fill-rule="evenodd"/><path fill="#cfe2f3" d="m15.0211115 43.370102l0 0c0 -0.8691368 0.7045746 -1.5737114 1.5737104 -1.5737114l0 0c0.41737366 0 0.81765366 0.165802 1.1127815 0.46092987c0.29512787 0.29512787 0.46092796 0.69540787 0.46092796 1.1127815l0 0c0 0.8691368 -0.7045727 1.5737114 -1.5737095 1.5737114l0 0c-0.86913586 0 -1.5737104 -0.7045746 -1.5737104 -1.5737114z" fill-rule="evenodd"/><path fill="#cfe2f3" d="m15.005833 47.969l1.5889893 -4.5989l1.5889893 4.5989z" fill-rule="evenodd"/><path fill="#cfe2f3" d="m15.0211115 36.493397l0 0c0 -0.8691368 0.7045746 -1.5737114 1.5737104 -1.5737114l0 0c0.41737366 0 0.81765366 0.165802 1.1127815 0.46092987c0.29512787 0.29512787 0.46092796 0.69540787 0.46092796 1.1127815l0 0c0 0.8691368 -0.7045727 1.5737076 -1.5737095 1.5737076l0 0c-0.86913586 0 -1.5737104 -0.7045708 -1.5737104 -1.5737076z" fill-rule="evenodd"/><path fill="#cfe2f3" d="m15.005833 41.092297l1.5889893 -4.5989l1.5889893 4.5989z" fill-rule="evenodd"/><path fill="#cfe2f3" d="m11.342729 61.12358l0 0c0 -0.8691368 0.70457363 -1.5737114 1.5737104 -1.5737114l0 0c0.41737366 0 0.8176527 0.165802 1.1127806 0.46092987c0.29512787 0.29512787 0.46092987 0.69540787 0.46092987 1.1127815l0 0c0 0.869133 -0.7045746 1.5737076 -1.5737104 1.5737076l0 0c-0.8691368 0 -1.5737104 -0.7045746 -1.5737104 -1.5737076z" fill-rule="evenodd"/><path fill="#cfe2f3" d="m11.32745 65.72248l1.5889893 -4.5989l1.5889883 4.5989z" fill-rule="evenodd"/><path fill="#cfe2f3" d="m9.501587 68.00028l0 0c0 -0.869133 0.70457363 -1.5737076 1.5737104 -1.5737076l0 0c0.41737366 0 0.8176527 0.165802 1.1127806 0.46092987c0.29512787 0.29512787 0.46092987 0.69540405 0.46092987 1.1127777l0 0c0 0.8691406 -0.7045746 1.5737152 -1.5737104 1.5737152l0 0c-0.8691368 0 -1.5737104 -0.7045746 -1.5737104 -1.5737152z" fill-rule="evenodd"/><path fill="#cfe2f3" d="m9.486308 72.59919l1.5889893 -4.5989075l1.5889883 4.5989075z" fill-rule="evenodd"/><path fill="#cfe2f3" d="m13.181217 68.00028l0 0c0 -0.869133 0.70457363 -1.5737076 1.5737095 -1.5737076l0 0c0.4173746 0 0.81765366 0.165802 1.1127815 0.46092987c0.29512787 0.29512787 0.46092987 0.69540405 0.46092987 1.1127777l0 0c0 0.8691406 -0.7045746 1.5737152 -1.5737114 1.5737152l0 0c-0.86913586 0 -1.5737095 -0.7045746 -1.5737095 -1.5737152z" fill-rule="evenodd"/><path fill="#cfe2f3" d="m13.165938 72.59919l1.5889883 -4.5989075l1.5889893 4.5989075z" fill-rule="evenodd"/><path fill="#cfe2f3" d="m15.022359 61.12358l0 0c0 -0.8691368 0.70457363 -1.5737114 1.5737104 -1.5737114l0 0c0.41737366 0 0.81765175 0.165802 1.1127815 0.46092987c0.29512787 0.29512787 0.46092796 0.69540787 0.46092796 1.1127815l0 0c0 0.869133 -0.7045746 1.5737076 -1.5737095 1.5737076l0 0c-0.8691368 0 -1.5737104 -0.7045746 -1.5737104 -1.5737076z" fill-rule="evenodd"/><path fill="#cfe2f3" d="m15.00708 65.72248l1.5889893 -4.5989l1.5889893 4.5989z" fill-rule="evenodd"/><path fill="#cfe2f3" d="m16.861008 68.00028l0 0c0 -0.869133 0.7045727 -1.5737076 1.5737095 -1.5737076l0 0c0.41737366 0 0.81765366 0.165802 1.1127815 0.46092987c0.29512787 0.29512787 0.46092796 0.69540405 0.46092796 1.1127777l0 0c0 0.8691406 -0.7045727 1.5737152 -1.5737095 1.5737152l0 0c-0.8691368 0 -1.5737095 -0.7045746 -1.5737095 -1.5737152z" fill-rule="evenodd"/><path fill="#cfe2f3" d="m16.845728 72.59919l1.5889893 -4.5989075l1.5889893 4.5989075z" fill-rule="evenodd"/><path fill="#cfe2f3" d="m13.182624 11.863212l0 0c0 -0.86913586 0.70457363 -1.5737095 1.5737104 -1.5737095l0 0c0.41737366 0 0.8176527 0.16580105 1.1127806 0.46092892c0.29512882 0.29512787 0.46092892 0.6954069 0.46092892 1.1127806l0 0c0 0.8691368 -0.70457363 1.5737104 -1.5737095 1.5737104l0 0c-0.8691368 0 -1.5737104 -0.70457363 -1.5737104 -1.5737104z" fill-rule="evenodd"/><path fill="#cfe2f3" d="m13.167345 16.462112l1.5889893 -4.598901l1.5889893 4.598901z" fill-rule="evenodd"/><path fill="#cfe2f3" d="m11.341482 18.739918l0 0c0 -0.8691349 0.70457363 -1.5737095 1.5737095 -1.5737095l0 0c0.4173746 0 0.81765366 0.1658001 1.1127815 0.46092987c0.29512787 0.29512787 0.46092892 0.69540596 0.46092892 1.1127796l0 0c0 0.8691368 -0.70457363 1.5737114 -1.5737104 1.5737114l0 0c-0.86913586 0 -1.5737095 -0.7045746 -1.5737095 -1.5737114z" fill-rule="evenodd"/><path fill="#cfe2f3" d="m11.326203 23.33882l1.5889883 -4.5989017l1.5889893 4.5989017z" fill-rule="evenodd"/><path fill="#cfe2f3" d="m15.0211115 18.739918l0 0c0 -0.8691349 0.7045746 -1.5737095 1.5737104 -1.5737095l0 0c0.41737366 0 0.81765366 0.1658001 1.1127815 0.46092987c0.29512787 0.29512787 0.46092796 0.69540596 0.46092796 1.1127796l0 0c0 0.8691368 -0.7045727 1.5737114 -1.5737095 1.5737114l0 0c-0.86913586 0 -1.5737104 -0.7045746 -1.5737104 -1.5737114z" fill-rule="evenodd"/><path fill="#cfe2f3" d="m15.005833 23.33882l1.5889893 -4.5989017l1.5889893 4.5989017z" fill-rule="evenodd"/><path fill="#000000" fill-opacity="0.0" d="m6.1574802 29.552402l39.685036 0" fill-rule="evenodd"/><path stroke="#cfe2f3" stroke-width="1.0" stroke-linejoin="round" stroke-linecap="butt" d="m6.1574802 29.552402l39.685036 0" fill-rule="evenodd"/><path fill="#000000" fill-opacity="0.0" d="m6.1574802 53.871403l39.685036 0" fill-rule="evenodd"/><path stroke="#cfe2f3" stroke-width="1.0" stroke-linejoin="round" stroke-linecap="butt" d="m6.1574802 53.871403l39.685036 0" fill-rule="evenodd"/><path fill="#000000" fill-opacity="0.0" d="m20.827099 -3.8541207l16.850395 0l0 16.629921l-16.850395 0z" fill-rule="evenodd"/><path fill="#c9daf8" d="m34.708744 21.695799l0 -3.203125l-5.796877 0l0 -1.5l6.093752 -8.656251l1.34375 0l0 8.656251l1.796875 0l0 1.5l-1.796875 0l0 3.203125l-1.640625 0zm0 -4.703125l0 -6.015626l-4.187502 6.015626l4.187502 0z" fill-rule="nonzero"/><path fill="#000000" fill-opacity="0.0" d="m20.827099 20.666666l16.850395 0l0 16.629923l-16.850395 0z" fill-rule="evenodd"/><path fill="#c9daf8" d="m34.708744 46.216587l0 -3.203125l-5.796877 0l0 -1.5l6.093752 -8.65625l1.34375 0l0 8.65625l1.796875 0l0 1.5l-1.796875 0l0 3.203125l-1.640625 0zm0 -4.703125l0 -6.015625l-4.187502 6.015625l4.187502 0z" fill-rule="nonzero"/><path fill="#000000" fill-opacity="0.0" d="m20.759476 45.20815l16.850391 0l0 16.629921l-16.850391 0z" fill-rule="evenodd"/><path fill="#c9daf8" d="m34.641117 70.75807l0 -3.203125l-5.796873 0l0 -1.5l6.093748 -8.656254l1.34375 0l0 8.656254l1.796875 0l0 1.5l-1.796875 0l0 3.203125l-1.640625 0zm0 -4.703125l0 -6.015629l-4.187498 6.015629l4.187498 0z" fill-rule="nonzero"/></g></svg>