<svg version="1.1" viewBox="0.0 0.0 52.0 80.0" fill="none" stroke="none" stroke-linecap="square" stroke-miterlimit="10" xmlns:xlink="http://www.w3.org/1999/xlink" xmlns="http://www.w3.org/2000/svg"><clipPath id="p.0"><path d="m0 0l52.0 0l0 80.0l-52.0 0l0 -80.0z" clip-rule="nonzero"/></clipPath><g clip-path="url(#p.0)"><path fill="#1c4587" d="m0 0l52.0 0l0 80.0l-52.0 0z" fill-rule="evenodd"/><path fill="#cfe2f3" d="m11.341482 36.493397l0 0c0 -0.8691368 0.70457363 -1.5737114 1.5737095 -1.5737114l0 0c0.4173746 0 0.81765366 0.165802 1.1127815 0.46092987c0.29512787 0.29512787 0.46092892 0.69540787 0.46092892 1.1127815l0 0c0 0.8691368 -0.70457363 1.5737076 -1.5737104 1.5737076l0 0c-0.86913586 0 -1.5737095 -0.7045708 -1.5737095 -1.5737076z" fill-rule="evenodd"/><path fill="#cfe2f3" d="m11.326203 41.092297l1.5889883 -4.5989l1.5889893 4.5989z" fill-rule="evenodd"/><path fill="#cfe2f3" d="m11.341482 43.370102l0 0c0 -0.8691368 0.70457363 -1.5737114 1.5737095 -1.5737114l0 0c0.4173746 0 0.81765366 0.165802 1.1127815 0.46092987c0.29512787 0.29512787 0.46092892 0.69540787 0.46092892 1.1127815l0 0c0 0.8691368 -0.70457363 1.5737114 -1.5737104 1.5737114l0 0c-0.86913586 0 -1.5737095 -0.7045746 -1.5737095 -1.5737114z" fill-rule="evenodd"/><path fill="#cfe2f3" d="m11.326203 47.969l1.5889883 -4.5989l1.5889893 4.5989z" fill-rule="evenodd"/><path fill="#cfe2f3" d="m15.0211115 43.370102l0 0c0 -0.8691368 0.7045746 -1.5737114 1.5737104 -1.5737114l0 0c0.41737366 0 0.81765366 0.165802 1.1127815 0.46092987c0.29512787 0.29512787 0.46092796 0.69540787 0.46092796 1.1127815l0 0c0 0.8691368 -0.7045727 1.5737114 -1.5737095 1.5737114l0 0c-0.86913586 0 -1.5737104 -0.7045746 -1.5737104 -1.5737114z" fill-rule="evenodd"/><path fill="#cfe2f3" d="m15.005833 47.969l1.5889893 -4.5989l1.5889893 4.5989z" fill-rule="evenodd"/><path fill="#cfe2f3" d="m15.0211115 36.493397l0 0c0 -0.8691368 0.7045746 -1.5737114 1.5737104 -1.5737114l0 0c0.41737366 0 0.81765366 0.165802 1.1127815 0.46092987c0.29512787 0.29512787 0.46092796 0.69540787 0.46092796 1.1127815l0 0c0 0.8691368 -0.7045727 1.5737076 -1.5737095 1.5737076l0 0c-0.86913586 0 -1.5737104 -0.7045708 -1.5737104 -1.5737076z" fill-rule="evenodd"/><path fill="#cfe2f3" d="m15.005833 41.092297l1.5889893 -4.5989l1.5889893 4.5989z" fill-rule="evenodd"/><path fill="#cfe2f3" d="m11.342729 61.12358l0 0c0 -0.8691368 0.70457363 -1.5737114 1.5737104 -1.5737114l0 0c0.41737366 0 0.8176527 0.165802 1.1127806 0.46092987c0.29512787 0.29512787 0.46092987 0.69540787 0.46092987 1.1127815l0 0c0 0.869133 -0.7045746 1.5737076 -1.5737104 1.5737076l0 0c-0.8691368 0 -1.5737104 -0.7045746 -1.5737104 -1.5737076z" fill-rule="evenodd"/><path fill="#cfe2f3" d="m11.32745 65.72248l1.5889893 -4.5989l1.5889883 4.5989z" fill-rule="evenodd"/><path fill="#cfe2f3" d="m9.501587 68.00028l0 0c0 -0.869133 0.70457363 -1.5737076 1.5737104 -1.5737076l0 0c0.41737366 0 0.8176527 0.165802 1.1127806 0.46092987c0.29512787 0.29512787 0.46092987 0.69540405 0.46092987 1.1127777l0 0c0 0.8691406 -0.7045746 1.5737152 -1.5737104 1.5737152l0 0c-0.8691368 0 -1.5737104 -0.7045746 -1.5737104 -1.5737152z" fill-rule="evenodd"/><path fill="#cfe2f3" d="m9.486308 72.59919l1.5889893 -4.5989075l1.5889883 4.5989075z" fill-rule="evenodd"/><path fill="#cfe2f3" d="m13.181217 68.00028l0 0c0 -0.869133 0.70457363 -1.5737076 1.5737095 -1.5737076l0 0c0.4173746 0 0.81765366 0.165802 1.1127815 0.46092987c0.29512787 0.29512787 0.46092987 0.69540405 0.46092987 1.1127777l0 0c0 0.8691406 -0.7045746 1.5737152 -1.5737114 1.5737152l0 0c-0.86913586 0 -1.5737095 -0.7045746 -1.5737095 -1.5737152z" fill-rule="evenodd"/><path fill="#cfe2f3" d="m13.165938 72.59919l1.5889883 -4.5989075l1.5889893 4.5989075z" fill-rule="evenodd"/><path fill="#cfe2f3" d="m15.022359 61.12358l0 0c0 -0.8691368 0.70457363 -1.5737114 1.5737104 -1.5737114l0 0c0.41737366 0 0.81765175 0.165802 1.1127815 0.46092987c0.29512787 0.29512787 0.46092796 0.69540787 0.46092796 1.1127815l0 0c0 0.869133 -0.7045746 1.5737076 -1.5737095 1.5737076l0 0c-0.8691368 0 -1.5737104 -0.7045746 -1.5737104 -1.5737076z" fill-rule="evenodd"/><path fill="#cfe2f3" d="m15.00708 65.72248l1.5889893 -4.5989l1.5889893 4.5989z" fill-rule="evenodd"/><path fill="#cfe2f3" d="m16.861008 68.00028l0 0c0 -0.869133 0.7045727 -1.5737076 1.5737095 -1.5737076l0 0c0.41737366 0 0.81765366 0.165802 1.1127815 0.46092987c0.29512787 0.29512787 0.46092796 0.69540405 0.46092796 1.1127777l0 0c0 0.8691406 -0.7045727 1.5737152 -1.5737095 1.5737152l0 0c-0.8691368 0 -1.5737095 -0.7045746 -1.5737095 -1.5737152z" fill-rule="evenodd"/><path fill="#cfe2f3" d="m16.845728 72.59919l1.5889893 -4.5989075l1.5889893 4.5989075z" fill-rule="evenodd"/><path fill="#cfe2f3" d="m13.182624 11.863212l0 0c0 -0.86913586 0.70457363 -1.5737095 1.5737104 -1.5737095l0 0c0.41737366 0 0.8176527 0.16580105 1.1127806 0.46092892c0.29512882 0.29512787 0.46092892 0.6954069 0.46092892 1.1127806l0 0c0 0.8691368 -0.70457363 1.5737104 -1.5737095 1.5737104l0 0c-0.8691368 0 -1.5737104 -0.70457363 -1.5737104 -1.5737104z" fill-rule="evenodd"/><path fill="#cfe2f3" d="m13.167345 16.462112l1.5889893 -4.598901l1.5889893 4.598901z" fill-rule="evenodd"/><path fill="#cfe2f3" d="m11.341482 18.739918l0 0c0 -0.8691349 0.70457363 -1.5737095 1.5737095 -1.5737095l0 0c0.4173746 0 0.81765366 0.1658001 1.1127815 0.46092987c0.29512787 0.29512787 0.46092892 0.69540596 0.46092892 1.1127796l0 0c0 0.8691368 -0.70457363 1.5737114 -1.5737104 1.5737114l0 0c-0.86913586 0 -1.5737095 -0.7045746 -1.5737095 -1.5737114z" fill-rule="evenodd"/><path fill="#cfe2f3" d="m11.326203 23.33882l1.5889883 -4.5989017l1.5889893 4.5989017z" fill-rule="evenodd"/><path fill="#cfe2f3" d="m15.0211115 18.739918l0 0c0 -0.8691349 0.7045746 -1.5737095 1.5737104 -1.5737095l0 0c0.41737366 0 0.81765366 0.1658001 1.1127815 0.46092987c0.29512787 0.29512787 0.46092796 0.69540596 0.46092796 1.1127796l0 0c0 0.8691368 -0.7045727 1.5737114 -1.5737095 1.5737114l0 0c-0.86913586 0 -1.5737104 -0.7045746 -1.5737104 -1.5737114z" fill-rule="evenodd"/><path fill="#cfe2f3" d="m15.005833 23.33882l1.5889893 -4.5989017l1.5889893 4.5989017z" fill-rule="evenodd"/><path fill="#000000" fill-opacity="0.0" d="m6.1574802 29.552402l39.685036 0" fill-rule="evenodd"/><path stroke="#cfe2f3" stroke-width="1.0" stroke-linejoin="round" stroke-linecap="butt" d="m6.1574802 29.552402l39.685036 0" fill-rule="evenodd"/><path fill="#000000" fill-opacity="0.0" d="m6.1574802 53.871403l39.685036 0" fill-rule="evenodd"/><path stroke="#cfe2f3" stroke-width="1.0" stroke-linejoin="round" stroke-linecap="butt" d="m6.1574802 53.871403l39.685036 0" fill-rule="evenodd"/><path fill="#000000" fill-opacity="0.0" d="m20.827099 -3.8541207l16.850395 0l0 16.629921l-16.850395 0z" fill-rule="evenodd"/><path fill="#c9daf8" d="m38.06812 20.117674l0 1.578125l-8.828127 0q-0.015625 -0.59375 0.1875 -1.140625q0.34375 -0.90625 1.078125 -1.78125q0.75 -0.875 2.156252 -2.015625q2.171875 -1.781251 2.9375 -2.828126q0.765625 -1.046875 0.765625 -1.96875q0 -0.984375 -0.703125 -1.640625q-0.6875 -0.671875 -1.8125 -0.671875q-1.1875 0 -1.9062519 0.71875q-0.703125 0.703125 -0.703125 1.953125l-1.6875 -0.171875q0.171875 -1.890625 1.296875 -2.875q1.140625 -0.984375 3.031252 -0.984375q1.921875 0 3.046875 1.0625q1.125 1.0625 1.125 2.640625q0 0.796875 -0.328125 1.578125q-0.328125 0.78125 -1.09375 1.640625q-0.75 0.84375095 -2.53125 2.343751q-1.46875 1.234375 -1.890625 1.6875q-0.4218769 0.4375 -0.6875019 0.875l6.546877 0z" fill-rule="nonzero"/><path fill="#000000" fill-opacity="0.0" d="m20.827099 20.666666l16.850395 0l0 16.629923l-16.850395 0z" fill-rule="evenodd"/><path fill="#c9daf8" d="m29.458742 42.716587l1.71875 -0.140625q0.1875 1.25 0.8750019 1.890625q0.703125 0.625 1.6875 0.625q1.1875 0 2.0 -0.890625q0.828125 -0.890625 0.828125 -2.359375q0 -1.40625 -0.796875 -2.21875q-0.78125 -0.8125 -2.0625 -0.8125q-0.78125 0 -1.421875 0.359375q-0.6406269 0.359375 -1.0000019 0.9375l-1.546875 -0.203125l1.296875 -6.859375l6.640627 0l0 1.5625l-5.328125 0l-0.7187519 3.59375q1.2031269 -0.84375 2.515627 -0.84375q1.75 0 2.953125 1.21875q1.203125 1.203125 1.203125 3.109375q0 1.8125 -1.046875 3.140625q-1.296875 1.625 -3.515625 1.625q-1.8125019 0 -2.968752 -1.015625q-1.15625 -1.03125 -1.3125 -2.71875z" fill-rule="nonzero"/><path fill="#000000" fill-opacity="0.0" d="m20.759476 45.20815l16.850391 0l0 16.629921l-16.850391 0z" fill-rule="evenodd"/><path fill="#c9daf8" d="m37.891117 60.679943l-1.625 0.125q-0.21875 -0.96875 -0.625 -1.40625q-0.65625 -0.703125 -1.640625 -0.703125q-0.78125 0 -1.375 0.4375q-0.7656231 0.5625 -1.2187481 1.65625q-0.453125 1.078125 -0.46875 3.078125q0.59375 -0.890625 1.4531231 -1.328125q0.859375 -0.4375 1.796875 -0.4375q1.640625 0 2.78125 1.203125q1.15625 1.2031288 1.15625 3.1093788q0 1.265625 -0.546875 2.34375q-0.53125 1.078125 -1.484375 1.65625q-0.9375 0.578125 -2.140625 0.578125q-2.062498 0 -3.359373 -1.5q-1.28125 -1.515625 -1.28125 -4.984375q0 -3.8750038 1.421875 -5.625004q1.25 -1.53125 3.374998 -1.53125q1.5625 0 2.5625 0.890625q1.015625 0.875 1.21875 2.4375zm-6.687498 5.750004q0 0.84375 0.359375 1.625q0.359375 0.765625 0.9999981 1.171875q0.640625 0.40625 1.359375 0.40625q1.03125 0 1.78125 -0.828125q0.75 -0.84375 0.75 -2.28125q0 -1.390625 -0.734375 -2.1875q-0.734375 -0.7968788 -1.859375 -0.7968788q-1.109375 0 -1.8906231 0.7968788q-0.765625 0.796875 -0.765625 2.09375z" fill-rule="nonzero"/></g></svg>