<svg version="1.1" viewBox="0.0 0.0 52.0 80.0" fill="none" stroke="none" stroke-linecap="square" stroke-miterlimit="10" xmlns:xlink="http://www.w3.org/1999/xlink" xmlns="http://www.w3.org/2000/svg"><clipPath id="p.0"><path d="m0 0l52.0 0l0 80.0l-52.0 0l0 -80.0z" clip-rule="nonzero"/></clipPath><g clip-path="url(#p.0)"><path fill="#1c4587" d="m0 0l52.0 0l0 80.0l-52.0 0z" fill-rule="evenodd"/><path fill="#cfe2f3" d="m11.341482 36.493397l0 0c0 -0.8691368 0.70457363 -1.5737114 1.5737095 -1.5737114l0 0c0.4173746 0 0.81765366 0.165802 1.1127815 0.46092987c0.29512787 0.29512787 0.46092892 0.69540787 0.46092892 1.1127815l0 0c0 0.8691368 -0.70457363 1.5737076 -1.5737104 1.5737076l0 0c-0.86913586 0 -1.5737095 -0.7045708 -1.5737095 -1.5737076z" fill-rule="evenodd"/><path fill="#cfe2f3" d="m11.326203 41.092297l1.5889883 -4.5989l1.5889893 4.5989z" fill-rule="evenodd"/><path fill="#cfe2f3" d="m11.341482 43.370102l0 0c0 -0.8691368 0.70457363 -1.5737114 1.5737095 -1.5737114l0 0c0.4173746 0 0.81765366 0.165802 1.1127815 0.46092987c0.29512787 0.29512787 0.46092892 0.69540787 0.46092892 1.1127815l0 0c0 0.8691368 -0.70457363 1.5737114 -1.5737104 1.5737114l0 0c-0.86913586 0 -1.5737095 -0.7045746 -1.5737095 -1.5737114z" fill-rule="evenodd"/><path fill="#cfe2f3" d="m11.326203 47.969l1.5889883 -4.5989l1.5889893 4.5989z" fill-rule="evenodd"/><path fill="#cfe2f3" d="m15.0211115 43.370102l0 0c0 -0.8691368 0.7045746 -1.5737114 1.5737104 -1.5737114l0 0c0.41737366 0 0.81765366 0.165802 1.1127815 0.46092987c0.29512787 0.29512787 0.46092796 0.69540787 0.46092796 1.1127815l0 0c0 0.8691368 -0.7045727 1.5737114 -1.5737095 1.5737114l0 0c-0.86913586 0 -1.5737104 -0.7045746 -1.5737104 -1.5737114z" fill-rule="evenodd"/><path fill="#cfe2f3" d="m15.005833 47.969l1.5889893 -4.5989l1.5889893 4.5989z" fill-rule="evenodd"/><path fill="#cfe2f3" d="m15.0211115 36.493397l0 0c0 -0.8691368 0.7045746 -1.5737114 1.5737104 -1.5737114l0 0c0.41737366 0 0.81765366 0.165802 1.1127815 0.46092987c0.29512787 0.29512787 0.46092796 0.69540787 0.46092796 1.1127815l0 0c0 0.8691368 -0.7045727 1.5737076 -1.5737095 1.5737076l0 0c-0.86913586 0 -1.5737104 -0.7045708 -1.5737104 -1.5737076z" fill-rule="evenodd"/><path fill="#cfe2f3" d="m15.005833 41.092297l1.5889893 -4.5989l1.5889893 4.5989z" fill-rule="evenodd"/><path fill="#cfe2f3" d="m11.342729 61.12358l0 0c0 -0.8691368 0.70457363 -1.5737114 1.5737104 -1.5737114l0 0c0.41737366 0 0.8176527 0.165802 1.1127806 0.46092987c0.29512787 0.29512787 0.46092987 0.69540787 0.46092987 1.1127815l0 0c0 0.869133 -0.7045746 1.5737076 -1.5737104 1.5737076l0 0c-0.8691368 0 -1.5737104 -0.7045746 -1.5737104 -1.5737076z" fill-rule="evenodd"/><path fill="#cfe2f3" d="m11.32745 65.72248l1.5889893 -4.5989l1.5889883 4.5989z" fill-rule="evenodd"/><path fill="#cfe2f3" d="m9.501587 68.00028l0 0c0 -0.869133 0.70457363 -1.5737076 1.5737104 -1.5737076l0 0c0.41737366 0 0.8176527 0.165802 1.1127806 0.46092987c0.29512787 0.29512787 0.46092987 0.69540405 0.46092987 1.1127777l0 0c0 0.8691406 -0.7045746 1.5737152 -1.5737104 1.5737152l0 0c-0.8691368 0 -1.5737104 -0.7045746 -1.5737104 -1.5737152z" fill-rule="evenodd"/><path fill="#cfe2f3" d="m9.486308 72.59919l1.5889893 -4.5989075l1.5889883 4.5989075z" fill-rule="evenodd"/><path fill="#cfe2f3" d="m13.181217 68.00028l0 0c0 -0.869133 0.70457363 -1.5737076 1.5737095 -1.5737076l0 0c0.4173746 0 0.81765366 0.165802 1.1127815 0.46092987c0.29512787 0.29512787 0.46092987 0.69540405 0.46092987 1.1127777l0 0c0 0.8691406 -0.7045746 1.5737152 -1.5737114 1.5737152l0 0c-0.86913586 0 -1.5737095 -0.7045746 -1.5737095 -1.5737152z" fill-rule="evenodd"/><path fill="#cfe2f3" d="m13.165938 72.59919l1.5889883 -4.5989075l1.5889893 4.5989075z" fill-rule="evenodd"/><path fill="#cfe2f3" d="m15.022359 61.12358l0 0c0 -0.8691368 0.70457363 -1.5737114 1.5737104 -1.5737114l0 0c0.41737366 0 0.81765175 0.165802 1.1127815 0.46092987c0.29512787 0.29512787 0.46092796 0.69540787 0.46092796 1.1127815l0 0c0 0.869133 -0.7045746 1.5737076 -1.5737095 1.5737076l0 0c-0.8691368 0 -1.5737104 -0.7045746 -1.5737104 -1.5737076z" fill-rule="evenodd"/><path fill="#cfe2f3" d="m15.00708 65.72248l1.5889893 -4.5989l1.5889893 4.5989z" fill-rule="evenodd"/><path fill="#cfe2f3" d="m16.861008 68.00028l0 0c0 -0.869133 0.7045727 -1.5737076 1.5737095 -1.5737076l0 0c0.41737366 0 0.81765366 0.165802 1.1127815 0.46092987c0.29512787 0.29512787 0.46092796 0.69540405 0.46092796 1.1127777l0 0c0 0.8691406 -0.7045727 1.5737152 -1.5737095 1.5737152l0 0c-0.8691368 0 -1.5737095 -0.7045746 -1.5737095 -1.5737152z" fill-rule="evenodd"/><path fill="#cfe2f3" d="m16.845728 72.59919l1.5889893 -4.5989075l1.5889893 4.5989075z" fill-rule="evenodd"/><path fill="#cfe2f3" d="m13.182624 11.863212l0 0c0 -0.86913586 0.70457363 -1.5737095 1.5737104 -1.5737095l0 0c0.41737366 0 0.8176527 0.16580105 1.1127806 0.46092892c0.29512882 0.29512787 0.46092892 0.6954069 0.46092892 1.1127806l0 0c0 0.8691368 -0.70457363 1.5737104 -1.5737095 1.5737104l0 0c-0.8691368 0 -1.5737104 -0.70457363 -1.5737104 -1.5737104z" fill-rule="evenodd"/><path fill="#cfe2f3" d="m13.167345 16.462112l1.5889893 -4.598901l1.5889893 4.598901z" fill-rule="evenodd"/><path fill="#cfe2f3" d="m11.341482 18.739918l0 0c0 -0.8691349 0.70457363 -1.5737095 1.5737095 -1.5737095l0 0c0.4173746 0 0.81765366 0.1658001 1.1127815 0.46092987c0.29512787 0.29512787 0.46092892 0.69540596 0.46092892 1.1127796l0 0c0 0.8691368 -0.70457363 1.5737114 -1.5737104 1.5737114l0 0c-0.86913586 0 -1.5737095 -0.7045746 -1.5737095 -1.5737114z" fill-rule="evenodd"/><path fill="#cfe2f3" d="m11.326203 23.33882l1.5889883 -4.5989017l1.5889893 4.5989017z" fill-rule="evenodd"/><path fill="#cfe2f3" d="m15.0211115 18.739918l0 0c0 -0.8691349 0.7045746 -1.5737095 1.5737104 -1.5737095l0 0c0.41737366 0 0.81765366 0.1658001 1.1127815 0.46092987c0.29512787 0.29512787 0.46092796 0.69540596 0.46092796 1.1127796l0 0c0 0.8691368 -0.7045727 1.5737114 -1.5737095 1.5737114l0 0c-0.86913586 0 -1.5737104 -0.7045746 -1.5737104 -1.5737114z" fill-rule="evenodd"/><path fill="#cfe2f3" d="m15.005833 23.33882l1.5889893 -4.5989017l1.5889893 4.5989017z" fill-rule="evenodd"/><path fill="#000000" fill-opacity="0.0" d="m6.1574802 29.552402l39.685036 0" fill-rule="evenodd"/><path stroke="#cfe2f3" stroke-width="1.0" stroke-linejoin="round" stroke-linecap="butt" d="m6.1574802 29.552402l39.685036 0" fill-rule="evenodd"/><path fill="#000000" fill-opacity="0.0" d="m6.1574802 53.871403l39.685036 0" fill-rule="evenodd"/><path stroke="#cfe2f3" stroke-width="1.0" stroke-linejoin="round" stroke-linecap="butt" d="m6.1574802 53.871403l39.685036 0" fill-rule="evenodd"/><path fill="#000000" fill-opacity="0.0" d="m20.827099 -3.8541207l16.850395 0l0 16.629921l-16.850395 0z" fill-rule="evenodd"/><path fill="#c9daf8" d="m35.63062 21.695799l-1.640625 0l0 -10.453126q-0.59375 0.5625 -1.5625 1.140625q-0.9531269 0.5625 -1.7187519 0.84375l0 -1.59375q1.3750019 -0.640625 2.406252 -1.5625q1.03125 -0.921875 1.453125 -1.78125l1.0625 0l0 13.406251z" fill-rule="nonzero"/><path fill="#000000" fill-opacity="0.0" d="m20.827099 20.666666l16.850395 0l0 16.629923l-16.850395 0z" fill-rule="evenodd"/><path fill="#c9daf8" d="m35.63062 46.216587l-1.640625 0l0 -10.453125q-0.59375 0.5625 -1.5625 1.140625q-0.9531269 0.5625 -1.7187519 0.84375l0 -1.59375q1.3750019 -0.640625 2.406252 -1.5625q1.03125 -0.921875 1.453125 -1.78125l1.0625 0l0 13.40625z" fill-rule="nonzero"/><path fill="#000000" fill-opacity="0.0" d="m20.759476 45.20815l16.850391 0l0 16.629921l-16.850391 0z" fill-rule="evenodd"/><path fill="#c9daf8" d="m38.000492 69.17995l0 1.578125l-8.828123 0q-0.015625 -0.59375 0.1875 -1.140625q0.34375 -0.90625 1.078125 -1.78125q0.75 -0.875 2.156248 -2.015625q2.171875 -1.78125 2.9375 -2.8281288q0.765625 -1.046875 0.765625 -1.96875q0 -0.984375 -0.703125 -1.640625q-0.6875 -0.671875 -1.8125 -0.671875q-1.1875 0 -1.9062481 0.71875q-0.703125 0.703125 -0.703125 1.953125l-1.6875 -0.171875q0.171875 -1.890625 1.296875 -2.875q1.140625 -0.984375 3.031248 -0.984375q1.921875 0 3.046875 1.0625q1.125 1.0625 1.125 2.640625q0 0.796875 -0.328125 1.578125q-0.328125 0.78125 -1.09375 1.6406288q-0.75 0.84375 -2.53125 2.34375q-1.46875 1.234375 -1.890625 1.6875q-0.4218731 0.4375 -0.6874981 0.875l6.546873 0z" fill-rule="nonzero"/></g></svg>