<svg version="1.1" viewBox="0.0 0.0 52.0 80.0" fill="none" stroke="none" stroke-linecap="square" stroke-miterlimit="10" xmlns:xlink="http://www.w3.org/1999/xlink" xmlns="http://www.w3.org/2000/svg"><clipPath id="p.0"><path d="m0 0l52.0 0l0 80.0l-52.0 0l0 -80.0z" clip-rule="nonzero"/></clipPath><g clip-path="url(#p.0)"><path fill="#c9daf8" d="m0 0l52.0 0l0 80.0l-52.0 0z" fill-rule="evenodd"/><path fill="#0b5394" d="m39.366276 14.966182l0 0c0 -1.5607185 1.2650642 -2.8259315 2.8256035 -2.8259315l0 0c0.7493973 0 1.4681015 0.2977314 1.9980049 0.8276968c0.5299072 0.52996445 0.8276024 1.2487507 0.8276024 1.9982347l0 0c0 1.5607176 -1.265068 2.8259306 -2.8256073 2.8259306l0 0c-1.5605392 0 -2.8256035 -1.265213 -2.8256035 -2.8259306z" fill-rule="evenodd"/><path fill="#0b5394" d="m39.33884 23.224483l2.8530388 -8.258302l2.8530388 8.258302z" fill-rule="evenodd"/><path fill="#0b5394" d="m6.3219147 22.14958l0 0c0 -4.4503155 3.6078377 -8.058007 8.058331 -8.058007l0 0c2.1372032 0 4.1868706 0.8489666 5.698101 2.360135c1.5112305 1.5111694 2.3602295 3.5607548 2.3602295 5.697872l0 0c0 4.4503136 -3.6078377 8.058006 -8.058331 8.058006l0 0c-4.450493 0 -8.058331 -3.6076927 -8.058331 -8.058006z" fill-rule="evenodd"/><path fill="#0b5394" d="m6.2436786 45.697735l8.136566 -23.548155l8.136568 23.548155z" fill-rule="evenodd"/><path fill="#000000" fill-opacity="0.0" d="m24.939682 2.10343l8.881889 0l0 58.173225l-8.881889 0z" fill-rule="evenodd"/><path fill="#0b5394" d="m31.90971 18.90192l-5.0625 2.15625l0 -0.9375l4.0 -1.65625l-4.0 -1.640625l0 -0.9375l5.0625 2.140625l0 0.875z" fill-rule="nonzero"/><path fill="#0b5394" d="m31.90971 31.701918l-5.0625 2.156252l0 -0.9375l4.0 -1.6562519l-4.0 -1.640625l0 -0.9375l5.0625 2.140625l0 0.875z" fill-rule="nonzero"/><path fill="#0b5394" d="m31.90971 44.501915l-5.0625 2.15625l0 -0.9375l4.0 -1.65625l-4.0 -1.640625l0 -0.9375l5.0625 2.140625l0 0.875z" fill-rule="nonzero"/><path fill="#0b5394" d="m39.366276 28.474056l0 0c0 -1.5607185 1.2650642 -2.8259315 2.8256035 -2.8259315l0 0c0.7493973 0 1.4681015 0.2977314 1.9980049 0.82769585c0.5299072 0.52996445 0.8276024 1.2487507 0.8276024 1.9982357l0 0c0 1.5607166 -1.265068 2.8259296 -2.8256073 2.8259296l0 0c-1.5605392 0 -2.8256035 -1.265213 -2.8256035 -2.8259296z" fill-rule="evenodd"/><path fill="#0b5394" d="m39.33884 36.732357l2.8530388 -8.258301l2.8530388 8.258301z" fill-rule="evenodd"/><path fill="#0b5394" d="m39.366276 41.984554l0 0c0 -1.5607185 1.2650642 -2.8259315 2.8256035 -2.8259315l0 0c0.7493973 0 1.4681015 0.2977333 1.9980049 0.82769775c0.5299072 0.52996445 0.8276024 1.2487488 0.8276024 1.9982338l0 0c0 1.5607185 -1.265068 2.8259315 -2.8256073 2.8259315l0 0c-1.5605392 0 -2.8256035 -1.265213 -2.8256035 -2.8259315z" fill-rule="evenodd"/><path fill="#0b5394" d="m39.33884 50.242855l2.8530388 -8.258301l2.8530388 8.258301z" fill-rule="evenodd"/><path fill="#000000" fill-opacity="0.0" d="m-8.708661 49.304462l69.41732 0l0 35.559055l-69.41732 0z" fill-rule="evenodd"/><path fill="#0b5394" d="m2.8261116 64.70446l0 -4.765625l0.9375 0l1.1406248 3.375q0.15625 0.46875 0.21875 0.703125q0.078125 -0.265625 0.25 -0.765625l1.140625 -3.3125l0.859375 0l0 4.765625l-0.609375 0l0 -3.984375l-1.390625 3.984375l-0.5625 0l-1.3749998 -4.0625l0 4.0625l-0.609375 0zm5.2634583 -1.71875q0 -0.96875 0.53125 -1.421875q0.453125 -0.390625 1.09375 -0.390625q0.703125 0 1.15625 0.46875q0.453125 0.46875 0.453125 1.28125q0 0.671875 -0.203125 1.0625q-0.1875 0.375 -0.578125 0.59375q-0.375 0.203125 -0.828125 0.203125q-0.734375 0 -1.1875 -0.453125q-0.4375 -0.46875 -0.4375 -1.34375zm0.609375 0q0 0.65625 0.28125 0.984375q0.296875 0.328125 0.734375 0.328125q0.4375 0 0.71875 -0.328125q0.296875 -0.328125 0.296875 -1.015625q0 -0.640625 -0.296875 -0.96875q-0.296875 -0.328125 -0.71875 -0.328125q-0.4375 0 -0.734375 0.328125q-0.28125 0.328125 -0.28125 1.0zm3.311264 1.71875l0 -3.453125l0.515625 0l0 0.53125q0.203125 -0.375 0.375 -0.484375q0.171875 -0.125 0.375 -0.125q0.296875 0 0.609375 0.1875l-0.203125 0.546875q-0.21875 -0.125 -0.4375 -0.125q-0.1875 0 -0.34375 0.125q-0.140625 0.109375 -0.21875 0.3125q-0.09375 0.3125 -0.09375 0.671875l0 1.8125l-0.578125 0zm4.5759573 -1.109375l0.609375 0.078125q-0.140625 0.53125 -0.53125 0.828125q-0.390625 0.28125 -0.98437405 0.28125q-0.765625 0 -1.203125 -0.46875q-0.4375 -0.46875 -0.4375 -1.3125q0 -0.859375 0.4375 -1.34375q0.453125 -0.484375 1.171875 -0.484375q0.68749905 0 1.124999 0.46875q0.4375 0.46875 0.4375 1.328125q0 0.046875 0 0.15625l-2.578124 0q0.03125 0.578125 0.3125 0.875q0.296875 0.296875 0.734375 0.296875q0.32812405 0 0.54687405 -0.15625q0.234375 -0.171875 0.359375 -0.546875zm-1.921874 -0.953125l1.937499 0q-0.046875 -0.4375 -0.21875 -0.640625q-0.28125 -0.34375 -0.73437405 -0.34375q-0.40625 0 -0.6875 0.265625q-0.265625 0.265625 -0.296875 0.71875zm6.3949575 1.546875l0.078125 0.515625q-0.25 0.046875 -0.4375 0.046875q-0.3125 0 -0.5 -0.09375q-0.171875 -0.109375 -0.25 -0.265625q-0.0625 -0.171875 -0.0625 -0.703125l0 -1.984375l-0.4375 0l0 -0.453125l0.4375 0l0 -0.859375l0.578125 -0.34375l0 1.203125l0.59375 0l0 0.453125l-0.59375 0l0 2.015625q0 0.25 0.03125 0.328125q0.03125 0.078125 0.09375 0.125q0.078125 0.03125 0.203125 0.03125q0.109375 0 0.265625 -0.015625zm0.56806946 0.515625l0 -3.453125l0.515625 0l0 0.53125q0.203125 -0.375 0.375 -0.484375q0.171875 -0.125 0.375 -0.125q0.296875 0 0.6093769 0.1875l-0.203125 0.546875q-0.2187519 -0.125 -0.4375019 -0.125q-0.1875 0 -0.34375 0.125q-0.140625 0.109375 -0.21875 0.3125q-0.09375 0.3125 -0.09375 0.671875l0 1.8125l-0.578125 0zm2.2165852 -4.09375l0 -0.671875l0.59375 0l0 0.671875l-0.59375 0zm0 4.09375l0 -3.453125l0.59375 0l0 3.453125l-0.59375 0zm3.7288055 -1.265625l0.578125 0.078125q-0.09375 0.59375 -0.484375 0.9375q-0.390625 0.328125 -0.953125 0.328125q-0.703125 0 -1.140625 -0.453125q-0.421875 -0.46875 -0.421875 -1.34375q0 -0.546875 0.171875 -0.96875q0.1875 -0.421875 0.5625 -0.625q0.390625 -0.21875 0.828125 -0.21875q0.5625 0 0.921875 0.296875q0.359375 0.28125 0.46875 0.796875l-0.578125 0.09375q-0.078125 -0.359375 -0.296875 -0.53125q-0.203125 -0.171875 -0.484375 -0.171875q-0.453125 0 -0.734375 0.3125q-0.265625 0.3125 -0.265625 1.0q0 0.703125 0.265625 1.015625q0.265625 0.3125 0.703125 0.3125q0.34375 0 0.5625 -0.203125q0.234375 -0.21875 0.296875 -0.65625zm1.078125 1.265625l0 -4.765625l0.59375 0l0 2.71875l1.375 -1.40625l0.765625 0l-1.328125 1.28125l1.453125 2.171875l-0.71875 0l-1.140625 -1.765625l-0.40625 0.390625l0 1.375l-0.59375 0zm3.09375 -1.03125l0.5781269 -0.09375q0.046875 0.34375 0.265625 0.53125q0.234375 0.1875 0.625 0.1875q0.40625 0 0.59375 -0.15625q0.203125 -0.171875 0.203125 -0.390625q0 -0.203125 -0.171875 -0.3125q-0.125 -0.078125 -0.59375 -0.203125q-0.640625 -0.15625 -0.890625 -0.265625q-0.25 -0.125 -0.3906269 -0.328125q-0.125 -0.21875 -0.125 -0.46875q0 -0.234375 0.109375 -0.421875q0.10937691 -0.203125 0.2968769 -0.34375q0.125 -0.09375 0.359375 -0.15625q0.234375 -0.078125 0.515625 -0.078125q0.40625 0 0.703125 0.125q0.3125 0.109375 0.453125 0.3125q0.15625 0.203125 0.203125 0.53125l-0.5625 0.078125q-0.046875 -0.265625 -0.234375 -0.40625q-0.1875 -0.15625 -0.53125 -0.15625q-0.390625 0 -0.5625 0.140625q-0.171875 0.125 -0.171875 0.296875q0 0.125 0.0625 0.203125q0.078125 0.109375 0.21875 0.15625q0.09375 0.046875 0.53125 0.15625q0.609375 0.171875 0.859375 0.28125q0.25 0.09375 0.390625 0.296875q0.140625 0.203125 0.140625 0.5q0 0.296875 -0.171875 0.5625q-0.171875 0.25 -0.5 0.390625q-0.3125 0.140625 -0.71875 0.140625q-0.6875 0 -1.046875 -0.28125q-0.3437519 -0.28125 -0.4375019 -0.828125zm6.6930714 0.515625l0.078125 0.515625q-0.25 0.046875 -0.4375 0.046875q-0.3125 0 -0.5 -0.09375q-0.171875 -0.109375 -0.25 -0.265625q-0.0625 -0.171875 -0.0625 -0.703125l0 -1.984375l-0.4375 0l0 -0.453125l0.4375 0l0 -0.859375l0.578125 -0.34375l0 1.203125l0.59375 0l0 0.453125l-0.59375 0l0 2.015625q0 0.25 0.03125 0.328125q0.03125 0.078125 0.09375 0.125q0.078125 0.03125 0.203125 0.03125q0.109375 0 0.265625 -0.015625zm0.56806946 0.515625l0 -4.765625l0.59375 0l0 1.703125q0.40625 -0.46875 1.03125 -0.46875q0.375 0 0.65625 0.15625q0.28125 0.140625 0.40625 0.421875q0.125 0.265625 0.125 0.765625l0 2.1875l-0.578125 0l0 -2.1875q0 -0.4375 -0.203125 -0.640625q-0.1875 -0.203125 -0.53125 -0.203125q-0.265625 0 -0.5 0.140625q-0.21875 0.140625 -0.3125 0.375q-0.09375 0.21875 -0.09375 0.625l0 1.890625l-0.59375 0zm5.951889 -0.421875q-0.328125 0.265625 -0.625 0.390625q-0.296875 0.109375 -0.640625 0.109375q-0.578125 0 -0.890625 -0.28125q-0.296875 -0.28125 -0.296875 -0.703125q0 -0.25 0.109375 -0.453125q0.125 -0.21875 0.3125 -0.34375q0.1875 -0.140625 0.421875 -0.203125q0.171875 -0.046875 0.515625 -0.078125q0.71875 -0.09375 1.046875 -0.203125q0 -0.125 0 -0.15625q0 -0.359375 -0.15625 -0.5q-0.234375 -0.203125 -0.671875 -0.203125q-0.40625 0 -0.609375 0.15625q-0.203125 0.140625 -0.296875 0.5l-0.5625 -0.078125q0.078125 -0.359375 0.25 -0.578125q0.1875 -0.234375 0.515625 -0.359375q0.34375 -0.125 0.78125 -0.125q0.453125 0 0.71875 0.109375q0.28125 0.09375 0.40625 0.265625q0.140625 0.15625 0.1875 0.390625q0.03125 0.15625 0.03125 0.546875l0 0.765625q0 0.828125 0.03125 1.046875q0.046875 0.203125 0.15625 0.40625l-0.609375 0q-0.09375 -0.1875 -0.125 -0.421875zm-0.046875 -1.3125q-0.3125 0.125 -0.953125 0.21875q-0.359375 0.0625 -0.515625 0.125q-0.140625 0.0625 -0.234375 0.1875q-0.078125 0.125 -0.078125 0.28125q0 0.234375 0.171875 0.390625q0.1875 0.15625 0.53125 0.15625q0.328125 0 0.59375 -0.140625q0.265625 -0.15625 0.390625 -0.421875q0.09375 -0.1875 0.09375 -0.578125l0 -0.21875zm1.498764 1.734375l0 -3.453125l0.53125 0l0 0.5q0.375 -0.578125 1.09375 -0.578125q0.3125 0 0.578125 0.109375q0.265625 0.109375 0.390625 0.296875q0.125 0.1875 0.1875 0.4375q0.03125 0.15625 0.03125 0.5625l0 2.125l-0.59375 0l0 -2.09375q0 -0.359375 -0.078125 -0.53125q-0.0625 -0.1875 -0.234375 -0.28125q-0.171875 -0.109375 -0.40625 -0.109375q-0.375 0 -0.640625 0.234375q-0.265625 0.234375 -0.265625 0.890625l0 1.890625l-0.59375 0z" fill-rule="nonzero"/><path fill="#0b5394" d="m8.075723 71.595085l0.609375 0.078125q-0.140625 0.53125 -0.53125 0.828125q-0.39062548 0.28125 -0.9843755 0.28125q-0.765625 0 -1.203125 -0.46875q-0.4375 -0.46875 -0.4375 -1.3125q0 -0.859375 0.4375 -1.34375q0.453125 -0.484375 1.171875 -0.484375q0.6875 0 1.1250005 0.46875q0.4375 0.46875 0.4375 1.328125q0 0.046875 0 0.15625l-2.5781255 0q0.03125 0.578125 0.3125 0.875q0.296875 0.296875 0.734375 0.296875q0.328125 0 0.546875 -0.15625q0.234375 -0.171875 0.35937548 -0.546875zm-1.9218755 -0.953125l1.9375005 0q-0.046875 -0.4375 -0.21875048 -0.640625q-0.28125 -0.34375 -0.734375 -0.34375q-0.40625 0 -0.6875 0.265625q-0.265625 0.265625 -0.296875 0.71875zm4.2175145 2.0625l-1.3125 -3.453125l0.625 0l0.734375 2.0625q0.125 0.34375 0.234375 0.703125q0.0625 -0.28125 0.203125 -0.65625l0.78125 -2.109375l0.59375 0l-1.3125 3.453125l-0.546875 0zm4.734375 -1.109375l0.609375 0.078125q-0.140625 0.53125 -0.53125 0.828125q-0.390625 0.28125 -0.984375 0.28125q-0.765625 0 -1.203125 -0.46875q-0.4375 -0.46875 -0.4375 -1.3125q0 -0.859375 0.4375 -1.34375q0.453125 -0.484375 1.171875 -0.484375q0.6875 0 1.125 0.46875q0.4375 0.46875 0.4375 1.328125q0 0.046875 0 0.15625l-2.578125 0q0.03125 0.578125 0.3125 0.875q0.296875 0.296875 0.734375 0.296875q0.328125 0 0.546875 -0.15625q0.234375 -0.171875 0.359375 -0.546875zm-1.921875 -0.953125l1.9375 0q-0.046875 -0.4375 -0.21875 -0.640625q-0.28125 -0.34375 -0.734375 -0.34375q-0.40625 0 -0.6875 0.265625q-0.265625 0.265625 -0.296875 0.71875zm3.264388 2.0625l0 -3.453125l0.515625 0l0 0.53125q0.203125 -0.375 0.375 -0.484375q0.171875 -0.125 0.375 -0.125q0.296875 0 0.609375 0.1875l-0.203125 0.546875q-0.21875 -0.125 -0.4375 -0.125q-0.1875 0 -0.34375 0.125q-0.140625 0.109375 -0.21875 0.3125q-0.09375 0.3125 -0.09375 0.671875l0 1.8125l-0.578125 0zm2.1853333 1.328125l-0.0625 -0.546875q0.203125 0.046875 0.34375 0.046875q0.1875 0 0.296875 -0.0625q0.125 -0.0625 0.203125 -0.1875q0.046875 -0.078125 0.171875 -0.421875q0.015625 -0.0625 0.0625 -0.15625l-1.3125 -3.453125l0.625 0l0.71875 2.0q0.140625 0.375 0.25 0.796875q0.109375 -0.40625 0.25 -0.78125l0.734375 -2.015625l0.578125 0l-1.3125 3.515625q-0.203125 0.5625 -0.328125 0.78125q-0.15625 0.28125 -0.359375 0.421875q-0.203125 0.140625 -0.46875 0.140625q-0.171875 0 -0.390625 -0.078125zm3.140625 -3.046875q0 -0.96875 0.53125 -1.421875q0.453125 -0.390625 1.0937519 -0.390625q0.703125 0 1.15625 0.46875q0.453125 0.46875 0.453125 1.28125q0 0.671875 -0.203125 1.0625q-0.1875 0.375 -0.578125 0.59375q-0.375 0.203125 -0.828125 0.203125q-0.7343769 0 -1.1875019 -0.453125q-0.4375 -0.46875 -0.4375 -1.34375zm0.609375 0q0 0.65625 0.28125 0.984375q0.296875 0.328125 0.7343769 0.328125q0.4375 0 0.71875 -0.328125q0.296875 -0.328125 0.296875 -1.015625q0 -0.640625 -0.296875 -0.96875q-0.296875 -0.328125 -0.71875 -0.328125q-0.4375019 0 -0.7343769 0.328125q-0.28125 0.328125 -0.28125 1.0zm3.311266 1.71875l0 -3.453125l0.53125 0l0 0.5q0.375 -0.578125 1.09375 -0.578125q0.3125 0 0.578125 0.109375q0.265625 0.109375 0.390625 0.296875q0.125 0.1875 0.1875 0.4375q0.03125 0.15625 0.03125 0.5625l0 2.125l-0.59375 0l0 -2.09375q0 -0.359375 -0.078125 -0.53125q-0.0625 -0.1875 -0.234375 -0.28125q-0.171875 -0.109375 -0.40625 -0.109375q-0.375 0 -0.640625 0.234375q-0.265625 0.234375 -0.265625 0.890625l0 1.890625l-0.59375 0zm6.061264 -1.109375l0.6093769 0.078125q-0.140625 0.53125 -0.5312519 0.828125q-0.390625 0.28125 -0.984375 0.28125q-0.765625 0 -1.203125 -0.46875q-0.4375 -0.46875 -0.4375 -1.3125q0 -0.859375 0.4375 -1.34375q0.453125 -0.484375 1.171875 -0.484375q0.6875 0 1.125 0.46875q0.4375019 0.46875 0.4375019 1.328125q0 0.046875 0 0.15625l-2.578127 0q0.03125 0.578125 0.3125 0.875q0.296875 0.296875 0.734375 0.296875q0.328125 0 0.546875 -0.15625q0.234375 -0.171875 0.359375 -0.546875zm-1.921875 -0.953125l1.9375 0q-0.046875 -0.4375 -0.21875 -0.640625q-0.28125 -0.34375 -0.734375 -0.34375q-0.40625 0 -0.6875 0.265625q-0.265625 0.265625 -0.296875 0.71875zm7.4730854 0.953125l0.609375 0.078125q-0.140625 0.53125 -0.53125 0.828125q-0.390625 0.28125 -0.984375 0.28125q-0.765625 0 -1.203125 -0.46875q-0.4375 -0.46875 -0.4375 -1.3125q0 -0.859375 0.4375 -1.34375q0.453125 -0.484375 1.171875 -0.484375q0.6875 0 1.125 0.46875q0.4375 0.46875 0.4375 1.328125q0 0.046875 0 0.15625l-2.578125 0q0.03125 0.578125 0.3125 0.875q0.296875 0.296875 0.734375 0.296875q0.328125 0 0.546875 -0.15625q0.234375 -0.171875 0.359375 -0.546875zm-1.921875 -0.953125l1.9375 0q-0.046875 -0.4375 -0.21875 -0.640625q-0.28125 -0.34375 -0.734375 -0.34375q-0.40625 0 -0.6875 0.265625q-0.265625 0.265625 -0.296875 0.71875zm3.248764 2.0625l0 -4.765625l0.59375 0l0 4.765625l-0.59375 0zm1.2600555 -1.03125l0.578125 -0.09375q0.046875 0.34375 0.265625 0.53125q0.234375 0.1875 0.625 0.1875q0.40625 0 0.59375 -0.15625q0.203125 -0.171875 0.203125 -0.390625q0 -0.203125 -0.171875 -0.3125q-0.125 -0.078125 -0.59375 -0.203125q-0.640625 -0.15625 -0.890625 -0.265625q-0.25 -0.125 -0.390625 -0.328125q-0.125 -0.21875 -0.125 -0.46875q0 -0.234375 0.109375 -0.421875q0.109375 -0.203125 0.296875 -0.34375q0.125 -0.09375 0.359375 -0.15625q0.234375 -0.078125 0.515625 -0.078125q0.40625 0 0.703125 0.125q0.3125 0.109375 0.453125 0.3125q0.15625 0.203125 0.203125 0.53125l-0.5625 0.078125q-0.046875 -0.265625 -0.234375 -0.40625q-0.1875 -0.15625 -0.53125 -0.15625q-0.390625 0 -0.5625 0.140625q-0.171875 0.125 -0.171875 0.296875q0 0.125 0.0625 0.203125q0.078125 0.109375 0.21875 0.15625q0.09375 0.046875 0.53125 0.15625q0.609375 0.171875 0.859375 0.28125q0.25 0.09375 0.390625 0.296875q0.140625 0.203125 0.140625 0.5q0 0.296875 -0.171875 0.5625q-0.171875 0.25 -0.5 0.390625q-0.3125 0.140625 -0.71875 0.140625q-0.6875 0 -1.046875 -0.28125q-0.34375 -0.28125 -0.4375 -0.828125zm5.921875 -0.078125l0.609375 0.078125q-0.140625 0.53125 -0.53125 0.828125q-0.390625 0.28125 -0.984375 0.28125q-0.765625 0 -1.203125 -0.46875q-0.4375 -0.46875 -0.4375 -1.3125q0 -0.859375 0.4375 -1.34375q0.453125 -0.484375 1.171875 -0.484375q0.6875 0 1.125 0.46875q0.4375 0.46875 0.4375 1.328125q0 0.046875 0 0.15625l-2.578125 0q0.03125 0.578125 0.3125 0.875q0.296875 0.296875 0.734375 0.296875q0.328125 0 0.546875 -0.15625q0.234375 -0.171875 0.359375 -0.546875zm-1.921875 -0.953125l1.9375 0q-0.046875 -0.4375 -0.21875 -0.640625q-0.28125 -0.34375 -0.734375 -0.34375q-0.40625 0 -0.6875 0.265625q-0.265625 0.265625 -0.296875 0.71875z" fill-rule="nonzero"/></g></svg>