<svg version="1.1" viewBox="0.0 0.0 52.0 80.0" fill="none" stroke="none" stroke-linecap="square" stroke-miterlimit="10" xmlns:xlink="http://www.w3.org/1999/xlink" xmlns="http://www.w3.org/2000/svg"><clipPath id="p.0"><path d="m0 0l52.0 0l0 80.0l-52.0 0l0 -80.0z" clip-rule="nonzero"/></clipPath><g clip-path="url(#p.0)"><path fill="#c9daf8" d="m0 0l52.0 0l0 80.0l-52.0 0z" fill-rule="evenodd"/><path fill="#0b5394" d="m6.3219147 22.14958l0 0c0 -4.4503155 3.6078377 -8.058007 8.058331 -8.058007l0 0c2.1372032 0 4.1868706 0.8489666 5.698101 2.360135c1.5112305 1.5111694 2.3602295 3.5607548 2.3602295 5.697872l0 0c0 4.4503136 -3.6078377 8.058006 -8.058331 8.058006l0 0c-4.450493 0 -8.058331 -3.6076927 -8.058331 -8.058006z" fill-rule="evenodd"/><path fill="#0b5394" d="m6.2436786 45.697735l8.136566 -23.548155l8.136568 23.548155z" fill-rule="evenodd"/><path fill="#000000" fill-opacity="0.0" d="m21.884617 2.10343l8.881889 0l0 58.173225l-8.881889 0z" fill-rule="evenodd"/><path fill="#0b5394" d="m29.796051 31.876295l-6.953125 2.968752l0 -1.265625l5.515625 -2.296877l-5.515625 -2.25l0 -1.28125l6.953125 2.921875l0 1.203125z" fill-rule="nonzero"/><path fill="#000000" fill-opacity="0.0" d="m-8.708661 43.62062l69.41732 0l0 35.55905l-69.41732 0z" fill-rule="evenodd"/><path fill="#0b5394" d="m2.8261116 59.02062l0 -4.765625l0.9375 0l1.1406248 3.375q0.15625 0.46875 0.21875 0.703125q0.078125 -0.265625 0.25 -0.765625l1.140625 -3.3125l0.859375 0l0 4.765625l-0.609375 0l0 -3.984375l-1.390625 3.984375l-0.5625 0l-1.3749998 -4.0625l0 4.0625l-0.609375 0zm5.2634583 -1.71875q0 -0.96875 0.53125 -1.421875q0.453125 -0.390625 1.09375 -0.390625q0.703125 0 1.15625 0.46875q0.453125 0.46875 0.453125 1.28125q0 0.671875 -0.203125 1.0625q-0.1875 0.375 -0.578125 0.59375q-0.375 0.203125 -0.828125 0.203125q-0.734375 0 -1.1875 -0.453125q-0.4375 -0.46875 -0.4375 -1.34375zm0.609375 0q0 0.65625 0.28125 0.984375q0.296875 0.328125 0.734375 0.328125q0.4375 0 0.71875 -0.328125q0.296875 -0.328125 0.296875 -1.015625q0 -0.640625 -0.296875 -0.96875q-0.296875 -0.328125 -0.71875 -0.328125q-0.4375 0 -0.734375 0.328125q-0.28125 0.328125 -0.28125 1.0zm3.311264 1.71875l0 -3.453125l0.515625 0l0 0.53125q0.203125 -0.375 0.375 -0.484375q0.171875 -0.125 0.375 -0.125q0.296875 0 0.609375 0.1875l-0.203125 0.546875q-0.21875 -0.125 -0.4375 -0.125q-0.1875 0 -0.34375 0.125q-0.140625 0.109375 -0.21875 0.3125q-0.09375 0.3125 -0.09375 0.671875l0 1.8125l-0.578125 0zm4.5759573 -1.109375l0.609375 0.078125q-0.140625 0.53125 -0.53125 0.828125q-0.390625 0.28125 -0.98437405 0.28125q-0.765625 0 -1.203125 -0.46875q-0.4375 -0.46875 -0.4375 -1.3125q0 -0.859375 0.4375 -1.34375q0.453125 -0.484375 1.171875 -0.484375q0.68749905 0 1.124999 0.46875q0.4375 0.46875 0.4375 1.328125q0 0.046875 0 0.15625l-2.578124 0q0.03125 0.578125 0.3125 0.875q0.296875 0.296875 0.734375 0.296875q0.32812405 0 0.54687405 -0.15625q0.234375 -0.171875 0.359375 -0.546875zm-1.921874 -0.953125l1.937499 0q-0.046875 -0.4375 -0.21875 -0.640625q-0.28125 -0.34375 -0.73437405 -0.34375q-0.40625 0 -0.6875 0.265625q-0.265625 0.265625 -0.296875 0.71875zm6.3949575 1.546875l0.078125 0.515625q-0.25 0.046875 -0.4375 0.046875q-0.3125 0 -0.5 -0.09375q-0.171875 -0.109375 -0.25 -0.265625q-0.0625 -0.171875 -0.0625 -0.703125l0 -1.984375l-0.4375 0l0 -0.453125l0.4375 0l0 -0.859375l0.578125 -0.34375l0 1.203125l0.59375 0l0 0.453125l-0.59375 0l0 2.015625q0 0.25 0.03125 0.328125q0.03125 0.078125 0.09375 0.125q0.078125 0.03125 0.203125 0.03125q0.109375 0 0.265625 -0.015625zm0.56806946 0.515625l0 -3.453125l0.515625 0l0 0.53125q0.203125 -0.375 0.375 -0.484375q0.171875 -0.125 0.375 -0.125q0.296875 0 0.6093769 0.1875l-0.203125 0.546875q-0.2187519 -0.125 -0.4375019 -0.125q-0.1875 0 -0.34375 0.125q-0.140625 0.109375 -0.21875 0.3125q-0.09375 0.3125 -0.09375 0.671875l0 1.8125l-0.578125 0zm2.2165852 -4.09375l0 -0.671875l0.59375 0l0 0.671875l-0.59375 0zm0 4.09375l0 -3.453125l0.59375 0l0 3.453125l-0.59375 0zm3.7288055 -1.265625l0.578125 0.078125q-0.09375 0.59375 -0.484375 0.9375q-0.390625 0.328125 -0.953125 0.328125q-0.703125 0 -1.140625 -0.453125q-0.421875 -0.46875 -0.421875 -1.34375q0 -0.546875 0.171875 -0.96875q0.1875 -0.421875 0.5625 -0.625q0.390625 -0.21875 0.828125 -0.21875q0.5625 0 0.921875 0.296875q0.359375 0.28125 0.46875 0.796875l-0.578125 0.09375q-0.078125 -0.359375 -0.296875 -0.53125q-0.203125 -0.171875 -0.484375 -0.171875q-0.453125 0 -0.734375 0.3125q-0.265625 0.3125 -0.265625 1.0q0 0.703125 0.265625 1.015625q0.265625 0.3125 0.703125 0.3125q0.34375 0 0.5625 -0.203125q0.234375 -0.21875 0.296875 -0.65625zm1.078125 1.265625l0 -4.765625l0.59375 0l0 2.71875l1.375 -1.40625l0.765625 0l-1.328125 1.28125l1.453125 2.171875l-0.71875 0l-1.140625 -1.765625l-0.40625 0.390625l0 1.375l-0.59375 0zm3.09375 -1.03125l0.5781269 -0.09375q0.046875 0.34375 0.265625 0.53125q0.234375 0.1875 0.625 0.1875q0.40625 0 0.59375 -0.15625q0.203125 -0.171875 0.203125 -0.390625q0 -0.203125 -0.171875 -0.3125q-0.125 -0.078125 -0.59375 -0.203125q-0.640625 -0.15625 -0.890625 -0.265625q-0.25 -0.125 -0.3906269 -0.328125q-0.125 -0.21875 -0.125 -0.46875q0 -0.234375 0.109375 -0.421875q0.10937691 -0.203125 0.2968769 -0.34375q0.125 -0.09375 0.359375 -0.15625q0.234375 -0.078125 0.515625 -0.078125q0.40625 0 0.703125 0.125q0.3125 0.109375 0.453125 0.3125q0.15625 0.203125 0.203125 0.53125l-0.5625 0.078125q-0.046875 -0.265625 -0.234375 -0.40625q-0.1875 -0.15625 -0.53125 -0.15625q-0.390625 0 -0.5625 0.140625q-0.171875 0.125 -0.171875 0.296875q0 0.125 0.0625 0.203125q0.078125 0.109375 0.21875 0.15625q0.09375 0.046875 0.53125 0.15625q0.609375 0.171875 0.859375 0.28125q0.25 0.09375 0.390625 0.296875q0.140625 0.203125 0.140625 0.5q0 0.296875 -0.171875 0.5625q-0.171875 0.25 -0.5 0.390625q-0.3125 0.140625 -0.71875 0.140625q-0.6875 0 -1.046875 -0.28125q-0.3437519 -0.28125 -0.4375019 -0.828125zm6.6930714 0.515625l0.078125 0.515625q-0.25 0.046875 -0.4375 0.046875q-0.3125 0 -0.5 -0.09375q-0.171875 -0.109375 -0.25 -0.265625q-0.0625 -0.171875 -0.0625 -0.703125l0 -1.984375l-0.4375 0l0 -0.453125l0.4375 0l0 -0.859375l0.578125 -0.34375l0 1.203125l0.59375 0l0 0.453125l-0.59375 0l0 2.015625q0 0.25 0.03125 0.328125q0.03125 0.078125 0.09375 0.125q0.078125 0.03125 0.203125 0.03125q0.109375 0 0.265625 -0.015625zm0.56806946 0.515625l0 -4.765625l0.59375 0l0 1.703125q0.40625 -0.46875 1.03125 -0.46875q0.375 0 0.65625 0.15625q0.28125 0.140625 0.40625 0.421875q0.125 0.265625 0.125 0.765625l0 2.1875l-0.578125 0l0 -2.1875q0 -0.4375 -0.203125 -0.640625q-0.1875 -0.203125 -0.53125 -0.203125q-0.265625 0 -0.5 0.140625q-0.21875 0.140625 -0.3125 0.375q-0.09375 0.21875 -0.09375 0.625l0 1.890625l-0.59375 0zm5.951889 -0.421875q-0.328125 0.265625 -0.625 0.390625q-0.296875 0.109375 -0.640625 0.109375q-0.578125 0 -0.890625 -0.28125q-0.296875 -0.28125 -0.296875 -0.703125q0 -0.25 0.109375 -0.453125q0.125 -0.21875 0.3125 -0.34375q0.1875 -0.140625 0.421875 -0.203125q0.171875 -0.046875 0.515625 -0.078125q0.71875 -0.09375 1.046875 -0.203125q0 -0.125 0 -0.15625q0 -0.359375 -0.15625 -0.5q-0.234375 -0.203125 -0.671875 -0.203125q-0.40625 0 -0.609375 0.15625q-0.203125 0.140625 -0.296875 0.5l-0.5625 -0.078125q0.078125 -0.359375 0.25 -0.578125q0.1875 -0.234375 0.515625 -0.359375q0.34375 -0.125 0.78125 -0.125q0.453125 0 0.71875 0.109375q0.28125 0.09375 0.40625 0.265625q0.140625 0.15625 0.1875 0.390625q0.03125 0.15625 0.03125 0.546875l0 0.765625q0 0.828125 0.03125 1.046875q0.046875 0.203125 0.15625 0.40625l-0.609375 0q-0.09375 -0.1875 -0.125 -0.421875zm-0.046875 -1.3125q-0.3125 0.125 -0.953125 0.21875q-0.359375 0.0625 -0.515625 0.125q-0.140625 0.0625 -0.234375 0.1875q-0.078125 0.125 -0.078125 0.28125q0 0.234375 0.171875 0.390625q0.1875 0.15625 0.53125 0.15625q0.328125 0 0.59375 -0.140625q0.265625 -0.15625 0.390625 -0.421875q0.09375 -0.1875 0.09375 -0.578125l0 -0.21875zm1.498764 1.734375l0 -3.453125l0.53125 0l0 0.5q0.375 -0.578125 1.09375 -0.578125q0.3125 0 0.578125 0.109375q0.265625 0.109375 0.390625 0.296875q0.125 0.1875 0.1875 0.4375q0.03125 0.15625 0.03125 0.5625l0 2.125l-0.59375 0l0 -2.09375q0 -0.359375 -0.078125 -0.53125q-0.0625 -0.1875 -0.234375 -0.28125q-0.171875 -0.109375 -0.40625 -0.109375q-0.375 0 -0.640625 0.234375q-0.265625 0.234375 -0.265625 0.890625l0 1.890625l-0.59375 0z" fill-rule="nonzero"/><path fill="#0b5394" d="m10.696237 66.505l0.078125 0.515625q-0.25 0.046875 -0.4375 0.046875q-0.3125 0 -0.5 -0.09375q-0.171875 -0.109375 -0.25 -0.265625q-0.0625 -0.171875 -0.0625 -0.703125l0 -1.984375l-0.4375 0l0 -0.4531288l0.4375 0l0 -0.859375l0.578125 -0.34375l0 1.203125l0.59375 0l0 0.4531288l-0.59375 0l0 2.015625q0 0.25 0.03125 0.328125q0.03125 0.078125 0.09375 0.125q0.078125 0.03125 0.203125 0.03125q0.109375 0 0.265625 -0.015625zm0.56806946 0.515625l0 -4.765629l0.59375 0l0 1.703125q0.40625 -0.46875 1.03125 -0.46875q0.375 0 0.65625 0.15625q0.28125 0.140625 0.40625 0.4218788q0.125 0.265625 0.125 0.765625l0 2.1875l-0.578125 0l0 -2.1875q0 -0.4375 -0.203125 -0.640625q-0.1875 -0.20312881 -0.53125 -0.20312881q-0.265625 0 -0.5 0.14062881q-0.21875 0.140625 -0.3125 0.375q-0.09375 0.21875 -0.09375 0.625l0 1.890625l-0.59375 0zm6.061263 -1.109375l0.609375 0.078125q-0.140625 0.53125 -0.53125 0.828125q-0.390625 0.28125 -0.984375 0.28125q-0.76562405 0 -1.203124 -0.46875q-0.4375 -0.46875 -0.4375 -1.3125q0 -0.859375 0.4375 -1.3437538q0.453125 -0.484375 1.171874 -0.484375q0.6875 0 1.125 0.46875q0.4375 0.4687538 0.4375 1.3281288q0 0.046875 0 0.15625l-2.578124 0q0.03125 0.578125 0.3125 0.875q0.296875 0.296875 0.73437405 0.296875q0.328125 0 0.546875 -0.15625q0.234375 -0.171875 0.359375 -0.546875zm-1.921874 -0.953125l1.937499 0q-0.046875 -0.4375 -0.21875 -0.640625q-0.28125 -0.3437538 -0.734375 -0.3437538q-0.40624905 0 -0.68749905 0.2656288q-0.265625 0.265625 -0.296875 0.71875zm8.582459 0.390625l0.640625 0.15625q-0.203125 0.78125 -0.71875 1.1875q-0.515625 0.40625 -1.2500019 0.40625q-0.78125 0 -1.265625 -0.3125q-0.484375 -0.3125 -0.734375 -0.90625q-0.25 -0.59375 -0.25 -1.28125q0 -0.7343788 0.28125 -1.2812538q0.296875 -0.5625 0.8125 -0.84375q0.53125 -0.296875 1.15625 -0.296875q0.7187519 0 1.2031269 0.359375q0.484375 0.359375 0.6875 1.03125l-0.625 0.140625q-0.171875 -0.515625 -0.484375 -0.75q-0.3125019 -0.25 -0.7968769 -0.25q-0.546875 0 -0.921875 0.265625q-0.359375 0.265625 -0.515625 0.71875q-0.140625 0.4375038 -0.140625 0.9062538q0 0.609375 0.171875 1.0625q0.171875 0.453125 0.546875 0.6875q0.375 0.21875 0.8125 0.21875q0.53125 0 0.8906269 -0.296875q0.375 -0.3125 0.5 -0.921875zm3.5881805 1.25q-0.328125 0.265625 -0.625 0.390625q-0.296875 0.109375 -0.640625 0.109375q-0.578125 0 -0.890625 -0.28125q-0.296875 -0.28125 -0.296875 -0.703125q0 -0.25 0.109375 -0.453125q0.125 -0.21875 0.3125 -0.34375q0.1875 -0.140625 0.421875 -0.203125q0.171875 -0.046875 0.515625 -0.078125q0.71875 -0.09375 1.046875 -0.203125q0 -0.125 0 -0.15625q0 -0.359375 -0.15625 -0.5q-0.234375 -0.20312881 -0.671875 -0.20312881q-0.40625 0 -0.609375 0.15625381q-0.203125 0.140625 -0.296875 0.5l-0.5625 -0.078125q0.078125 -0.359375 0.25 -0.5781288q0.1875 -0.234375 0.515625 -0.359375q0.34375 -0.125 0.78125 -0.125q0.453125 0 0.71875 0.109375q0.28125 0.09375 0.40625 0.265625q0.140625 0.15625381 0.1875 0.3906288q0.03125 0.15625 0.03125 0.546875l0 0.765625q0 0.828125 0.03125 1.046875q0.046875 0.203125 0.15625 0.40625l-0.609375 0q-0.09375 -0.1875 -0.125 -0.421875zm-0.046875 -1.3125q-0.3125 0.125 -0.953125 0.21875q-0.359375 0.0625 -0.515625 0.125q-0.140625 0.0625 -0.234375 0.1875q-0.078125 0.125 -0.078125 0.28125q0 0.234375 0.171875 0.390625q0.1875 0.15625 0.53125 0.15625q0.328125 0 0.59375 -0.140625q0.265625 -0.15625 0.390625 -0.421875q0.09375 -0.1875 0.09375 -0.578125l0 -0.21875zm1.498764 3.0625l0 -4.781254l0.53125 0l0 0.4531288q0.1875 -0.2656288 0.421875 -0.3906288q0.25 -0.140625 0.578125 -0.140625q0.453125 0 0.78125 0.234375q0.34375 0.21875 0.515625 0.6406288q0.1718769 0.40625 0.1718769 0.90625q0 0.53125 -0.1875019 0.953125q-0.1875 0.421875 -0.5625 0.65625q-0.359375 0.21875 -0.75 0.21875q-0.296875 0 -0.53125 -0.125q-0.234375 -0.125 -0.375 -0.3125l0 1.6875l-0.59375 0zm0.53125 -3.03125q0 0.65625 0.265625 0.984375q0.28125 0.3125 0.65625 0.3125q0.390625 0 0.671875 -0.328125q0.28125 -0.328125 0.28125 -1.015625q0 -0.671875 -0.28125 -1.0q-0.265625 -0.3281288 -0.640625 -0.3281288q-0.375 0 -0.671875 0.3593788q-0.28125 0.34375 -0.28125 1.015625zm4.451891 1.1875l0.078125 0.515625q-0.25 0.046875 -0.4375 0.046875q-0.3125 0 -0.5 -0.09375q-0.171875 -0.109375 -0.25 -0.265625q-0.0625 -0.171875 -0.0625 -0.703125l0 -1.984375l-0.4375 0l0 -0.4531288l0.4375 0l0 -0.859375l0.578125 -0.34375l0 1.203125l0.59375 0l0 0.4531288l-0.59375 0l0 2.015625q0 0.25 0.03125 0.328125q0.03125 0.078125 0.09375 0.125q0.078125 0.03125 0.203125 0.03125q0.109375 0 0.265625 -0.015625zm2.8180695 0.09375q-0.328125 0.265625 -0.625 0.390625q-0.296875 0.109375 -0.640625 0.109375q-0.578125 0 -0.890625 -0.28125q-0.296875 -0.28125 -0.296875 -0.703125q0 -0.25 0.109375 -0.453125q0.125 -0.21875 0.3125 -0.34375q0.1875 -0.140625 0.421875 -0.203125q0.171875 -0.046875 0.515625 -0.078125q0.71875 -0.09375 1.046875 -0.203125q0 -0.125 0 -0.15625q0 -0.359375 -0.15625 -0.5q-0.234375 -0.20312881 -0.671875 -0.20312881q-0.40625 0 -0.609375 0.15625381q-0.203125 0.140625 -0.296875 0.5l-0.5625 -0.078125q0.078125 -0.359375 0.25 -0.5781288q0.1875 -0.234375 0.515625 -0.359375q0.34375 -0.125 0.78125 -0.125q0.453125 0 0.71875 0.109375q0.28125 0.09375 0.40625 0.265625q0.140625 0.15625381 0.1875 0.3906288q0.03125 0.15625 0.03125 0.546875l0 0.765625q0 0.828125 0.03125 1.046875q0.046875 0.203125 0.15625 0.40625l-0.609375 0q-0.09375 -0.1875 -0.125 -0.421875zm-0.046875 -1.3125q-0.3125 0.125 -0.953125 0.21875q-0.359375 0.0625 -0.515625 0.125q-0.140625 0.0625 -0.234375 0.1875q-0.078125 0.125 -0.078125 0.28125q0 0.234375 0.171875 0.390625q0.1875 0.15625 0.53125 0.15625q0.328125 0 0.59375 -0.140625q0.265625 -0.15625 0.390625 -0.421875q0.09375 -0.1875 0.09375 -0.578125l0 -0.21875zm1.498764 -2.3593788l0 -0.671875l0.59375 0l0 0.671875l-0.59375 0zm0 4.093754l0 -3.4531288l0.59375 0l0 3.4531288l-0.59375 0zm1.4788055 0l0 -3.4531288l0.53125 0l0 0.5000038q0.375 -0.5781288 1.09375 -0.5781288q0.3125 0 0.578125 0.109375q0.265625 0.109375 0.390625 0.296875q0.125 0.18750381 0.1875 0.4375038q0.03125 0.15625 0.03125 0.5625l0 2.125l-0.59375 0l0 -2.09375q0 -0.359375 -0.078125 -0.53125q-0.0625 -0.1875 -0.234375 -0.28125q-0.171875 -0.109375 -0.40625 -0.109375q-0.375 0 -0.640625 0.234375q-0.265625 0.234375 -0.265625 0.890625l0 1.890625l-0.59375 0z" fill-rule="nonzero"/><path fill="#0b5394" d="m30.321915 22.14958l0 0c0 -4.4503155 3.6078377 -8.058007 8.058331 -8.058007l0 0c2.1372032 0 4.1868706 0.8489666 5.698101 2.360135c1.5112305 1.5111694 2.3602295 3.5607548 2.3602295 5.697872l0 0c0 4.4503136 -3.6078377 8.058006 -8.058331 8.058006l0 0c-4.450493 0 -8.058331 -3.6076927 -8.058331 -8.058006z" fill-rule="evenodd"/><path fill="#0b5394" d="m30.24368 45.697735l8.136566 -23.548155l8.136566 23.548155z" fill-rule="evenodd"/><path fill="#000000" fill-opacity="0.0" d="m27.797588 21.958006l14.771656 0l0 33.921257l-14.771656 0z" fill-rule="evenodd"/><path fill="#c9daf8" d="m40.600494 34.540504q0.078125 0.046875 0.3125 0.1875q0.234375 0.140625 0.359375 0.28125q0.125 0.140625 0.125 0.265625q0 0.109375 -0.09375 0.203125q-0.046875 0.078125 -0.140625 0.109375q-0.078125 0.03125 -0.15625 -0.015625q-0.3125 -0.234375 -0.84375 -0.5q-0.375 -0.1875 -0.84375 -0.296875q-0.5 -0.125 -0.921875 -0.125q-0.46875 0 -0.90625 0.125q-0.78125 0.1875 -1.390625 0.75q-0.609375 0.5625 -0.890625 1.328125q-0.21875 0.640625 -0.21875 1.296875q0 0.9375 0.46875 1.765625q0.421875 0.671875 1.0625 1.125q0.640625 0.4375 1.421875 0.5625q0.265625 0.046875 0.59375 0.046875q0.546875 0 1.03125 -0.15625q0.28125 -0.078125 0.53125 -0.234375q0.25 -0.15625 0.59375 -0.40625q0.109375 -0.0625 0.1875 -0.125q0.09375 -0.0625 0.15625 -0.09375q0.09375 -0.0625 0.21875 -0.0625q0.21875 0 0.359375 0.171875q0.078125 0.09375 0.078125 0.25q0 0.15625 -0.125 0.296875q-0.625 0.75 -2.03125 1.109375q-0.359375 0.09375 -0.828125 0.09375q-0.71875 0 -1.390625 -0.25q-0.890625 -0.28125 -1.640625 -0.90625q-0.75 -0.640625 -1.09375 -1.46875q-0.359375 -0.859375 -0.359375 -1.734375q0 -1.0 0.484375 -1.984375q0.453125 -0.90625 1.265625 -1.515625q0.828125 -0.609375 1.796875 -0.6875q0.34375 -0.03125 0.640625 -0.03125q0.671875 0 1.28125 0.203125q0.484375 0.140625 0.90625 0.421875z" fill-rule="nonzero"/></g></svg>