<svg version="1.1" viewBox="0.0 0.0 52.0 80.0" fill="none" stroke="none" stroke-linecap="square" stroke-miterlimit="10" xmlns:xlink="http://www.w3.org/1999/xlink" xmlns="http://www.w3.org/2000/svg"><clipPath id="p.0"><path d="m0 0l52.0 0l0 80.0l-52.0 0l0 -80.0z" clip-rule="nonzero"/></clipPath><g clip-path="url(#p.0)"><path fill="#000000" d="m0 0l52.0 0l0 80.0l-52.0 0z" fill-rule="evenodd"/><path fill="#cfe2f3" d="m37.213966 42.611713c1.3675194 0 2.476097 1.1087837 2.476097 2.476307c0 1.3675194 -1.1085777 2.476097 -2.476097 2.476097c-1.3675232 0 -2.476307 -1.1085777 -2.476307 -2.476097c0 -1.3675232 1.1087837 -2.476307 2.476307 -2.476307zm-9.760447 2.476307c0 1.3675194 1.1085777 2.476097 2.476099 2.476097c1.3675213 0 2.476307 -1.1085777 2.476307 -2.476097c0 -1.3675232 -1.1087856 -2.476307 -2.476307 -2.476307c-1.3675213 0 -2.476099 1.1087837 -2.476099 2.476307zm-7.2843475 0c0 1.3675194 1.1087856 2.476097 2.476307 2.476097c1.3673134 0 2.476099 -1.1085777 2.476099 -2.476097c0 -1.3675232 -1.1087856 -2.476307 -2.476099 -2.476307c-1.3675213 0 -2.476307 1.1087837 -2.476307 2.476307z" fill-rule="evenodd"/><path fill="#cfe2f3" d="m38.872902 37.65931c1.8279114 0.11995697 3.4705086 0.90982056 4.6853943 2.1249123c1.3211937 1.3211899 2.1412506 3.1488953 2.1412506 5.1674995c0 4.0372086 -3.2717514 7.308754 -7.308754 7.308754l-17.856575 0c-2.1493168 0 -4.096979 -0.87155914 -5.505452 -2.2800293c-1.4082651 -1.408268 -2.2800293 -3.3561363 -2.2800293 -5.505455c0 -3.7728844 3.056447 -6.8293304 6.8293333 -6.8293304l18.818102 0c0.15801239 -0.0026893616 0.31871796 0.0026855469 0.47673035 0.013648987zm-4.1352425 7.428711c0 1.3675194 1.1087837 2.476097 2.476307 2.476097c1.3675194 0 2.476097 -1.1085777 2.476097 -2.476097c0 -1.3675232 -1.1085777 -2.476307 -2.476097 -2.476307c-1.3675232 0 -2.476307 1.1087837 -2.476307 2.476307zm-7.2841396 0c0 1.3675194 1.1085777 2.476097 2.476099 2.476097c1.3675213 0 2.476307 -1.1085777 2.476307 -2.476097c0 -1.3675232 -1.1087856 -2.476307 -2.476307 -2.476307c-1.3675213 0 -2.476099 1.1087837 -2.476099 2.476307zm-7.2843475 0c0 1.3675194 1.1087856 2.476097 2.476307 2.476097c1.3673134 0 2.476099 -1.1085777 2.476099 -2.476097c0 -1.3675232 -1.1087856 -2.476307 -2.476099 -2.476307c-1.3675213 0 -2.476307 1.1087837 -2.476307 2.476307zm15.347593 -16.124012l-5.7751503 0l-3.876299 8.681652l12.530855 0c0.16070175 0 0.3214035 0.005584717 0.48210907 0.016338348l0 -8.69799l-3.361515 0zm-26.271217 15.118847l0.2233696 1.3592453c0 0 -0.08169556 -0.05439377 -0.2233696 -0.14704895l0 0.6047516c0.13877869 -0.09265518 0.2233696 -0.14705276 0.2233696 -0.14705276l-0.16897488 1.040535l2.6560354 0l0 -2.7077446l-2.7104301 0zm0 2.7077408l0 -0.8934822c-0.7437401 0.5011368 -3.0864367 2.165657 -2.939385 3.113533c0.17435265 1.1251221 2.3400083 1.7435265 2.3400083 1.7435265l0.64839363 -3.9635773l-0.049016953 0zm-2.936696 -4.611973c-0.14705229 0.948082 2.1956453 2.6123962 2.9393845 3.113739l0 -1.209507l-0.5966873 -3.6448631c-0.002688408 -0.0028953552 -2.1683445 0.6128197 -2.3426971 1.7406311z" fill-rule="evenodd"/><path fill="#cfe2f3" d="m39.37962 21.35288c0 1.4626598 -0.99441147 1.1712456 -0.99441147 1.1712456l-0.8742447 0l0 -2.3426971l0.8742447 0c0 0 0.99441147 0 0.99441147 1.1714516zm-3.2498283 -1.1714516c-1.6318398 0 -2.9530334 1.3211918 -2.9530334 2.9530334l0 5.8268585l2.3400078 0l0 -5.824169c0 -0.33794975 0.2752838 -0.61302567 0.61302567 -0.61302567l1.3838615 0l0 -2.3426971l-1.3838615 0z" fill-rule="evenodd"/><path fill="#000000" fill-opacity="0.0" d="m8.648862 40.435097c0 0 -2.165656 0.615715 -2.3400087 1.7435265c-0.14705229 0.948082 2.1956453 2.6123962 2.9393845 3.113739c0.13898563 0.09244919 0.22337055 0.14705276 0.22337055 0.14705276l-0.22337055 -1.3594551l-0.5993757 -3.6448631" fill-rule="evenodd"/><path fill="#000000" fill-opacity="0.0" d="m9.245549 45.897114c0.13877869 -0.09265518 0.2233696 -0.14725876 0.2233696 -0.14725876l-0.16897488 1.040741l-0.64839363 3.9635773c0 0 -2.1656556 -0.615715 -2.3400087 -1.7435265c-0.1524291 -0.947876 2.1902676 -2.6123962 2.9340076 -3.113533z" fill-rule="evenodd"/><path fill="#000000" fill-opacity="0.0" d="m9.245549 44.082855l2.7077417 0l0 2.7077408l-2.7077417 0l0 -1.4982338z" fill-rule="evenodd"/><path fill="#000000" fill-opacity="0.0" d="m35.516766 28.964008l3.3588257 0l0 8.678963" fill-rule="evenodd"/><path fill="#000000" fill-opacity="0.0" d="m25.862629 37.64297l3.876297 -8.678963l3.4351425 0" fill-rule="evenodd"/><path fill="#000000" fill-opacity="0.0" d="m37.213966 47.564117c1.3666916 0 2.476097 -1.1094055 2.476097 -2.476097c0 -1.3666954 -1.1094055 -2.476307 -2.476097 -2.476307c-1.3666954 0 -2.476307 1.1096115 -2.476307 2.476307c0 1.3666916 1.1096115 2.476097 2.476307 2.476097" fill-rule="evenodd"/><path fill="#000000" fill-opacity="0.0" d="m29.929619 47.564117c1.3666935 0 2.476307 -1.1094055 2.476307 -2.476097c0 -1.3666954 -1.1096134 -2.476307 -2.476307 -2.476307c-1.3666935 0 -2.476099 1.1096115 -2.476099 2.476307c0 1.3666916 1.1094055 2.476097 2.476099 2.476097" fill-rule="evenodd"/><path fill="#000000" fill-opacity="0.0" d="m22.64548 42.611713c-1.3675213 0 -2.476307 1.1087837 -2.476307 2.476307c0 1.3675194 1.1087856 2.476097 2.476307 2.476097c1.3673134 0 2.476099 -1.1085777 2.476099 -2.476097c-0.0026893616 -1.3675232 -1.1087856 -2.476307 -2.476099 -2.476307z" fill-rule="evenodd"/><path fill="#000000" fill-opacity="0.0" d="m38.872902 37.65931c-0.15801239 -0.01096344 -0.31871796 -0.016338348 -0.48210907 -0.016338348l-18.815413 0c-3.7728853 0 -6.8293324 3.056446 -6.8293324 6.8293343c0 2.1493149 0.8715563 4.097183 2.2800293 5.505451c1.4082661 1.4082642 3.3561344 2.2800293 5.505451 2.2800293l17.859264 0c4.0370026 0 7.308754 -3.2715454 7.308754 -7.308754c0 -2.0186005 -0.81716156 -3.8465157 -2.1412506 -5.1677055c-1.2148857 -1.2148857 -2.857483 -2.00206 -4.6853943 -2.122017z" fill-rule="evenodd"/><path fill="#000000" fill-opacity="0.0" d="m35.516766 28.964008l-2.3400078 0l0 -5.8268566c0 -1.6318417 1.3211937 -2.9530354 2.9530334 -2.9530354l2.258316 0c0 0 0.99420166 0 0.99420166 1.1714516c0 1.4628677 -0.99420166 1.1712456 -0.99420166 1.1712456l-2.258316 0c-0.33774185 0 -0.61302567 0.2752838 -0.61302567 0.6130276l0 5.8241673z" fill-rule="evenodd"/><path fill="#000000" fill-opacity="0.0" d="m37.510963 20.181429l0 2.3426971" fill-rule="evenodd"/><path stroke="#0b5394" stroke-width="1.0" stroke-linejoin="round" stroke-linecap="butt" d="m8.648862 40.435097c0 0 -2.165656 0.615715 -2.3400087 1.7435265c-0.14705229 0.948082 2.1956453 2.6123962 2.9393845 3.113739c0.13898563 0.09244919 0.22337055 0.14705276 0.22337055 0.14705276l-0.22337055 -1.3594551l-0.5993757 -3.6448631" fill-rule="evenodd"/><path stroke="#0b5394" stroke-width="1.0" stroke-linejoin="round" stroke-linecap="butt" d="m9.245549 45.897114c0.13877869 -0.09265518 0.2233696 -0.14725876 0.2233696 -0.14725876l-0.16897488 1.040741l-0.64839363 3.9635773c0 0 -2.1656556 -0.615715 -2.3400087 -1.7435265c-0.1524291 -0.947876 2.1902676 -2.6123962 2.9340076 -3.113533z" fill-rule="evenodd"/><path stroke="#0b5394" stroke-width="1.0" stroke-linejoin="round" stroke-linecap="butt" d="m9.245549 44.082855l2.7077417 0l0 2.7077408l-2.7077417 0l0 -1.4982338z" fill-rule="evenodd"/><path stroke="#0b5394" stroke-width="1.0" stroke-linejoin="round" stroke-linecap="butt" d="m35.516766 28.964008l3.3588257 0l0 8.678963" fill-rule="evenodd"/><path stroke="#0b5394" stroke-width="1.0" stroke-linejoin="round" stroke-linecap="butt" d="m25.862629 37.64297l3.876297 -8.678963l3.4351425 0" fill-rule="evenodd"/><path stroke="#0b5394" stroke-width="1.0" stroke-linejoin="round" stroke-linecap="butt" d="m37.213966 47.564117c1.3666916 0 2.476097 -1.1094055 2.476097 -2.476097c0 -1.3666954 -1.1094055 -2.476307 -2.476097 -2.476307c-1.3666954 0 -2.476307 1.1096115 -2.476307 2.476307c0 1.3666916 1.1096115 2.476097 2.476307 2.476097" fill-rule="evenodd"/><path stroke="#0b5394" stroke-width="1.0" stroke-linejoin="round" stroke-linecap="butt" d="m29.929619 47.564117c1.3666935 0 2.476307 -1.1094055 2.476307 -2.476097c0 -1.3666954 -1.1096134 -2.476307 -2.476307 -2.476307c-1.3666935 0 -2.476099 1.1096115 -2.476099 2.476307c0 1.3666916 1.1094055 2.476097 2.476099 2.476097" fill-rule="evenodd"/><path stroke="#0b5394" stroke-width="1.0" stroke-linejoin="round" stroke-linecap="butt" d="m22.64548 42.611713c-1.3675213 0 -2.476307 1.1087837 -2.476307 2.476307c0 1.3675194 1.1087856 2.476097 2.476307 2.476097c1.3673134 0 2.476099 -1.1085777 2.476099 -2.476097c-0.0026893616 -1.3675232 -1.1087856 -2.476307 -2.476099 -2.476307z" fill-rule="evenodd"/><path stroke="#0b5394" stroke-width="1.0" stroke-linejoin="round" stroke-linecap="butt" d="m38.872902 37.65931c-0.15801239 -0.01096344 -0.31871796 -0.016338348 -0.48210907 -0.016338348l-18.815413 0c-3.7728853 0 -6.8293324 3.056446 -6.8293324 6.8293343c0 2.1493149 0.8715563 4.097183 2.2800293 5.505451c1.4082661 1.4082642 3.3561344 2.2800293 5.505451 2.2800293l17.859264 0c4.0370026 0 7.308754 -3.2715454 7.308754 -7.308754c0 -2.0186005 -0.81716156 -3.8465157 -2.1412506 -5.1677055c-1.2148857 -1.2148857 -2.857483 -2.00206 -4.6853943 -2.122017z" fill-rule="evenodd"/><path stroke="#0b5394" stroke-width="1.0" stroke-linejoin="round" stroke-linecap="butt" d="m35.516766 28.964008l-2.3400078 0l0 -5.8268566c0 -1.6318417 1.3211937 -2.9530354 2.9530334 -2.9530354l2.258316 0c0 0 0.99420166 0 0.99420166 1.1714516c0 1.4628677 -0.99420166 1.1712456 -0.99420166 1.1712456l-2.258316 0c-0.33774185 0 -0.61302567 0.2752838 -0.61302567 0.6130276l0 5.8241673z" fill-rule="evenodd"/><path stroke="#0b5394" stroke-width="1.0" stroke-linejoin="round" stroke-linecap="butt" d="m37.510963 20.181429l0 2.3426971" fill-rule="evenodd"/></g></svg>