<svg version="1.1" viewBox="0.0 0.0 52.0 80.0" fill="none" stroke="none" stroke-linecap="square" stroke-miterlimit="10" xmlns:xlink="http://www.w3.org/1999/xlink" xmlns="http://www.w3.org/2000/svg"><clipPath id="p.0"><path d="m0 0l52.0 0l0 80.0l-52.0 0l0 -80.0z" clip-rule="nonzero"/></clipPath><g clip-path="url(#p.0)"><path fill="#c9daf8" d="m0 0l52.0 0l0 80.0l-52.0 0z" fill-rule="evenodd"/><path fill="#000000" fill-opacity="0.0" d="m-9.133859 33.279827l70.67717 0l0 54.929134l-70.67717 0z" fill-rule="evenodd"/><path fill="#0b5394" d="m4.2512107 51.239826l-1.78125 -6.671875l0.90625 0l1.015625 4.375q0.171875 0.6875 0.28125 1.359375q0.265625 -1.0625 0.3125 -1.234375l1.265625 -4.5l1.0625 0l0.9531245 3.375q0.359375 1.25 0.53125 2.359375q0.125 -0.625 0.328125 -1.453125l1.046875 -4.28125l0.890625 0l-1.828125 6.671875l-0.859375 0l-1.4062495 -5.09375q-0.171875 -0.625 -0.203125 -0.78125q-0.109375 0.46875 -0.203125 0.78125l-1.421875 5.09375l-0.890625 0zm7.538711 -5.734375l0 -0.9375l0.8125 0l0 0.9375l-0.8125 0zm0 5.734375l0 -4.84375l0.8125 0l0 4.84375l-0.8125 0zm2.0567932 0l0 -4.84375l0.75 0l0 0.6875q0.53125 -0.796875 1.531251 -0.796875q0.4375 0 0.796875 0.171875q0.375 0.15625 0.546875 0.40625q0.1875 0.25 0.265625 0.609375q0.046875 0.21875 0.046875 0.796875l0 2.96875l-0.828125 0l0 -2.9375q0 -0.5 -0.09375 -0.75q-0.09375 -0.25 -0.34375 -0.390625q-0.234375 -0.15625 -0.56250095 -0.15625q-0.515625 0 -0.90625 0.328125q-0.375 0.328125 -0.375 1.265625l0 2.640625l-0.828125 0zm11.092029 -1.5625l0.84375 0.109375q-0.1875 0.75 -0.734375 1.15625q-0.546875 0.40625 -1.390625 0.40625q-1.0625019 0 -1.6875019 -0.65625q-0.609375 -0.65625 -0.609375 -1.828125q0 -1.21875 0.625 -1.890625q0.625 -0.6875 1.6250019 -0.6875q0.984375 0 1.59375 0.671875q0.609375 0.65625 0.609375 1.859375q0 0.0625 0 0.21875l-3.609377 0q0.046875 0.796875 0.453125 1.21875q0.4062519 0.421875 1.0156269 0.421875q0.453125 0 0.765625 -0.234375q0.3125 -0.234375 0.5 -0.765625zm-2.687502 -1.328125l2.703127 0q-0.0625 -0.609375 -0.3125 -0.90625q-0.390625 -0.46875 -1.015625 -0.46875q-0.5625 0 -0.9531269 0.375q-0.375 0.375 -0.421875 1.0zm4.015993 2.890625l1.765625 -2.515625l-1.625 -2.328125l1.015625 0l0.75 1.140625q0.203125 0.328125 0.34375 0.546875q0.1875 -0.3125 0.359375 -0.53125l0.8125 -1.15625l0.984375 0l-1.671875 2.28125l1.796875 2.5625l-1.0 0l-1.0 -1.5l-0.265625 -0.40625l-1.265625 1.90625l-1.0 0zm8.3671875 -0.59375q-0.453125 0.390625 -0.875 0.546875q-0.421875 0.15625 -0.90625 0.15625q-0.796875 0 -1.21875 -0.390625q-0.421875 -0.390625 -0.421875 -1.0q0 -0.34375 0.15625 -0.640625q0.15625 -0.296875 0.421875 -0.46875q0.265625 -0.1875 0.59375 -0.28125q0.234375 -0.0625 0.71875 -0.109375q1.0 -0.125 1.46875 -0.28125q0 -0.171875 0 -0.21875q0 -0.5 -0.234375 -0.703125q-0.3125 -0.28125 -0.921875 -0.28125q-0.578125 0 -0.859375 0.203125q-0.28125 0.203125 -0.40625 0.71875l-0.796875 -0.109375q0.109375 -0.515625 0.359375 -0.828125q0.25 -0.328125 0.71875 -0.5q0.46875 -0.171875 1.09375 -0.171875q0.625 0 1.0 0.15625q0.390625 0.140625 0.578125 0.359375q0.1875 0.21875 0.25 0.5625q0.046875 0.203125 0.046875 0.75l0 1.09375q0 1.140625 0.046875 1.453125q0.0625 0.296875 0.21875 0.578125l-0.859375 0q-0.125 -0.25 -0.171875 -0.59375zm-0.0625 -1.828125q-0.453125 0.171875 -1.34375 0.296875q-0.5 0.078125 -0.71875 0.171875q-0.203125 0.09375 -0.3125 0.265625q-0.109375 0.171875 -0.109375 0.390625q0 0.328125 0.234375 0.546875q0.25 0.21875 0.734375 0.21875q0.46875 0 0.828125 -0.203125q0.375 -0.21875 0.5625 -0.578125q0.125 -0.265625 0.125 -0.8125l0 -0.296875zm5.250366 0.65625l0.8125 0.09375q-0.125 0.84375 -0.671875 1.3125q-0.546875 0.46875 -1.34375 0.46875q-0.984375 0 -1.59375 -0.640625q-0.609375 -0.65625 -0.609375 -1.875q0 -0.78125 0.265625 -1.359375q0.265625 -0.59375 0.78125 -0.890625q0.53125 -0.296875 1.15625 -0.296875q0.796875 0 1.296875 0.40625q0.5 0.390625 0.640625 1.125l-0.796875 0.125q-0.109375 -0.484375 -0.40625 -0.71875q-0.28125 -0.25 -0.703125 -0.25q-0.609375 0 -1.0 0.4375q-0.390625 0.4375 -0.390625 1.40625q0 0.96875 0.375 1.421875q0.375 0.4375 0.984375 0.4375q0.46875 0 0.796875 -0.296875q0.328125 -0.296875 0.40625 -0.90625zm3.3046875 1.03125l0.109375 0.71875q-0.34375 0.078125 -0.609375 0.078125q-0.453125 0 -0.703125 -0.140625q-0.234375 -0.140625 -0.34375 -0.359375q-0.09375 -0.234375 -0.09375 -0.984375l0 -2.78125l-0.609375 0l0 -0.640625l0.609375 0l0 -1.1875l0.8125 -0.5l0 1.6875l0.828125 0l0 0.640625l-0.828125 0l0 2.828125q0 0.359375 0.046875 0.46875q0.046875 0.09375 0.140625 0.15625q0.09375 0.046875 0.28125 0.046875q0.140625 0 0.359375 -0.03125zm0.77915955 0.734375l0 -6.671875l0.828125 0l0 6.671875l-0.828125 0zm2.0567932 1.859375l-0.09375 -0.765625q0.265625 0.078125 0.46875 0.078125q0.28125 0 0.4375 -0.09375q0.171875 -0.09375 0.265625 -0.265625q0.078125 -0.109375 0.25 -0.609375q0.03125 -0.0625 0.078125 -0.1875l-1.828125 -4.859375l0.875 0l1.015625 2.8125q0.1875 0.53125 0.34375 1.109375q0.140625 -0.5625 0.34375 -1.09375l1.03125 -2.828125l0.8125 0l-1.84375 4.921875q-0.28125 0.796875 -0.453125 1.09375q-0.21875 0.40625 -0.5 0.59375q-0.28125 0.203125 -0.671875 0.203125q-0.234375 0 -0.53125 -0.109375z" fill-rule="nonzero"/><path fill="#0b5394" d="m12.853658 60.6742l0.828125 -0.109375q0.140625 0.703125 0.46875 1.015625q0.34375 0.296875 0.828125 0.296875q0.578125 0 0.96875 -0.390625q0.40625095 -0.40625 0.40625095 -1.0q0 -0.5625 -0.37500095 -0.921875q-0.359375 -0.375 -0.921875 -0.375q-0.234375 0 -0.578125 0.09375l0.078125 -0.71875q0.09375 0 0.140625 0q0.515625 0 0.9375 -0.265625q0.42187595 -0.28125 0.42187595 -0.84375q0 -0.453125 -0.31250095 -0.75q-0.296875 -0.296875 -0.78125 -0.296875q-0.484375 0 -0.796875 0.3125q-0.3125 0.296875 -0.40625 0.890625l-0.828125 -0.140625q0.15625 -0.828125 0.6875 -1.28125q0.53125 -0.453125 1.328125 -0.453125q0.546875 0 1.0 0.234375q0.46875095 0.234375 0.70312595 0.640625q0.25 0.40625 0.25 0.859375q0 0.4375 -0.234375 0.796875q-0.234375 0.34375 -0.68750095 0.5625q0.59375095 0.125 0.92187595 0.5625q0.328125 0.421875 0.328125 1.078125q0 0.875 -0.640625 1.484375q-0.64062595 0.609375 -1.609376 0.609375q-0.875 0 -1.46875 -0.515625q-0.578125 -0.53125 -0.65625 -1.375zm7.6701517 0.328125l0.8125 -0.140625q0.078125 0.5 0.390625 0.765625q0.3125 0.25 0.859375 0.25q0.5781269 0 0.8437519 -0.234375q0.28125 -0.234375 0.28125 -0.53125q0 -0.28125 -0.25 -0.4375q-0.171875 -0.109375 -0.8437519 -0.28125q-0.890625 -0.234375 -1.25 -0.390625q-0.34375 -0.171875 -0.53125 -0.46875q-0.171875 -0.296875 -0.171875 -0.640625q0 -0.328125 0.140625 -0.59375q0.15625 -0.28125 0.40625 -0.46875q0.203125 -0.140625 0.53125 -0.234375q0.328125 -0.109375 0.703125 -0.109375q0.5781269 0 1.0000019 0.171875q0.4375 0.15625 0.640625 0.4375q0.203125 0.28125 0.28125 0.75l-0.796875 0.109375q-0.0625 -0.375 -0.328125 -0.578125q-0.265625 -0.203125 -0.7343769 -0.203125q-0.5625 0 -0.8125 0.1875q-0.234375 0.171875 -0.234375 0.4375q0 0.15625 0.09375 0.28125q0.109375 0.125 0.3125 0.21875q0.125 0.046875 0.734375 0.203125q0.8593769 0.234375 1.2031269 0.390625q0.34375 0.140625 0.53125 0.421875q0.203125 0.28125 0.203125 0.703125q0 0.40625 -0.234375 0.78125q-0.234375 0.359375 -0.6875 0.5625q-0.453125 0.1875 -1.0156269 0.1875q-0.953125 0 -1.453125 -0.390625q-0.484375 -0.390625 -0.625 -1.15625zm8.164064 1.4375l0 -0.703125q-0.5625 0.8125 -1.53125 0.8125q-0.421875 0 -0.796875 -0.15625q-0.375 -0.171875 -0.5625 -0.421875q-0.171875 -0.25 -0.25 -0.609375q-0.046875 -0.234375 -0.046875 -0.765625l0 -3.0l0.828125 0l0 2.6875q0 0.640625 0.046875 0.875q0.078125 0.3125 0.328125 0.5q0.25 0.1875 0.609375 0.1875q0.375 0 0.703125 -0.1875q0.328125 -0.1875 0.453125 -0.515625q0.140625 -0.328125 0.140625 -0.953125l0 -2.59375l0.8125 0l0 4.84375l-0.734375 0zm2.7816162 0l-0.765625 0l0 -6.671875l0.828125 0l0 2.375q0.515625 -0.65625 1.3125 -0.65625q0.453125 0 0.84375 0.1875q0.40625 0.171875 0.65625 0.5q0.265625 0.328125 0.40625 0.796875q0.15625 0.453125 0.15625 0.984375q0 1.234375 -0.625 1.921875q-0.609375 0.671875 -1.46875 0.671875q-0.859375 0 -1.34375 -0.71875l0 0.609375zm-0.015625 -2.453125q0 0.875 0.234375 1.25q0.390625 0.640625 1.046875 0.640625q0.546875 0 0.9375 -0.46875q0.390625 -0.46875 0.390625 -1.390625q0 -0.953125 -0.375 -1.390625q-0.375 -0.453125 -0.90625 -0.453125q-0.546875 0 -0.9375 0.46875q-0.390625 0.453125 -0.390625 1.34375zm4.109741 1.015625l0.8125 -0.140625q0.078125 0.5 0.390625 0.765625q0.3125 0.25 0.859375 0.25q0.578125 0 0.84375 -0.234375q0.28125 -0.234375 0.28125 -0.53125q0 -0.28125 -0.25 -0.4375q-0.171875 -0.109375 -0.84375 -0.28125q-0.890625 -0.234375 -1.25 -0.390625q-0.34375 -0.171875 -0.53125 -0.46875q-0.171875 -0.296875 -0.171875 -0.640625q0 -0.328125 0.140625 -0.59375q0.15625 -0.28125 0.40625 -0.46875q0.203125 -0.140625 0.53125 -0.234375q0.328125 -0.109375 0.703125 -0.109375q0.578125 0 1.0 0.171875q0.4375 0.15625 0.640625 0.4375q0.203125 0.28125 0.28125 0.75l-0.796875 0.109375q-0.0625 -0.375 -0.328125 -0.578125q-0.265625 -0.203125 -0.734375 -0.203125q-0.5625 0 -0.8125 0.1875q-0.234375 0.171875 -0.234375 0.4375q0 0.15625 0.09375 0.28125q0.109375 0.125 0.3125 0.21875q0.125 0.046875 0.734375 0.203125q0.859375 0.234375 1.203125 0.390625q0.34375 0.140625 0.53125 0.421875q0.203125 0.28125 0.203125 0.703125q0 0.40625 -0.234375 0.78125q-0.234375 0.359375 -0.6875 0.5625q-0.453125 0.1875 -1.015625 0.1875q-0.953125 0 -1.453125 -0.390625q-0.484375 -0.390625 -0.625 -1.15625z" fill-rule="nonzero"/><path fill="#0b5394" d="m3.018911 70.92482q-0.390625 -0.5 -0.65625 -1.140625q-0.265625 -0.65625 -0.265625 -1.359375q0 -0.625 0.1875 -1.1875q0.234375 -0.65625 0.734375 -1.3125l0.328125 0q-0.3125 0.53125 -0.40625 0.765625q-0.171875 0.359375 -0.25 0.75q-0.125 0.484375 -0.125 0.984375q0 1.25 0.78125 2.5l-0.328125 0zm0.86805725 -1.125l0 -2.765625l0.421875 0l0 0.421875q0.15625 -0.296875 0.296875 -0.390625q0.140625 -0.09375 0.296875 -0.09375q0.25 0 0.484375 0.15625l-0.15625 0.4375q-0.171875 -0.109375 -0.34375 -0.109375q-0.15625 0 -0.28125 0.09375q-0.125 0.09375 -0.171875 0.25q-0.078125 0.25 -0.078125 0.546875l0 1.453125l-0.46875 0zm3.6805573 -0.890625l0.46874952 0.0625q-0.10937452 0.421875 -0.42187452 0.65625q-0.296875 0.234375 -0.78125 0.234375q-0.609375 0 -0.96875 -0.375q-0.359375 -0.375 -0.359375 -1.046875q0 -0.703125 0.359375 -1.078125q0.359375 -0.390625 0.9375 -0.390625q0.5625 0 0.90625 0.375q0.34374952 0.375 0.34374952 1.0625q0 0.046875 0 0.125l-2.0624995 0q0.03125 0.453125 0.265625 0.703125q0.234375 0.234375 0.578125 0.234375q0.25 0 0.4375 -0.125q0.1875 -0.140625 0.296875 -0.4375zm-1.546875 -0.75l1.546875 0q-0.03125 -0.359375 -0.171875 -0.53125q-0.234375 -0.265625 -0.59375 -0.265625q-0.3125 0 -0.53125 0.21875q-0.21875 0.203125 -0.25 0.578125zm4.4007564 1.640625l0 -0.34375q-0.265625 0.40625 -0.765625 0.40625q-0.328125 0 -0.609375 -0.171875q-0.28125 -0.1875 -0.4375 -0.515625q-0.140625 -0.328125 -0.140625 -0.75q0 -0.421875 0.125 -0.75q0.140625 -0.34375 0.421875 -0.515625q0.28125 -0.1875 0.609375 -0.1875q0.25 0 0.4375 0.109375q0.203125 0.109375 0.328125 0.265625l0 -1.359375l0.46875 0l0 3.8125l-0.4375 0zm-1.484375 -1.375q0 0.53125 0.21875 0.796875q0.234375 0.25 0.546875 0.25q0.296875 0 0.515625 -0.25q0.21875 -0.25 0.21875 -0.765625q0 -0.5625 -0.21875 -0.828125q-0.21875 -0.265625 -0.546875 -0.265625q-0.3125 0 -0.53125 0.265625q-0.203125 0.25 -0.203125 0.796875zm4.557007 0.484375l0.46875 0.0625q-0.109375 0.421875 -0.421875 0.65625q-0.296875 0.234375 -0.78125 0.234375q-0.609375 0 -0.96875 -0.375q-0.359375 -0.375 -0.359375 -1.046875q0 -0.703125 0.359375 -1.078125q0.359375 -0.390625 0.9375 -0.390625q0.5625 0 0.90625 0.375q0.34375 0.375 0.34375 1.0625q0 0.046875 0 0.125l-2.0625 0q0.03125 0.453125 0.265625 0.703125q0.234375 0.234375 0.578125 0.234375q0.25 0 0.4375 -0.125q0.1875 -0.140625 0.296875 -0.4375zm-1.546875 -0.75l1.546875 0q-0.03125 -0.359375 -0.171875 -0.53125q-0.234375 -0.265625 -0.59375 -0.265625q-0.3125 0 -0.53125 0.21875q-0.21875 0.203125 -0.25 0.578125zm4.416383 1.296875q-0.265625 0.21875 -0.51562595 0.3125q-0.234375 0.09375 -0.5 0.09375q-0.453125 0 -0.703125 -0.21875q-0.25 -0.21875 -0.25 -0.578125q0 -0.203125 0.09375 -0.359375q0.09375 -0.171875 0.234375 -0.265625q0.15625 -0.109375 0.34375 -0.15625q0.140625 -0.046875 0.421875 -0.078125q0.56250095 -0.0625 0.82812595 -0.15625q0.015625 -0.09375 0.015625 -0.125q0 -0.28125 -0.140625 -0.40625q-0.171875 -0.15625 -0.53125095 -0.15625q-0.328125 0 -0.484375 0.125q-0.15625 0.109375 -0.234375 0.40625l-0.46875 -0.0625q0.0625 -0.296875 0.203125 -0.46875q0.15625 -0.1875 0.421875 -0.28125q0.265625 -0.109375 0.625 -0.109375q0.35937595 0 0.57812595 0.09375q0.21875 0.078125 0.328125 0.203125q0.109375 0.125 0.140625 0.3125q0.03125 0.125 0.03125 0.4375l0 0.625q0 0.65625 0.03125 0.828125q0.03125 0.171875 0.109375 0.328125l-0.484375 0q-0.078125 -0.140625 -0.09375 -0.34375zm-0.046875 -1.046875q-0.25 0.109375 -0.76562595 0.1875q-0.28125 0.03125 -0.40625 0.09375q-0.109375 0.046875 -0.1875 0.15625q-0.0625 0.09375 -0.0625 0.21875q0 0.1875 0.140625 0.3125q0.140625 0.125 0.421875 0.125q0.265625 0 0.46875 -0.125q0.21875095 -0.125 0.32812595 -0.328125q0.0625 -0.15625 0.0625 -0.46875l0 -0.171875zm1.1976318 1.390625l0 -3.8125l0.46875 0l0 3.8125l-0.46875 0zm2.6797028 -3.28125l0 -0.53125l0.46875 0l0 0.53125l-0.46875 0zm0 3.28125l0 -2.765625l0.46875 0l0 2.765625l-0.46875 0zm1.2931213 0l0 -2.40625l-0.421875 0l0 -0.359375l0.421875 0l0 -0.296875q0 -0.265625 0.046875 -0.40625q0.0625 -0.1875 0.234375 -0.296875q0.171875 -0.109375 0.484375 -0.109375q0.1875 0 0.4375 0.046875l-0.078125 0.40625q-0.140625 -0.03125 -0.28125 -0.03125q-0.203125 0 -0.296875 0.09375q-0.09375 0.09375 -0.09375 0.34375l0 0.25l0.546875 0l0 0.359375l-0.546875 0l0 2.40625l-0.453125 0zm2.6637897 -1.375q0 -0.78125 0.4375 -1.140625q0.34375 -0.3125 0.859375 -0.3125q0.578125 0 0.9375 0.375q0.359375 0.375 0.359375 1.03125q0 0.53125 -0.15625 0.84375q-0.15625 0.296875 -0.46875 0.46875q-0.3125 0.171875 -0.671875 0.171875q-0.578125 0 -0.9375 -0.375q-0.359375 -0.375 -0.359375 -1.0625zm0.484375 0q0 0.53125 0.234375 0.796875q0.234375 0.25 0.578125 0.25q0.359375 0 0.578125 -0.265625q0.234375 -0.265625 0.234375 -0.796875q0 -0.515625 -0.234375 -0.78125q-0.234375 -0.265625 -0.578125 -0.265625q-0.34375 0 -0.578125 0.265625q-0.234375 0.265625 -0.234375 0.796875zm2.6507568 1.375l0 -2.765625l0.421875 0l0 0.390625q0.3125 -0.453125 0.890625 -0.453125q0.25 0 0.453125 0.09375q0.21875 0.09375 0.3125 0.234375q0.109375 0.140625 0.15625 0.34375q0.015625 0.125 0.015625 0.453125l0 1.703125l-0.46875 0l0 -1.6875q0 -0.28125 -0.0625 -0.421875q-0.046875 -0.140625 -0.1875 -0.21875q-0.140625 -0.09375 -0.328125 -0.09375q-0.296875 0 -0.515625 0.1875q-0.21875 0.1875 -0.21875 0.71875l0 1.515625l-0.46875 0zm4.869507 -0.890625l0.46875 0.0625q-0.109375 0.421875 -0.421875 0.65625q-0.296875 0.234375 -0.78125 0.234375q-0.609375 0 -0.96875 -0.375q-0.359375 -0.375 -0.359375 -1.046875q0 -0.703125 0.359375 -1.078125q0.359375 -0.390625 0.9375 -0.390625q0.5625 0 0.90625 0.375q0.34375 0.375 0.34375 1.0625q0 0.046875 0 0.125l-2.0625 0q0.03125 0.453125 0.265625 0.703125q0.234375 0.234375 0.578125 0.234375q0.25 0 0.4375 -0.125q0.1875 -0.140625 0.296875 -0.4375zm-1.546875 -0.75l1.546875 0q-0.03125 -0.359375 -0.171875 -0.53125q-0.234375 -0.265625 -0.59375 -0.265625q-0.3125 0 -0.53125 0.21875q-0.21875 0.203125 -0.25 0.578125zm4.0842133 2.703125l0 -3.828125l0.4375 0l0 0.359375q0.140625 -0.203125 0.328125 -0.3125q0.203125 -0.109375 0.46875 -0.109375q0.359375 0 0.625 0.1875q0.265625 0.171875 0.40625 0.515625q0.140625 0.328125 0.140625 0.71875q0 0.421875 -0.15625 0.765625q-0.140625 0.34375 -0.4375 0.53125q-0.296875 0.171875 -0.609375 0.171875q-0.234375 0 -0.421875 -0.09375q-0.1875 -0.109375 -0.3125 -0.25l0 1.34375l-0.46875 0zm0.4375 -2.421875q0 0.53125 0.203125 0.78125q0.21875 0.25 0.53125 0.25q0.3125 0 0.53125 -0.25q0.21875 -0.265625 0.21875 -0.828125q0 -0.53125 -0.21875 -0.78125q-0.203125 -0.265625 -0.515625 -0.265625q-0.296875 0 -0.53125 0.28125q-0.21875 0.265625 -0.21875 0.8125zm4.432007 0.46875l0.46875 0.0625q-0.109375 0.421875 -0.421875 0.65625q-0.296875 0.234375 -0.78125 0.234375q-0.609375 0 -0.96875 -0.375q-0.359375 -0.375 -0.359375 -1.046875q0 -0.703125 0.359375 -1.078125q0.359375 -0.390625 0.9375 -0.390625q0.5625 0 0.90625 0.375q0.34375 0.375 0.34375 1.0625q0 0.046875 0 0.125l-2.0625 0q0.03125 0.453125 0.265625 0.703125q0.234375 0.234375 0.578125 0.234375q0.25 0 0.4375 -0.125q0.1875 -0.140625 0.296875 -0.4375zm-1.546875 -0.75l1.546875 0q-0.03125 -0.359375 -0.171875 -0.53125q-0.234375 -0.265625 -0.59375 -0.265625q-0.3125 0 -0.53125 0.21875q-0.21875 0.203125 -0.25 0.578125zm2.6038818 1.640625l0 -2.765625l0.421875 0l0 0.421875q0.15625 -0.296875 0.296875 -0.390625q0.140625 -0.09375 0.296875 -0.09375q0.25 0 0.484375 0.15625l-0.15625 0.4375q-0.171875 -0.109375 -0.34375 -0.109375q-0.15625 0 -0.28125 0.09375q-0.125 0.09375 -0.171875 0.25q-0.078125 0.25 -0.078125 0.546875l0 1.453125l-0.46875 0zm1.5868073 -0.828125l0.46875 -0.0625q0.046875 0.265625 0.21875 0.421875q0.171875 0.140625 0.5 0.140625q0.328125 0 0.484375 -0.125q0.15625 -0.125 0.15625 -0.3125q0 -0.15625 -0.140625 -0.25q-0.09375 -0.0625 -0.484375 -0.15625q-0.515625 -0.125 -0.71875 -0.21875q-0.1875 -0.09375 -0.296875 -0.265625q-0.109375 -0.171875 -0.109375 -0.375q0 -0.1875 0.078125 -0.34375q0.09375 -0.15625 0.25 -0.265625q0.109375 -0.078125 0.296875 -0.125q0.1875 -0.0625 0.40625 -0.0625q0.3125 0 0.5625 0.09375q0.25 0.09375 0.359375 0.265625q0.125 0.15625 0.171875 0.421875l-0.46875 0.0625q-0.03125 -0.21875 -0.1875 -0.328125q-0.140625 -0.125 -0.40625 -0.125q-0.328125 0 -0.46875 0.109375q-0.140625 0.09375 -0.140625 0.25q0 0.078125 0.0625 0.15625q0.0625 0.078125 0.1875 0.125q0.0625 0.03125 0.40625 0.125q0.5 0.125 0.6875 0.21875q0.203125 0.078125 0.3125 0.25q0.109375 0.15625 0.109375 0.390625q0 0.234375 -0.140625 0.453125q-0.125 0.203125 -0.390625 0.3125q-0.25 0.109375 -0.578125 0.109375q-0.53125 0 -0.828125 -0.21875q-0.28125 -0.234375 -0.359375 -0.671875zm2.6796875 -0.546875q0 -0.78125 0.4375 -1.140625q0.34375 -0.3125 0.859375 -0.3125q0.578125 0 0.9375 0.375q0.359375 0.375 0.359375 1.03125q0 0.53125 -0.15625 0.84375q-0.15625 0.296875 -0.46875 0.46875q-0.3125 0.171875 -0.671875 0.171875q-0.578125 0 -0.9375 -0.375q-0.359375 -0.375 -0.359375 -1.0625zm0.484375 0q0 0.53125 0.234375 0.796875q0.234375 0.25 0.578125 0.25q0.359375 0 0.578125 -0.265625q0.234375 -0.265625 0.234375 -0.796875q0 -0.515625 -0.234375 -0.78125q-0.234375 -0.265625 -0.578125 -0.265625q-0.34375 0 -0.578125 0.265625q-0.234375 0.265625 -0.234375 0.796875zm2.6507568 1.375l0 -2.765625l0.421875 0l0 0.390625q0.3125 -0.453125 0.890625 -0.453125q0.25 0 0.453125 0.09375q0.21875 0.09375 0.3125 0.234375q0.109375 0.140625 0.15625 0.34375q0.015625 0.125 0.015625 0.453125l0 1.703125l-0.46875 0l0 -1.6875q0 -0.28125 -0.0625 -0.421875q-0.046875 -0.140625 -0.1875 -0.21875q-0.140625 -0.09375 -0.328125 -0.09375q-0.296875 0 -0.515625 0.1875q-0.21875 0.1875 -0.21875 0.71875l0 1.515625l-0.46875 0z" fill-rule="nonzero"/><path fill="#0b5394" d="m11.593007 76.19982l0 -3.8125l0.46875 0l0 1.359375q0.328125 -0.375 0.828125 -0.375q0.3125 0 0.53125 0.125q0.234375 0.125 0.328125 0.34375q0.109375 0.203125 0.109375 0.609375l0 1.75l-0.46875 0l0 -1.75q0 -0.359375 -0.15625 -0.515625q-0.15625 -0.15625 -0.4375 -0.15625q-0.203125 0 -0.390625 0.109375q-0.1875 0.109375 -0.265625 0.296875q-0.078125 0.171875 -0.078125 0.5l0 1.515625l-0.46875 0zm4.775758 -0.34375q-0.265625 0.21875 -0.51562595 0.3125q-0.234375 0.09375 -0.5 0.09375q-0.453125 0 -0.703125 -0.21875q-0.25 -0.21875 -0.25 -0.578125q0 -0.203125 0.09375 -0.359375q0.09375 -0.171875 0.234375 -0.265625q0.15625 -0.109375 0.34375 -0.15625q0.140625 -0.046875 0.421875 -0.078125q0.56250095 -0.0625 0.82812595 -0.15625q0.015625 -0.09375 0.015625 -0.125q0 -0.28125 -0.140625 -0.40625q-0.171875 -0.15625 -0.53125095 -0.15625q-0.328125 0 -0.484375 0.125q-0.15625 0.109375 -0.234375 0.40625l-0.46875 -0.0625q0.0625 -0.296875 0.203125 -0.46875q0.15625 -0.1875 0.421875 -0.28125q0.265625 -0.109375 0.625 -0.109375q0.35937595 0 0.57812595 0.09375q0.21875 0.078125 0.328125 0.203125q0.109375 0.125 0.140625 0.3125q0.03125 0.125 0.03125 0.4375l0 0.625q0 0.65625 0.03125 0.828125q0.03125 0.171875 0.109375 0.328125l-0.484375 0q-0.078125 -0.140625 -0.09375 -0.34375zm-0.046875 -1.046875q-0.25 0.109375 -0.76562595 0.1875q-0.28125 0.03125 -0.40625 0.09375q-0.109375 0.046875 -0.1875 0.15625q-0.0625 0.09375 -0.0625 0.21875q0 0.1875 0.140625 0.3125q0.140625 0.125 0.421875 0.125q0.265625 0 0.46875 -0.125q0.21875095 -0.125 0.32812595 -0.328125q0.0625 -0.15625 0.0625 -0.46875l0 -0.171875zm1.0101318 0.5625l0.46875 -0.0625q0.046875 0.265625 0.21875 0.421875q0.171875 0.140625 0.5 0.140625q0.328125 0 0.484375 -0.125q0.15625 -0.125 0.15625 -0.3125q0 -0.15625 -0.140625 -0.25q-0.09375 -0.0625 -0.484375 -0.15625q-0.515625 -0.125 -0.71875 -0.21875q-0.1875 -0.09375 -0.296875 -0.265625q-0.109375 -0.171875 -0.109375 -0.375q0 -0.1875 0.078125 -0.34375q0.09375 -0.15625 0.25 -0.265625q0.109375 -0.078125 0.296875 -0.125q0.1875 -0.0625 0.40625 -0.0625q0.3125 0 0.5625 0.09375q0.25 0.09375 0.359375 0.265625q0.125 0.15625 0.171875 0.421875l-0.46875 0.0625q-0.03125 -0.21875 -0.1875 -0.328125q-0.140625 -0.125 -0.40625 -0.125q-0.328125 0 -0.46875 0.109375q-0.140625 0.09375 -0.140625 0.25q0 0.078125 0.0625 0.15625q0.0625 0.078125 0.1875 0.125q0.0625 0.03125 0.40625 0.125q0.5 0.125 0.6875 0.21875q0.203125 0.078125 0.3125 0.25q0.109375 0.15625 0.109375 0.390625q0 0.234375 -0.140625 0.453125q-0.125 0.203125 -0.390625 0.3125q-0.25 0.109375 -0.578125 0.109375q-0.53125 0 -0.828125 -0.21875q-0.28125 -0.234375 -0.359375 -0.671875zm6.144396 0.484375q-0.265625 0.21875 -0.515625 0.3125q-0.2343769 0.09375 -0.5000019 0.09375q-0.453125 0 -0.703125 -0.21875q-0.25 -0.21875 -0.25 -0.578125q0 -0.203125 0.09375 -0.359375q0.09375 -0.171875 0.234375 -0.265625q0.15625 -0.109375 0.34375 -0.15625q0.140625 -0.046875 0.421875 -0.078125q0.5625019 -0.0625 0.8281269 -0.15625q0.015625 -0.09375 0.015625 -0.125q0 -0.28125 -0.140625 -0.40625q-0.171875 -0.15625 -0.5312519 -0.15625q-0.328125 0 -0.484375 0.125q-0.15625 0.109375 -0.234375 0.40625l-0.46875 -0.0625q0.0625 -0.296875 0.203125 -0.46875q0.15625 -0.1875 0.421875 -0.28125q0.265625 -0.109375 0.625 -0.109375q0.3593769 0 0.5781269 0.09375q0.21875 0.078125 0.328125 0.203125q0.109375 0.125 0.140625 0.3125q0.03125 0.125 0.03125 0.4375l0 0.625q0 0.65625 0.03125 0.828125q0.03125 0.171875 0.109375 0.328125l-0.484375 0q-0.078125 -0.140625 -0.09375 -0.34375zm-0.046875 -1.046875q-0.25 0.109375 -0.7656269 0.1875q-0.28125 0.03125 -0.40625 0.09375q-0.109375 0.046875 -0.1875 0.15625q-0.0625 0.09375 -0.0625 0.21875q0 0.1875 0.140625 0.3125q0.140625 0.125 0.421875 0.125q0.265625 0 0.4687519 -0.125q0.21875 -0.125 0.328125 -0.328125q0.0625 -0.15625 0.0625 -0.46875l0 -0.171875zm1.1976318 1.390625l0 -3.8125l0.46875 0l0 3.8125l-0.46875 0zm1.1837463 0l0 -3.8125l0.46875 0l0 3.8125l-0.46875 0zm2.4765778 -0.828125l0.46875 -0.0625q0.046875 0.265625 0.21875 0.421875q0.171875 0.140625 0.5 0.140625q0.328125 0 0.484375 -0.125q0.15625 -0.125 0.15625 -0.3125q0 -0.15625 -0.140625 -0.25q-0.09375 -0.0625 -0.484375 -0.15625q-0.515625 -0.125 -0.71875 -0.21875q-0.1875 -0.09375 -0.296875 -0.265625q-0.109375 -0.171875 -0.109375 -0.375q0 -0.1875 0.078125 -0.34375q0.09375 -0.15625 0.25 -0.265625q0.109375 -0.078125 0.296875 -0.125q0.1875 -0.0625 0.40625 -0.0625q0.3125 0 0.5625 0.09375q0.25 0.09375 0.359375 0.265625q0.125 0.15625 0.171875 0.421875l-0.46875 0.0625q-0.03125 -0.21875 -0.1875 -0.328125q-0.140625 -0.125 -0.40625 -0.125q-0.328125 0 -0.46875 0.109375q-0.140625 0.09375 -0.140625 0.25q0 0.078125 0.0625 0.15625q0.0625 0.078125 0.1875 0.125q0.0625 0.03125 0.40625 0.125q0.5 0.125 0.6875 0.21875q0.203125 0.078125 0.3125 0.25q0.109375 0.15625 0.109375 0.390625q0 0.234375 -0.140625 0.453125q-0.125 0.203125 -0.390625 0.3125q-0.25 0.109375 -0.578125 0.109375q-0.53125 0 -0.828125 -0.21875q-0.28125 -0.234375 -0.359375 -0.671875zm4.6640625 0.828125l0 -0.40625q-0.3125 0.46875 -0.875 0.46875q-0.234375 0 -0.453125 -0.09375q-0.21875 -0.09375 -0.328125 -0.234375q-0.09375 -0.140625 -0.125 -0.34375q-0.03125 -0.140625 -0.03125 -0.4375l0 -1.71875l0.46875 0l0 1.53125q0 0.375 0.03125 0.5q0.03125 0.1875 0.171875 0.296875q0.15625 0.09375 0.359375 0.09375q0.21875 0 0.390625 -0.109375q0.1875 -0.109375 0.265625 -0.28125q0.078125 -0.1875 0.078125 -0.546875l0 -1.484375l0.46875 0l0 2.765625l-0.421875 0zm1.5882568 0l-0.4375 0l0 -3.8125l0.46875 0l0 1.359375q0.296875 -0.375 0.765625 -0.375q0.25 0 0.46875 0.109375q0.234375 0.09375 0.375 0.28125q0.15625 0.1875 0.234375 0.453125q0.09375 0.265625 0.09375 0.5625q0 0.703125 -0.359375 1.09375q-0.34375 0.390625 -0.84375 0.390625q-0.484375 0 -0.765625 -0.40625l0 0.34375zm0 -1.40625q0 0.5 0.125 0.71875q0.234375 0.359375 0.609375 0.359375q0.296875 0 0.515625 -0.265625q0.234375 -0.265625 0.234375 -0.796875q0 -0.53125 -0.21875 -0.78125q-0.203125 -0.265625 -0.515625 -0.265625q-0.3125 0 -0.53125 0.265625q-0.21875 0.265625 -0.21875 0.765625zm2.3382568 0.578125l0.46875 -0.0625q0.046875 0.265625 0.21875 0.421875q0.171875 0.140625 0.5 0.140625q0.328125 0 0.484375 -0.125q0.15625 -0.125 0.15625 -0.3125q0 -0.15625 -0.140625 -0.25q-0.09375 -0.0625 -0.484375 -0.15625q-0.515625 -0.125 -0.71875 -0.21875q-0.1875 -0.09375 -0.296875 -0.265625q-0.109375 -0.171875 -0.109375 -0.375q0 -0.1875 0.078125 -0.34375q0.09375 -0.15625 0.25 -0.265625q0.109375 -0.078125 0.296875 -0.125q0.1875 -0.0625 0.40625 -0.0625q0.3125 0 0.5625 0.09375q0.25 0.09375 0.359375 0.265625q0.125 0.15625 0.171875 0.421875l-0.46875 0.0625q-0.03125 -0.21875 -0.1875 -0.328125q-0.140625 -0.125 -0.40625 -0.125q-0.328125 0 -0.46875 0.109375q-0.140625 0.09375 -0.140625 0.25q0 0.078125 0.0625 0.15625q0.0625 0.078125 0.1875 0.125q0.0625 0.03125 0.40625 0.125q0.5 0.125 0.6875 0.21875q0.203125 0.078125 0.3125 0.25q0.109375 0.15625 0.109375 0.390625q0 0.234375 -0.140625 0.453125q-0.125 0.203125 -0.390625 0.3125q-0.25 0.109375 -0.578125 0.109375q-0.53125 0 -0.828125 -0.21875q-0.28125 -0.234375 -0.359375 -0.671875zm3.1640625 1.953125l-0.328125 0q0.765625 -1.25 0.765625 -2.5q0 -0.5 -0.109375 -0.96875q-0.078125 -0.390625 -0.25 -0.75q-0.09375 -0.234375 -0.40625 -0.78125l0.328125 0q0.484375 0.65625 0.71875 1.3125q0.203125 0.5625 0.203125 1.1875q0 0.703125 -0.265625 1.359375q-0.265625 0.640625 -0.65625 1.140625z" fill-rule="nonzero"/><path fill="#cfe2f3" d="m39.84686 25.482328c1.0291138 0 1.8633614 0.8344021 1.8633614 1.863514c0 1.0291119 -0.8342476 1.8633595 -1.8633614 1.8633595c-1.02911 0 -1.863514 -0.8342476 -1.863514 -1.8633595c0 -1.0291119 0.834404 -1.863514 1.863514 -1.863514zm-7.345104 1.863514c0 1.0291119 0.8342476 1.8633595 1.8633575 1.8633595c1.02911 0 1.863514 -0.8342476 1.863514 -1.8633595c0 -1.0291119 -0.834404 -1.863514 -1.863514 -1.863514c-1.02911 0 -1.8633575 0.8344021 -1.8633575 1.863514zm-5.4817486 0c0 1.0291119 0.8344021 1.8633595 1.863514 1.8633595c1.0289555 0 1.8633575 -0.8342476 1.8633575 -1.8633595c0 -1.0291119 -0.8344021 -1.863514 -1.8633575 -1.863514c-1.0291119 0 -1.863514 0.8344021 -1.863514 1.863514z" fill-rule="evenodd"/><path fill="#cfe2f3" d="m41.095272 21.755457c1.375576 0.0902729 2.6116905 0.6846733 3.52594 1.5990753c0.99424744 0.99424744 1.6113701 2.3696651 1.6113701 3.8887424c0 3.0381527 -2.4621162 5.5001144 -5.5001144 5.5001144l-13.437752 0c-1.6174431 0 -3.0831337 -0.65588 -4.1430626 -1.7158108c-1.0597725 -1.0597725 -1.7158089 -2.5256195 -1.7158089 -4.1430607c0 -2.839241 2.3000927 -5.1393337 5.1393337 -5.1393337l14.161337 0c0.11891174 -0.002023697 0.23984528 0.002023697 0.35875702 0.01027298zm-3.111927 5.5903854c0 1.0291119 0.834404 1.8633595 1.863514 1.8633595c1.0291138 0 1.8633614 -0.8342476 1.8633614 -1.8633595c0 -1.0291119 -0.8342476 -1.863514 -1.8633614 -1.863514c-1.02911 0 -1.863514 0.8344021 -1.863514 1.863514zm-5.4815903 0c0 1.0291119 0.8342476 1.8633595 1.8633575 1.8633595c1.02911 0 1.863514 -0.8342476 1.863514 -1.8633595c0 -1.0291119 -0.834404 -1.863514 -1.863514 -1.863514c-1.02911 0 -1.8633575 0.8344021 -1.8633575 1.863514zm-5.4817486 0c0 1.0291119 0.8344021 1.8633595 1.863514 1.8633595c1.0289555 0 1.8633575 -0.8342476 1.8633575 -1.8633595c0 -1.0291119 -0.8344021 -1.863514 -1.8633575 -1.863514c-1.0291119 0 -1.863514 0.8344021 -1.863514 1.863514zm11.549646 -12.133931l-4.3460197 0l-2.9170628 6.5332727l9.429945 0c0.12093735 0 0.24187088 0.004201889 0.3628044 0.012294769l0 -6.5455675l-2.529667 0zm-19.77009 11.377507l0.16809464 1.0228863c0 0 -0.06147957 -0.040935516 -0.16809464 -0.11066246l0 0.4550991c0.104436874 -0.069726944 0.16809464 -0.11066246 0.16809464 -0.11066246l-0.12716103 0.783041l1.9987679 0l0 -2.0376778l-2.0397015 0zm0 2.0376778l0 -0.67237663c-0.5596924 0.37712288 -2.3226604 1.6297379 -2.211998 2.34305c0.13120651 0.84669685 1.7609444 1.3120708 1.7609444 1.3120708l0.48794174 -2.9827442l-0.036888123 0zm-2.2099762 -3.470684c-0.11066055 0.71346855 1.6523075 1.9659271 2.212 2.3432064l0 -0.9102001l-0.44902992 -2.742897c-0.002023697 -0.0021800995 -1.6317616 0.4611702 -1.76297 1.3098907z" fill-rule="evenodd"/><path fill="#cfe2f3" d="m41.476597 9.484247c0 1.100708 -0.74832916 0.8814068 -0.74832916 0.8814068l-0.6579056 0l0 -1.762969l0.6579056 0c0 0 0.74832916 0 0.74832916 0.88156223zm-2.4456177 -0.88156223c-1.2280235 0 -2.222271 0.99424744 -2.222271 2.222272l0 4.3849306l1.7609444 0l0 -4.382908c0 -0.25432014 0.20716095 -0.46132565 0.4613266 -0.46132565l1.0414085 0l0 -1.762969l-1.0414085 0z" fill-rule="evenodd"/><path fill="#000000" fill-opacity="0.0" d="m18.350533 23.844341c0 0 -1.6297379 0.4633503 -1.7609463 1.3120708c-0.11066055 0.71346855 1.6523075 1.9659271 2.212 2.3432064c0.10459137 0.06957245 0.16809464 0.11066246 0.16809464 0.11066246l-0.16809464 -1.0230427l-0.45105362 -2.742897" fill-rule="evenodd"/><path fill="#000000" fill-opacity="0.0" d="m18.799562 27.95472c0.104436874 -0.06972885 0.16809464 -0.11081886 0.16809464 -0.11081886l-0.12716103 0.7831955l-0.48793983 2.9827442c0 0 -1.6297379 -0.4633503 -1.7609463 -1.3120708c-0.11470795 -0.71331215 1.6482601 -1.9659271 2.2079525 -2.34305z" fill-rule="evenodd"/><path fill="#000000" fill-opacity="0.0" d="m18.799562 26.589418l2.0376797 0l0 2.0376778l-2.0376797 0l0 -1.1274776z" fill-rule="evenodd"/><path fill="#000000" fill-opacity="0.0" d="m38.569653 15.211911l2.527645 0l0 6.531249" fill-rule="evenodd"/><path fill="#000000" fill-opacity="0.0" d="m31.304548 21.74316l2.9170628 -6.531249l2.5850754 0" fill-rule="evenodd"/><path fill="#000000" fill-opacity="0.0" d="m39.84686 29.209202c1.028492 0 1.8633614 -0.8348694 1.8633614 -1.8633595c0 -1.0284882 -0.8348694 -1.863514 -1.8633614 -1.863514c-1.0284882 0 -1.863514 0.8350258 -1.863514 1.863514c0 1.0284901 0.8350258 1.8633595 1.863514 1.8633595" fill-rule="evenodd"/><path fill="#000000" fill-opacity="0.0" d="m34.365112 29.209202c1.0284882 0 1.863514 -0.8348694 1.863514 -1.8633595c0 -1.0284882 -0.8350258 -1.863514 -1.863514 -1.863514c-1.0284882 0 -1.8633575 0.8350258 -1.8633575 1.863514c0 1.0284901 0.8348694 1.8633595 1.8633575 1.8633595" fill-rule="evenodd"/><path fill="#000000" fill-opacity="0.0" d="m28.88352 25.482328c-1.0291119 0 -1.863514 0.8344021 -1.863514 1.863514c0 1.0291119 0.8344021 1.8633595 1.863514 1.8633595c1.0289555 0 1.8633575 -0.8342476 1.8633575 -1.8633595c-0.0020217896 -1.0291119 -0.8344021 -1.863514 -1.8633575 -1.863514z" fill-rule="evenodd"/><path fill="#000000" fill-opacity="0.0" d="m41.095272 21.755457c-0.11891174 -0.008249283 -0.23984528 -0.012296677 -0.3628044 -0.012296677l-14.159313 0c-2.839241 0 -5.1393337 2.3000927 -5.1393337 5.1393337c0 1.6174431 0.65588 3.0832882 1.7158089 4.1430626c1.0597744 1.0597744 2.5256195 1.715807 4.1430626 1.715807l13.439775 0c3.0379982 0 5.5001144 -2.4619598 5.5001144 -5.5001125c0 -1.5190754 -0.61494446 -2.8946495 -1.6113701 -3.888897c-0.9142494 -0.9142475 -2.150364 -1.5066242 -3.52594 -1.5968971z" fill-rule="evenodd"/><path fill="#000000" fill-opacity="0.0" d="m38.569653 15.211911l-1.7609444 0l0 -4.3849316c0 -1.2280235 0.99424744 -2.222271 2.222271 -2.222271l1.6994667 0c0 0 0.7481766 0 0.7481766 0.88156223c0 1.1008625 -0.7481766 0.88140583 -0.7481766 0.88140583l-1.6994667 0c-0.25416565 0 -0.4613266 0.20716095 -0.4613266 0.4613266l0 4.382908z" fill-rule="evenodd"/><path fill="#000000" fill-opacity="0.0" d="m40.070362 8.602685l0 1.762969" fill-rule="evenodd"/><path stroke="#0b5394" stroke-width="1.0" stroke-linejoin="round" stroke-linecap="butt" d="m18.350533 23.844341c0 0 -1.6297379 0.4633503 -1.7609463 1.3120708c-0.11066055 0.71346855 1.6523075 1.9659271 2.212 2.3432064c0.10459137 0.06957245 0.16809464 0.11066246 0.16809464 0.11066246l-0.16809464 -1.0230427l-0.45105362 -2.742897" fill-rule="evenodd"/><path stroke="#0b5394" stroke-width="1.0" stroke-linejoin="round" stroke-linecap="butt" d="m18.799562 27.95472c0.104436874 -0.06972885 0.16809464 -0.11081886 0.16809464 -0.11081886l-0.12716103 0.7831955l-0.48793983 2.9827442c0 0 -1.6297379 -0.4633503 -1.7609463 -1.3120708c-0.11470795 -0.71331215 1.6482601 -1.9659271 2.2079525 -2.34305z" fill-rule="evenodd"/><path stroke="#0b5394" stroke-width="1.0" stroke-linejoin="round" stroke-linecap="butt" d="m18.799562 26.589418l2.0376797 0l0 2.0376778l-2.0376797 0l0 -1.1274776z" fill-rule="evenodd"/><path stroke="#0b5394" stroke-width="1.0" stroke-linejoin="round" stroke-linecap="butt" d="m38.569653 15.211911l2.527645 0l0 6.531249" fill-rule="evenodd"/><path stroke="#0b5394" stroke-width="1.0" stroke-linejoin="round" stroke-linecap="butt" d="m31.304548 21.74316l2.9170628 -6.531249l2.5850754 0" fill-rule="evenodd"/><path stroke="#0b5394" stroke-width="1.0" stroke-linejoin="round" stroke-linecap="butt" d="m39.84686 29.209202c1.028492 0 1.8633614 -0.8348694 1.8633614 -1.8633595c0 -1.0284882 -0.8348694 -1.863514 -1.8633614 -1.863514c-1.0284882 0 -1.863514 0.8350258 -1.863514 1.863514c0 1.0284901 0.8350258 1.8633595 1.863514 1.8633595" fill-rule="evenodd"/><path stroke="#0b5394" stroke-width="1.0" stroke-linejoin="round" stroke-linecap="butt" d="m34.365112 29.209202c1.0284882 0 1.863514 -0.8348694 1.863514 -1.8633595c0 -1.0284882 -0.8350258 -1.863514 -1.863514 -1.863514c-1.0284882 0 -1.8633575 0.8350258 -1.8633575 1.863514c0 1.0284901 0.8348694 1.8633595 1.8633575 1.8633595" fill-rule="evenodd"/><path stroke="#0b5394" stroke-width="1.0" stroke-linejoin="round" stroke-linecap="butt" d="m28.88352 25.482328c-1.0291119 0 -1.863514 0.8344021 -1.863514 1.863514c0 1.0291119 0.8344021 1.8633595 1.863514 1.8633595c1.0289555 0 1.8633575 -0.8342476 1.8633575 -1.8633595c-0.0020217896 -1.0291119 -0.8344021 -1.863514 -1.8633575 -1.863514z" fill-rule="evenodd"/><path stroke="#0b5394" stroke-width="1.0" stroke-linejoin="round" stroke-linecap="butt" d="m41.095272 21.755457c-0.11891174 -0.008249283 -0.23984528 -0.012296677 -0.3628044 -0.012296677l-14.159313 0c-2.839241 0 -5.1393337 2.3000927 -5.1393337 5.1393337c0 1.6174431 0.65588 3.0832882 1.7158089 4.1430626c1.0597744 1.0597744 2.5256195 1.715807 4.1430626 1.715807l13.439775 0c3.0379982 0 5.5001144 -2.4619598 5.5001144 -5.5001125c0 -1.5190754 -0.61494446 -2.8946495 -1.6113701 -3.888897c-0.9142494 -0.9142475 -2.150364 -1.5066242 -3.52594 -1.5968971z" fill-rule="evenodd"/><path stroke="#0b5394" stroke-width="1.0" stroke-linejoin="round" stroke-linecap="butt" d="m38.569653 15.211911l-1.7609444 0l0 -4.3849316c0 -1.2280235 0.99424744 -2.222271 2.222271 -2.222271l1.6994667 0c0 0 0.7481766 0 0.7481766 0.88156223c0 1.1008625 -0.7481766 0.88140583 -0.7481766 0.88140583l-1.6994667 0c-0.25416565 0 -0.4613266 0.20716095 -0.4613266 0.4613266l0 4.382908z" fill-rule="evenodd"/><path stroke="#0b5394" stroke-width="1.0" stroke-linejoin="round" stroke-linecap="butt" d="m40.070362 8.602685l0 1.762969" fill-rule="evenodd"/><path fill="#000000" fill-opacity="0.0" d="m-10.130349 4.73341l38.3937 0l0 38.771652l-38.3937 0z" fill-rule="evenodd"/><path fill="#0b5394" d="m5.2891574 26.06216l1.406249 -0.1875q0.25 1.203125 0.828125 1.734375q0.5781255 0.515625 1.4218755 0.515625q0.984375 0 1.671875 -0.6875q0.6875 -0.6875 0.6875 -1.703125q0 -0.96875 -0.640625 -1.59375q-0.625 -0.625 -1.609375 -0.625q-0.390625 0 -0.984375 0.15625l0.15625 -1.234375q0.140625 0.015625 0.21875 0.015625q0.90625 0 1.625 -0.46875q0.71875 -0.46875 0.71875 -1.453125q0 -0.765625 -0.53125 -1.265625q-0.515625 -0.515625 -1.34375 -0.515625q-0.828125 0 -1.3750005 0.515625q-0.546875 0.515625 -0.703125 1.546875l-1.406249 -0.25q0.265625 -1.421875 1.171874 -2.1875q0.921875 -0.78125 2.2812505 -0.78125q0.9375 0 1.71875 0.40625q0.796875 0.390625 1.203125 1.09375q0.421875 0.6875 0.421875 1.46875q0 0.75 -0.40625 1.359375q-0.390625 0.609375 -1.171875 0.96875q1.015625 0.234375 1.578125 0.96875q0.5625 0.734375 0.5625 1.84375q0 1.5 -1.09375 2.546875q-1.09375 1.046875 -2.765625 1.046875q-1.5000005 0 -2.5000005 -0.890625q-0.99999905 -0.90625 -1.140624 -2.34375z" fill-rule="nonzero"/></g></svg>