<svg version="1.1" viewBox="0.0 0.0 52.0 80.0" fill="none" stroke="none" stroke-linecap="square" stroke-miterlimit="10" xmlns:xlink="http://www.w3.org/1999/xlink" xmlns="http://www.w3.org/2000/svg"><clipPath id="p.0"><path d="m0 0l52.0 0l0 80.0l-52.0 0l0 -80.0z" clip-rule="nonzero"/></clipPath><g clip-path="url(#p.0)"><path fill="#c9daf8" d="m0 0l52.0 0l0 80.0l-52.0 0z" fill-rule="evenodd"/><path fill="#000000" fill-opacity="0.0" d="m-9.133859 17.279827l70.67717 0l0 53.322834l-70.67717 0z" fill-rule="evenodd"/><path fill="#0b5394" d="m6.328176 35.239826l-1.78125 -6.671875l0.90625 0l1.015625 4.375q0.171875 0.6875 0.28125 1.359375q0.265625 -1.0625 0.3125 -1.234375l1.2656245 -4.5l1.0625 0l0.953125 3.375q0.359375 1.25 0.53125 2.359375q0.125 -0.625 0.328125 -1.453125l1.046875 -4.28125l0.890625 0l-1.828125 6.671875l-0.859375 0l-1.40625 -5.09375q-0.171875 -0.625 -0.203125 -0.78125q-0.109375 0.46875 -0.203125 0.78125l-1.4218745 5.09375l-0.890625 0zm7.538711 -5.734375l0 -0.9375l0.8125 0l0 0.9375l-0.8125 0zm0 5.734375l0 -4.84375l0.8125 0l0 4.84375l-0.8125 0zm2.0567932 0l0 -4.84375l0.75000095 0l0 0.6875q0.53125 -0.796875 1.53125 -0.796875q0.4375 0 0.796875 0.171875q0.375 0.15625 0.546875 0.40625q0.1875 0.25 0.265625 0.609375q0.046875 0.21875 0.046875 0.796875l0 2.96875l-0.828125 0l0 -2.9375q0 -0.5 -0.09375 -0.75q-0.09375 -0.25 -0.34375 -0.390625q-0.234375 -0.15625 -0.5625 -0.15625q-0.515625 0 -0.90625 0.328125q-0.375 0.328125 -0.375 1.265625l0 2.640625l-0.82812595 0zm10.935779 -0.59375q-0.453125 0.390625 -0.875 0.546875q-0.421875 0.15625 -0.90625 0.15625q-0.796875 0 -1.21875 -0.390625q-0.421875 -0.390625 -0.421875 -1.0q0 -0.34375 0.15625 -0.640625q0.15625 -0.296875 0.421875 -0.46875q0.265625 -0.1875 0.59375 -0.28125q0.234375 -0.0625 0.71875 -0.109375q1.0 -0.125 1.46875 -0.28125q0 -0.171875 0 -0.21875q0 -0.5 -0.234375 -0.703125q-0.3125 -0.28125 -0.921875 -0.28125q-0.578125 0 -0.859375 0.203125q-0.28125 0.203125 -0.40625 0.71875l-0.796875 -0.109375q0.109375 -0.515625 0.359375 -0.828125q0.25 -0.328125 0.71875 -0.5q0.46875 -0.171875 1.09375 -0.171875q0.625 0 1.0 0.15625q0.390625 0.140625 0.578125 0.359375q0.1875 0.21875 0.25 0.5625q0.046875 0.203125 0.046875 0.75l0 1.09375q0 1.140625 0.046875 1.453125q0.0625 0.296875 0.21875 0.578125l-0.859375 0q-0.125 -0.25 -0.171875 -0.59375zm-0.0625 -1.828125q-0.453125 0.171875 -1.34375 0.296875q-0.5 0.078125 -0.71875 0.171875q-0.203125 0.09375 -0.3125 0.265625q-0.109375 0.171875 -0.109375 0.390625q0 0.328125 0.234375 0.546875q0.25 0.21875 0.734375 0.21875q0.46875 0 0.828125 -0.203125q0.375 -0.21875 0.5625 -0.578125q0.125 -0.265625 0.125 -0.8125l0 -0.296875zm6.4826508 1.6875l0.109375 0.71875q-0.34375 0.078125 -0.609375 0.078125q-0.453125 0 -0.703125 -0.140625q-0.234375 -0.140625 -0.34375 -0.359375q-0.09375 -0.234375 -0.09375 -0.984375l0 -2.78125l-0.609375 0l0 -0.640625l0.609375 0l0 -1.1875l0.8125 -0.5l0 1.6875l0.828125 0l0 0.640625l-0.828125 0l0 2.828125q0 0.359375 0.046875 0.46875q0.046875 0.09375 0.140625 0.15625q0.09375 0.046875 0.28125 0.046875q0.140625 0 0.359375 -0.03125zm0.79478455 0.734375l0 -4.84375l0.734375 0l0 0.734375q0.28125 -0.515625 0.515625 -0.671875q0.25 -0.171875 0.53125 -0.171875q0.421875 0 0.84375 0.265625l-0.28125 0.765625q-0.296875 -0.171875 -0.609375 -0.171875q-0.265625 0 -0.484375 0.15625q-0.203125 0.15625 -0.296875 0.453125q-0.140625 0.4375 -0.140625 0.953125l0 2.53125l-0.8125 0zm3.1219635 -5.734375l0 -0.9375l0.8125 0l0 0.9375l-0.8125 0zm0 5.734375l0 -4.84375l0.8125 0l0 4.84375l-0.8125 0zm5.213043 -1.765625l0.8125 0.09375q-0.125 0.84375 -0.671875 1.3125q-0.546875 0.46875 -1.34375 0.46875q-0.984375 0 -1.59375 -0.640625q-0.609375 -0.65625 -0.609375 -1.875q0 -0.78125 0.265625 -1.359375q0.265625 -0.59375 0.78125 -0.890625q0.53125 -0.296875 1.15625 -0.296875q0.796875 0 1.296875 0.40625q0.5 0.390625 0.640625 1.125l-0.796875 0.125q-0.109375 -0.484375 -0.40625 -0.71875q-0.28125 -0.25 -0.703125 -0.25q-0.609375 0 -1.0 0.4375q-0.390625 0.4375 -0.390625 1.40625q0 0.96875 0.375 1.421875q0.375 0.4375 0.984375 0.4375q0.46875 0 0.796875 -0.296875q0.328125 -0.296875 0.40625 -0.90625zm1.5234375 1.765625l0 -6.671875l0.8125 0l0 3.796875l1.9375 -1.96875l1.0625 0l-1.84375 1.796875l2.03125 3.046875l-1.015625 0l-1.59375 -2.46875l-0.578125 0.546875l0 1.921875l-0.8125 0z" fill-rule="nonzero"/><path fill="#0b5394" d="m9.558576 46.439823l-1.46875 -4.84375l0.84375 0l0.765625 2.796875l0.296875 1.046875q0.015625 -0.078125 0.25 -1.0l0.765625 -2.84375l0.84375 0l0.71875 2.8125l0.25 0.921875l0.265625 -0.9375l0.828125 -2.796875l0.796875 0l-1.5 4.84375l-0.859375 0l-0.765625 -2.890625l-0.1875 -0.828125l-0.984375 3.71875l-0.859375 0zm5.8614807 -5.734375l0 -0.9375l0.81250095 0l0 0.9375l-0.81250095 0zm0 5.734375l0 -4.84375l0.81250095 0l0 4.84375l-0.81250095 0zm3.8536692 -0.734375l0.109375 0.71875q-0.34375 0.078125 -0.609375 0.078125q-0.453125 0 -0.703125 -0.140625q-0.234375 -0.140625 -0.34375 -0.359375q-0.09375 -0.234375 -0.09375 -0.984375l0 -2.78125l-0.609375 0l0 -0.640625l0.609375 0l0 -1.1875l0.8125 -0.5l0 1.6875l0.828125 0l0 0.640625l-0.828125 0l0 2.828125q0 0.359375 0.046875 0.46875q0.046875 0.09375 0.140625 0.15625q0.09375 0.046875 0.28125 0.046875q0.140625 0 0.359375 -0.03125zm0.79478455 0.734375l0 -6.671875l0.828125 0l0 2.390625q0.578125 -0.671875 1.453125 -0.671875q0.5312519 0 0.9218769 0.21875q0.40625 0.21875 0.578125 0.59375q0.171875 0.359375 0.171875 1.078125l0 3.0625l-0.828125 0l0 -3.0625q0 -0.625 -0.265625 -0.890625q-0.2656269 -0.28125 -0.7500019 -0.28125q-0.375 0 -0.703125 0.1875q-0.3125 0.1875 -0.453125 0.515625q-0.125 0.3125 -0.125 0.890625l0 2.640625l-0.828125 0zm7.4826527 -2.421875q0 -1.34375 0.75 -1.984375q0.625 -0.546875 1.515625 -0.546875q1.0 0 1.625 0.65625q0.640625 0.65625 0.640625 1.8125q0 0.9375 -0.28125 1.46875q-0.28125 0.53125 -0.8125 0.828125q-0.53125 0.296875 -1.171875 0.296875q-1.015625 0 -1.640625 -0.640625q-0.625 -0.65625 -0.625 -1.890625zm0.84375 0q0 0.9375 0.40625 1.40625q0.40625 0.453125 1.015625 0.453125q0.609375 0 1.015625 -0.46875q0.40625 -0.46875 0.40625 -1.421875q0 -0.890625 -0.40625 -1.34375q-0.40625 -0.46875 -1.015625 -0.46875q-0.609375 0 -1.015625 0.46875q-0.40625 0.453125 -0.40625 1.375zm4.640991 2.421875l0 -4.84375l0.75 0l0 0.6875q0.53125 -0.796875 1.53125 -0.796875q0.4375 0 0.796875 0.171875q0.375 0.15625 0.546875 0.40625q0.1875 0.25 0.265625 0.609375q0.046875 0.21875 0.046875 0.796875l0 2.96875l-0.828125 0l0 -2.9375q0 -0.5 -0.09375 -0.75q-0.09375 -0.25 -0.34375 -0.390625q-0.234375 -0.15625 -0.5625 -0.15625q-0.515625 0 -0.90625 0.328125q-0.375 0.328125 -0.375 1.265625l0 2.640625l-0.828125 0zm5.172241 0l0 -6.671875l0.828125 0l0 6.671875l-0.828125 0zm2.0567932 1.859375l-0.09375 -0.765625q0.265625 0.078125 0.46875 0.078125q0.28125 0 0.4375 -0.09375q0.171875 -0.09375 0.265625 -0.265625q0.078125 -0.109375 0.25 -0.609375q0.03125 -0.0625 0.078125 -0.1875l-1.828125 -4.859375l0.875 0l1.015625 2.8125q0.1875 0.53125 0.34375 1.109375q0.140625 -0.5625 0.34375 -1.09375l1.03125 -2.828125l0.8125 0l-1.84375 4.921875q-0.28125 0.796875 -0.453125 1.09375q-0.21875 0.40625 -0.5 0.59375q-0.28125 0.203125 -0.671875 0.203125q-0.234375 0 -0.53125 -0.109375z" fill-rule="nonzero"/><path fill="#0b5394" d="m13.790975 56.077324l0.84375 0.109375q-0.1875 0.75 -0.734375 1.15625q-0.546875 0.40625 -1.390625 0.40625q-1.0625 0 -1.6875 -0.65625q-0.609375 -0.65625 -0.609375 -1.828125q0 -1.21875 0.625 -1.890625q0.625 -0.6875 1.625 -0.6875q0.984375 0 1.59375 0.671875q0.609375 0.65625 0.609375 1.859375q0 0.0625 0 0.21875l-3.609375 0q0.046875 0.796875 0.453125 1.21875q0.40625 0.421875 1.015625 0.421875q0.453125 0 0.765625 -0.234375q0.3125 -0.234375 0.5 -0.765625zm-2.6875 -1.328125l2.703125 0q-0.0625 -0.609375 -0.3125 -0.90625q-0.390625 -0.46875 -1.015625 -0.46875q-0.5625 0 -0.953125 0.375q-0.375 0.375 -0.421875 1.0zm5.906617 2.890625l-1.828126 -4.84375l0.85937595 0l1.03125 2.90625q0.171875 0.46875 0.3125 0.96875q0.109375 -0.375 0.3125 -0.921875l1.078125 -2.953125l0.84375 0l-1.84375 4.84375l-0.765625 0zm6.6328144 -1.5625l0.84375 0.109375q-0.1875 0.75 -0.734375 1.15625q-0.546875 0.40625 -1.3906269 0.40625q-1.0625 0 -1.6875 -0.65625q-0.609375 -0.65625 -0.609375 -1.828125q0 -1.21875 0.625 -1.890625q0.625 -0.6875 1.625 -0.6875q0.9843769 0 1.5937519 0.671875q0.609375 0.65625 0.609375 1.859375q0 0.0625 0 0.21875l-3.609377 0q0.046875 0.796875 0.453125 1.21875q0.40625 0.421875 1.015625 0.421875q0.453125 0 0.7656269 -0.234375q0.3125 -0.234375 0.5 -0.765625zm-2.687502 -1.328125l2.703127 0q-0.0625 -0.609375 -0.3125 -0.90625q-0.390625 -0.46875 -1.0156269 -0.46875q-0.5625 0 -0.953125 0.375q-0.375 0.375 -0.421875 1.0zm4.562868 2.890625l0 -4.84375l0.75 0l0 0.6875q0.53125 -0.796875 1.53125 -0.796875q0.4375 0 0.796875 0.171875q0.375 0.15625 0.546875 0.40625q0.1875 0.25 0.265625 0.609375q0.046875 0.21875 0.046875 0.796875l0 2.96875l-0.828125 0l0 -2.9375q0 -0.5 -0.09375 -0.75q-0.09375 -0.25 -0.34375 -0.390625q-0.234375 -0.15625 -0.5625 -0.15625q-0.515625 0 -0.90625 0.328125q-0.375 0.328125 -0.375 1.265625l0 2.640625l-0.828125 0zm7.6389008 0.109375l0.390625 -1.9375l-0.765625 0l0 -0.671875l0.90625 0l0.34375 -1.65625l-1.25 0l0 -0.6875l1.375 0l0.40625 -1.953125l0.6875 0l-0.40625 1.953125l1.4375 0l0.390625 -1.953125l0.6875 0l-0.390625 1.953125l0.78125 0l0 0.6875l-0.921875 0l-0.34375 1.65625l1.265625 0l0 0.671875l-1.390625 0l-0.40625 1.9375l-0.671875 0l0.390625 -1.9375l-1.4375 0l-0.390625 1.9375l-0.6875 0zm1.21875 -2.609375l1.421875 0l0.34375 -1.65625l-1.4375 0l-0.328125 1.65625zm3.7816162 1.0625l0.8125 -0.140625q0.078125 0.5 0.390625 0.765625q0.3125 0.25 0.859375 0.25q0.578125 0 0.84375 -0.234375q0.28125 -0.234375 0.28125 -0.53125q0 -0.28125 -0.25 -0.4375q-0.171875 -0.109375 -0.84375 -0.28125q-0.890625 -0.234375 -1.25 -0.390625q-0.34375 -0.171875 -0.53125 -0.46875q-0.171875 -0.296875 -0.171875 -0.640625q0 -0.328125 0.140625 -0.59375q0.15625 -0.28125 0.40625 -0.46875q0.203125 -0.140625 0.53125 -0.234375q0.328125 -0.109375 0.703125 -0.109375q0.578125 0 1.0 0.171875q0.4375 0.15625 0.640625 0.4375q0.203125 0.28125 0.28125 0.75l-0.796875 0.109375q-0.0625 -0.375 -0.328125 -0.578125q-0.265625 -0.203125 -0.734375 -0.203125q-0.5625 0 -0.8125 0.1875q-0.234375 0.171875 -0.234375 0.4375q0 0.15625 0.09375 0.28125q0.109375 0.125 0.3125 0.21875q0.125 0.046875 0.734375 0.203125q0.859375 0.234375 1.203125 0.390625q0.34375 0.140625 0.53125 0.421875q0.203125 0.28125 0.203125 0.703125q0 0.40625 -0.234375 0.78125q-0.234375 0.359375 -0.6875 0.5625q-0.453125 0.1875 -1.015625 0.1875q-0.953125 0 -1.453125 -0.390625q-0.484375 -0.390625 -0.625 -1.15625z" fill-rule="nonzero"/></g></svg>