<svg version="1.1" viewBox="0.0 0.0 52.0 80.0" fill="none" stroke="none" stroke-linecap="square" stroke-miterlimit="10" xmlns:xlink="http://www.w3.org/1999/xlink" xmlns="http://www.w3.org/2000/svg"><clipPath id="p.0"><path d="m0 0l52.0 0l0 80.0l-52.0 0l0 -80.0z" clip-rule="nonzero"/></clipPath><g clip-path="url(#p.0)"><path fill="#c9daf8" d="m0 0l52.0 0l0 80.0l-52.0 0z" fill-rule="evenodd"/><path fill="#000000" fill-opacity="0.0" d="m-9.133859 42.700787l70.67717 0l0 42.01575l-70.67717 0z" fill-rule="evenodd"/><path fill="#0b5394" d="m9.68958 60.660786l-1.7812495 -6.671875l0.9062495 0l1.015625 4.375q0.171875 0.6875 0.28125 1.359375q0.265625 -1.0625 0.3125 -1.234375l1.265625 -4.5l1.0625 0l0.953125 3.375q0.359375 1.25 0.53125 2.359375q0.125 -0.625 0.328125 -1.453125l1.046875 -4.28125l0.89062595 0l-1.828126 6.671875l-0.859375 0l-1.40625 -5.09375q-0.171875 -0.625 -0.203125 -0.78125q-0.109375 0.46875 -0.203125 0.78125l-1.421875 5.09375l-0.890625 0zm7.5387125 -5.734375l0 -0.9375l0.8125 0l0 0.9375l-0.8125 0zm0 5.734375l0 -4.84375l0.8125 0l0 4.84375l-0.8125 0zm2.0567932 0l0 -4.84375l0.75 0l0 0.6875q0.53125 -0.796875 1.53125 -0.796875q0.4375 0 0.796875 0.171875q0.375 0.15625 0.5468769 0.40625q0.1875 0.25 0.265625 0.609375q0.046875 0.21875 0.046875 0.796875l0 2.96875l-0.8281269 0l0 -2.9375q0 -0.5 -0.09375 -0.75q-0.09375 -0.25 -0.34375 -0.390625q-0.234375 -0.15625 -0.5625 -0.15625q-0.515625 0 -0.90625 0.328125q-0.375 0.328125 -0.375 1.265625l0 2.640625l-0.828125 0zm10.935778 -0.59375q-0.453125 0.390625 -0.875 0.546875q-0.421875 0.15625 -0.90625 0.15625q-0.796875 0 -1.21875 -0.390625q-0.421875 -0.390625 -0.421875 -1.0q0 -0.34375 0.15625 -0.640625q0.15625 -0.296875 0.421875 -0.46875q0.265625 -0.1875 0.59375 -0.28125q0.234375 -0.0625 0.71875 -0.109375q1.0 -0.125 1.46875 -0.28125q0 -0.171875 0 -0.21875q0 -0.5 -0.234375 -0.703125q-0.3125 -0.28125 -0.921875 -0.28125q-0.578125 0 -0.859375 0.203125q-0.28125 0.203125 -0.40625 0.71875l-0.796875 -0.109375q0.109375 -0.515625 0.359375 -0.828125q0.25 -0.328125 0.71875 -0.5q0.46875 -0.171875 1.09375 -0.171875q0.625 0 1.0 0.15625q0.390625 0.140625 0.578125 0.359375q0.1875 0.21875 0.25 0.5625q0.046875 0.203125 0.046875 0.75l0 1.09375q0 1.140625 0.046875 1.453125q0.0625 0.296875 0.21875 0.578125l-0.859375 0q-0.125 -0.25 -0.171875 -0.59375zm-0.0625 -1.828125q-0.453125 0.171875 -1.34375 0.296875q-0.5 0.078125 -0.71875 0.171875q-0.203125 0.09375 -0.3125 0.265625q-0.109375 0.171875 -0.109375 0.390625q0 0.328125 0.234375 0.546875q0.25 0.21875 0.734375 0.21875q0.46875 0 0.828125 -0.203125q0.375 -0.21875 0.5625 -0.578125q0.125 -0.265625 0.125 -0.8125l0 -0.296875zm2.0941162 2.421875l0 -4.84375l0.75 0l0 0.6875q0.53125 -0.796875 1.53125 -0.796875q0.4375 0 0.796875 0.171875q0.375 0.15625 0.546875 0.40625q0.1875 0.25 0.265625 0.609375q0.046875 0.21875 0.046875 0.796875l0 2.96875l-0.828125 0l0 -2.9375q0 -0.5 -0.09375 -0.75q-0.09375 -0.25 -0.34375 -0.390625q-0.234375 -0.15625 -0.5625 -0.15625q-0.515625 0 -0.90625 0.328125q-0.375 0.328125 -0.375 1.265625l0 2.640625l-0.828125 0zm8.826401 -3.625q-0.515625 -0.1875 -0.765625 -0.53125q-0.25 -0.34375 -0.25 -0.828125q0 -0.734375 0.515625 -1.21875q0.53125 -0.5 1.40625 -0.5q0.875 0 1.40625 0.515625q0.53125 0.5 0.53125 1.234375q0 0.453125 -0.25 0.796875q-0.234375 0.34375 -0.734375 0.53125q0.625 0.203125 0.9375 0.65625q0.328125 0.4375 0.328125 1.0625q0 0.859375 -0.609375 1.4375q-0.609375 0.578125 -1.59375 0.578125q-0.984375 0 -1.59375 -0.578125q-0.609375 -0.59375 -0.609375 -1.46875q0 -0.640625 0.328125 -1.078125q0.328125 -0.453125 0.953125 -0.609375zm-0.171875 -1.390625q0 0.484375 0.296875 0.78125q0.3125 0.296875 0.796875 0.296875q0.484375 0 0.78125 -0.296875q0.296875 -0.296875 0.296875 -0.734375q0 -0.453125 -0.3125 -0.75q-0.3125 -0.3125 -0.765625 -0.3125q-0.46875 0 -0.78125 0.3125q-0.3125 0.296875 -0.3125 0.703125zm-0.265625 3.09375q0 0.34375 0.15625 0.671875q0.171875 0.328125 0.5 0.515625q0.328125 0.171875 0.71875 0.171875q0.578125 0 0.953125 -0.375q0.390625 -0.375 0.390625 -0.96875q0 -0.578125 -0.390625 -0.96875q-0.390625 -0.390625 -0.984375 -0.390625q-0.578125 0 -0.96875 0.390625q-0.375 0.375 -0.375 0.953125z" fill-rule="nonzero"/><path fill="#0b5394" d="m11.630986 71.86079l-1.46875 -4.84375l0.84375 0l0.765625 2.796875l0.296875 1.046875q0.015625 -0.078125 0.25 -1.0l0.765625 -2.84375l0.84375 0l0.71875 2.8125l0.25 0.921875l0.265625 -0.9375l0.828125 -2.796875l0.79687595 0l-1.500001 4.84375l-0.859375 0l-0.765625 -2.890625l-0.1875 -0.828125l-0.984375 3.71875l-0.859375 0zm5.8614817 -5.734375l0 -0.9375l0.8125 0l0 0.9375l-0.8125 0zm0 5.734375l0 -4.84375l0.8125 0l0 4.84375l-0.8125 0zm3.8536682 -0.734375l0.109375 0.71875q-0.34375 0.078125 -0.609375 0.078125q-0.453125 0 -0.703125 -0.140625q-0.234375 -0.140625 -0.34375 -0.359375q-0.09375 -0.234375 -0.09375 -0.984375l0 -2.78125l-0.609375 0l0 -0.640625l0.609375 0l0 -1.1875l0.8125 -0.5l0 1.6875l0.828125 0l0 0.640625l-0.828125 0l0 2.828125q0 0.359375 0.046875 0.46875q0.046875 0.09375 0.140625 0.15625q0.09375 0.046875 0.28125 0.046875q0.140625 0 0.359375 -0.03125zm0.79478455 0.734375l0 -6.671875l0.8281269 0l0 2.390625q0.578125 -0.671875 1.453125 -0.671875q0.53125 0 0.921875 0.21875q0.40625 0.21875 0.578125 0.59375q0.171875 0.359375 0.171875 1.078125l0 3.0625l-0.828125 0l0 -3.0625q0 -0.625 -0.265625 -0.890625q-0.265625 -0.28125 -0.75 -0.28125q-0.375 0 -0.703125 0.1875q-0.3125 0.1875 -0.453125 0.515625q-0.125 0.3125 -0.125 0.890625l0 2.640625l-0.8281269 0zm10.935778 -0.59375q-0.453125 0.390625 -0.875 0.546875q-0.421875 0.15625 -0.90625 0.15625q-0.796875 0 -1.21875 -0.390625q-0.421875 -0.390625 -0.421875 -1.0q0 -0.34375 0.15625 -0.640625q0.15625 -0.296875 0.421875 -0.46875q0.265625 -0.1875 0.59375 -0.28125q0.234375 -0.0625 0.71875 -0.109375q1.0 -0.125 1.46875 -0.28125q0 -0.171875 0 -0.21875q0 -0.5 -0.234375 -0.703125q-0.3125 -0.28125 -0.921875 -0.28125q-0.578125 0 -0.859375 0.203125q-0.28125 0.203125 -0.40625 0.71875l-0.796875 -0.109375q0.109375 -0.515625 0.359375 -0.828125q0.25 -0.328125 0.71875 -0.5q0.46875 -0.171875 1.09375 -0.171875q0.625 0 1.0 0.15625q0.390625 0.140625 0.578125 0.359375q0.1875 0.21875 0.25 0.5625q0.046875 0.203125 0.046875 0.75l0 1.09375q0 1.140625 0.046875 1.453125q0.0625 0.296875 0.21875 0.578125l-0.859375 0q-0.125 -0.25 -0.171875 -0.59375zm-0.0625 -1.828125q-0.453125 0.171875 -1.34375 0.296875q-0.5 0.078125 -0.71875 0.171875q-0.203125 0.09375 -0.3125 0.265625q-0.109375 0.171875 -0.109375 0.390625q0 0.328125 0.234375 0.546875q0.25 0.21875 0.734375 0.21875q0.46875 0 0.828125 -0.203125q0.375 -0.21875 0.5625 -0.578125q0.125 -0.265625 0.125 -0.8125l0 -0.296875zm7.0920258 2.421875l0 -1.59375l-2.890625 0l0 -0.75l3.046875 -4.328125l0.65625 0l0 4.328125l0.90625 0l0 0.75l-0.90625 0l0 1.59375l-0.8125 0zm0 -2.34375l0 -3.015625l-2.09375 3.015625l2.09375 0z" fill-rule="nonzero"/><path fill="#0000ff" d="m4.3011427 17.910225l6.9135437 0l0 10.359055l-6.9135437 0z" fill-rule="evenodd"/><path fill="#93c47d" d="m11.240327 17.910225l6.9135427 0l0 10.359055l-6.9135427 0z" fill-rule="evenodd"/><path fill="#ffd966" d="m4.3011427 28.23264l6.9135437 0l0 10.359055l-6.9135437 0z" fill-rule="evenodd"/><path fill="#ff00ff" d="m11.240327 28.23264l6.9135427 0l0 10.359055l-6.9135427 0z" fill-rule="evenodd"/><path fill="#000000" fill-opacity="0.0" d="m-6.2963023 17.914515l35.05512 0l0 20.661417l-35.05512 0z" fill-rule="evenodd"/><path fill="#ffffff" d="m9.066034 27.643974q-1.1562495 -0.421875 -1.7187495 -1.21875q-0.5625 -0.796875 -0.5625 -1.890625q0 -1.671875 1.1875 -2.796875q1.2031245 -1.140625 3.1874995 -1.140625q2.0 0 3.21875 1.171875q1.21875 1.15625 1.21875 2.8125q0 1.0625 -0.5625 1.859375q-0.546875 0.78125 -1.6875 1.203125q1.40625 0.453125 2.140625 1.484375q0.734375 1.015625 0.734375 2.4375q0 1.953125 -1.390625 3.296875q-1.375 1.328125 -3.640625 1.328125q-2.25 0 -3.6406245 -1.34375q-1.390625 -1.34375 -1.390625 -3.34375q0 -1.484375 0.75 -2.484375q0.765625 -1.015625 2.1562495 -1.375zm-0.375 -3.171875q0 1.078125 0.703125 1.765625q0.703125 0.6875 1.8125 0.6875q1.078125 0 1.765625 -0.671875q0.703125 -0.6875 0.703125 -1.671875q0 -1.03125 -0.71875 -1.734375q-0.703125 -0.703125 -1.765625 -0.703125q-1.078125 0 -1.796875 0.6875q-0.703125 0.6875 -0.703125 1.640625zm-0.59375 7.046875q0 0.796875 0.375 1.546875q0.375 0.75 1.125 1.171875q0.75 0.40625 1.625 0.40625q1.34375 0 2.21875 -0.859375q0.875 -0.875 0.875 -2.203125q0 -1.359375 -0.90625 -2.234375q-0.90625 -0.890625 -2.25 -0.890625q-1.328125 0 -2.203125 0.875q-0.859375 0.875 -0.859375 2.1875z" fill-rule="nonzero"/><path fill="#0000ff" d="m33.558075 17.910225l6.9135437 0l0 10.359055l-6.9135437 0z" fill-rule="evenodd"/><path fill="#93c47d" d="m40.49726 17.910225l6.91354 0l0 10.359055l-6.91354 0z" fill-rule="evenodd"/><path fill="#ffd966" d="m33.558075 28.23264l6.9135437 0l0 10.359055l-6.9135437 0z" fill-rule="evenodd"/><path fill="#ff00ff" d="m40.49726 28.23264l6.91354 0l0 10.359055l-6.91354 0z" fill-rule="evenodd"/><path fill="#000000" fill-opacity="0.0" d="m22.96063 17.914515l35.055115 0l0 20.661417l-35.055115 0z" fill-rule="evenodd"/><path fill="#ffffff" d="m41.447968 35.925224l0 -3.65625l-6.625 0l0 -1.71875l6.96875 -9.890625l1.53125 0l0 9.890625l2.0625 0l0 1.71875l-2.0625 0l0 3.65625l-1.875 0zm0 -5.375l0 -6.875l-4.78125 6.875l4.78125 0z" fill-rule="nonzero"/><path fill="#0b5394" d="m21.447506 26.030184l4.4094486 0l0 -2.2204723l4.4094505 4.4409447l-4.4094505 4.4409447l0 -2.2204723l-4.4094486 0z" fill-rule="evenodd"/></g></svg>