<svg version="1.1" viewBox="0.0 0.0 52.0 80.0" fill="none" stroke="none" stroke-linecap="square" stroke-miterlimit="10" xmlns:xlink="http://www.w3.org/1999/xlink" xmlns="http://www.w3.org/2000/svg"><clipPath id="p.0"><path d="m0 0l52.0 0l0 80.0l-52.0 0l0 -80.0z" clip-rule="nonzero"/></clipPath><g clip-path="url(#p.0)"><path fill="#c9daf8" d="m0 0l52.0 0l0 80.0l-52.0 0z" fill-rule="evenodd"/><path fill="#000000" fill-opacity="0.0" d="m-9.133859 42.700787l70.67717 0l0 42.01575l-70.67717 0z" fill-rule="evenodd"/><path fill="#0b5394" d="m4.2512107 60.660786l-1.78125 -6.671875l0.90625 0l1.015625 4.375q0.171875 0.6875 0.28125 1.359375q0.265625 -1.0625 0.3125 -1.234375l1.265625 -4.5l1.0625 0l0.9531245 3.375q0.359375 1.25 0.53125 2.359375q0.125 -0.625 0.328125 -1.453125l1.046875 -4.28125l0.890625 0l-1.828125 6.671875l-0.859375 0l-1.4062495 -5.09375q-0.171875 -0.625 -0.203125 -0.78125q-0.109375 0.46875 -0.203125 0.78125l-1.421875 5.09375l-0.890625 0zm7.538711 -5.734375l0 -0.9375l0.8125 0l0 0.9375l-0.8125 0zm0 5.734375l0 -4.84375l0.8125 0l0 4.84375l-0.8125 0zm2.0567932 0l0 -4.84375l0.75 0l0 0.6875q0.53125 -0.796875 1.531251 -0.796875q0.4375 0 0.796875 0.171875q0.375 0.15625 0.546875 0.40625q0.1875 0.25 0.265625 0.609375q0.046875 0.21875 0.046875 0.796875l0 2.96875l-0.828125 0l0 -2.9375q0 -0.5 -0.09375 -0.75q-0.09375 -0.25 -0.34375 -0.390625q-0.234375 -0.15625 -0.56250095 -0.15625q-0.515625 0 -0.90625 0.328125q-0.375 0.328125 -0.375 1.265625l0 2.640625l-0.828125 0zm11.092029 -1.5625l0.84375 0.109375q-0.1875 0.75 -0.734375 1.15625q-0.546875 0.40625 -1.390625 0.40625q-1.0625019 0 -1.6875019 -0.65625q-0.609375 -0.65625 -0.609375 -1.828125q0 -1.21875 0.625 -1.890625q0.625 -0.6875 1.6250019 -0.6875q0.984375 0 1.59375 0.671875q0.609375 0.65625 0.609375 1.859375q0 0.0625 0 0.21875l-3.609377 0q0.046875 0.796875 0.453125 1.21875q0.4062519 0.421875 1.0156269 0.421875q0.453125 0 0.765625 -0.234375q0.3125 -0.234375 0.5 -0.765625zm-2.687502 -1.328125l2.703127 0q-0.0625 -0.609375 -0.3125 -0.90625q-0.390625 -0.46875 -1.015625 -0.46875q-0.5625 0 -0.9531269 0.375q-0.375 0.375 -0.421875 1.0zm4.015993 2.890625l1.765625 -2.515625l-1.625 -2.328125l1.015625 0l0.75 1.140625q0.203125 0.328125 0.34375 0.546875q0.1875 -0.3125 0.359375 -0.53125l0.8125 -1.15625l0.984375 0l-1.671875 2.28125l1.796875 2.5625l-1.0 0l-1.0 -1.5l-0.265625 -0.40625l-1.265625 1.90625l-1.0 0zm8.3671875 -0.59375q-0.453125 0.390625 -0.875 0.546875q-0.421875 0.15625 -0.90625 0.15625q-0.796875 0 -1.21875 -0.390625q-0.421875 -0.390625 -0.421875 -1.0q0 -0.34375 0.15625 -0.640625q0.15625 -0.296875 0.421875 -0.46875q0.265625 -0.1875 0.59375 -0.28125q0.234375 -0.0625 0.71875 -0.109375q1.0 -0.125 1.46875 -0.28125q0 -0.171875 0 -0.21875q0 -0.5 -0.234375 -0.703125q-0.3125 -0.28125 -0.921875 -0.28125q-0.578125 0 -0.859375 0.203125q-0.28125 0.203125 -0.40625 0.71875l-0.796875 -0.109375q0.109375 -0.515625 0.359375 -0.828125q0.25 -0.328125 0.71875 -0.5q0.46875 -0.171875 1.09375 -0.171875q0.625 0 1.0 0.15625q0.390625 0.140625 0.578125 0.359375q0.1875 0.21875 0.25 0.5625q0.046875 0.203125 0.046875 0.75l0 1.09375q0 1.140625 0.046875 1.453125q0.0625 0.296875 0.21875 0.578125l-0.859375 0q-0.125 -0.25 -0.171875 -0.59375zm-0.0625 -1.828125q-0.453125 0.171875 -1.34375 0.296875q-0.5 0.078125 -0.71875 0.171875q-0.203125 0.09375 -0.3125 0.265625q-0.109375 0.171875 -0.109375 0.390625q0 0.328125 0.234375 0.546875q0.25 0.21875 0.734375 0.21875q0.46875 0 0.828125 -0.203125q0.375 -0.21875 0.5625 -0.578125q0.125 -0.265625 0.125 -0.8125l0 -0.296875zm5.250366 0.65625l0.8125 0.09375q-0.125 0.84375 -0.671875 1.3125q-0.546875 0.46875 -1.34375 0.46875q-0.984375 0 -1.59375 -0.640625q-0.609375 -0.65625 -0.609375 -1.875q0 -0.78125 0.265625 -1.359375q0.265625 -0.59375 0.78125 -0.890625q0.53125 -0.296875 1.15625 -0.296875q0.796875 0 1.296875 0.40625q0.5 0.390625 0.640625 1.125l-0.796875 0.125q-0.109375 -0.484375 -0.40625 -0.71875q-0.28125 -0.25 -0.703125 -0.25q-0.609375 0 -1.0 0.4375q-0.390625 0.4375 -0.390625 1.40625q0 0.96875 0.375 1.421875q0.375 0.4375 0.984375 0.4375q0.46875 0 0.796875 -0.296875q0.328125 -0.296875 0.40625 -0.90625zm3.3046875 1.03125l0.109375 0.71875q-0.34375 0.078125 -0.609375 0.078125q-0.453125 0 -0.703125 -0.140625q-0.234375 -0.140625 -0.34375 -0.359375q-0.09375 -0.234375 -0.09375 -0.984375l0 -2.78125l-0.609375 0l0 -0.640625l0.609375 0l0 -1.1875l0.8125 -0.5l0 1.6875l0.828125 0l0 0.640625l-0.828125 0l0 2.828125q0 0.359375 0.046875 0.46875q0.046875 0.09375 0.140625 0.15625q0.09375 0.046875 0.28125 0.046875q0.140625 0 0.359375 -0.03125zm0.77915955 0.734375l0 -6.671875l0.828125 0l0 6.671875l-0.828125 0zm2.0567932 1.859375l-0.09375 -0.765625q0.265625 0.078125 0.46875 0.078125q0.28125 0 0.4375 -0.09375q0.171875 -0.09375 0.265625 -0.265625q0.078125 -0.109375 0.25 -0.609375q0.03125 -0.0625 0.078125 -0.1875l-1.828125 -4.859375l0.875 0l1.015625 2.8125q0.1875 0.53125 0.34375 1.109375q0.140625 -0.5625 0.34375 -1.09375l1.03125 -2.828125l0.8125 0l-1.84375 4.921875q-0.28125 0.796875 -0.453125 1.09375q-0.21875 0.40625 -0.5 0.59375q-0.28125 0.203125 -0.671875 0.203125q-0.234375 0 -0.53125 -0.109375z" fill-rule="nonzero"/><path fill="#0b5394" d="m15.131177 71.12641l0.109375 0.71875q-0.34375 0.078125 -0.609375 0.078125q-0.453125 0 -0.703125 -0.140625q-0.234375 -0.140625 -0.34375 -0.359375q-0.09375 -0.234375 -0.09375 -0.984375l0 -2.78125l-0.609375 0l0 -0.640625l0.609375 0l0 -1.1875l0.8125 -0.5l0 1.6875l0.828125 0l0 0.640625l-0.828125 0l0 2.828125q0 0.359375 0.046875 0.46875q0.046875 0.09375 0.140625 0.15625q0.09375 0.046875 0.28125 0.046875q0.140625 0 0.359375 -0.03125zm1.6854105 0.734375l-1.468751 -4.84375l0.84375095 0l0.765625 2.796875l0.296875 1.046875q0.015625 -0.078125 0.25 -1.0l0.765625 -2.84375l0.84375 0l0.71875 2.8125l0.25 0.921875l0.265625 -0.9375l0.828125 -2.796875l0.796875 0l-1.5 4.84375l-0.859375 0l-0.765625 -2.890625l-0.1875 -0.828125l-0.984375 3.71875l-0.859375 0zm5.5489807 -2.421875q0 -1.34375 0.7500019 -1.984375q0.625 -0.546875 1.515625 -0.546875q1.0 0 1.625 0.65625q0.640625 0.65625 0.640625 1.8125q0 0.9375 -0.28125 1.46875q-0.28125 0.53125 -0.8125 0.828125q-0.53125 0.296875 -1.171875 0.296875q-1.015625 0 -1.640625 -0.640625q-0.6250019 -0.65625 -0.6250019 -1.890625zm0.8437519 0q0 0.9375 0.40625 1.40625q0.40625 0.453125 1.015625 0.453125q0.609375 0 1.015625 -0.46875q0.40625 -0.46875 0.40625 -1.421875q0 -0.890625 -0.40625 -1.34375q-0.40625 -0.46875 -1.015625 -0.46875q-0.609375 0 -1.015625 0.46875q-0.40625 0.453125 -0.40625 1.375zm7.1389008 0.875l0.78125 -0.0625q0.09375 0.546875 0.375 0.796875q0.296875 0.25 0.734375 0.25q0.375 0 0.65625 -0.171875q0.296875 -0.171875 0.46875 -0.453125q0.1875 -0.296875 0.3125 -0.78125q0.125 -0.5 0.125 -1.015625q0 -0.046875 -0.015625 -0.15625q-0.234375 0.390625 -0.671875 0.640625q-0.421875 0.234375 -0.921875 0.234375q-0.828125 0 -1.40625 -0.59375q-0.5625 -0.609375 -0.5625 -1.59375q0 -1.015625 0.59375 -1.625q0.59375 -0.625 1.5 -0.625q0.65625 0 1.1875 0.359375q0.546875 0.34375 0.828125 1.0q0.28125 0.640625 0.28125 1.875q0 1.265625 -0.28125 2.03125q-0.28125 0.765625 -0.828125 1.15625q-0.546875 0.390625 -1.28125 0.390625q-0.78125 0 -1.28125 -0.421875q-0.5 -0.4375 -0.59375 -1.234375zm3.34375 -2.9375q0 -0.71875 -0.375 -1.125q-0.375 -0.421875 -0.890625 -0.421875q-0.546875 0 -0.953125 0.453125q-0.40625 0.4375 -0.40625 1.15625q0 0.640625 0.375 1.046875q0.390625 0.390625 0.953125 0.390625q0.578125 0 0.9375 -0.390625q0.359375 -0.40625 0.359375 -1.109375zm1.6097412 3.046875l0.8125 -0.140625q0.078125 0.5 0.390625 0.765625q0.3125 0.25 0.859375 0.25q0.578125 0 0.84375 -0.234375q0.28125 -0.234375 0.28125 -0.53125q0 -0.28125 -0.25 -0.4375q-0.171875 -0.109375 -0.84375 -0.28125q-0.890625 -0.234375 -1.25 -0.390625q-0.34375 -0.171875 -0.53125 -0.46875q-0.171875 -0.296875 -0.171875 -0.640625q0 -0.328125 0.140625 -0.59375q0.15625 -0.28125 0.40625 -0.46875q0.203125 -0.140625 0.53125 -0.234375q0.328125 -0.109375 0.703125 -0.109375q0.578125 0 1.0 0.171875q0.4375 0.15625 0.640625 0.4375q0.203125 0.28125 0.28125 0.75l-0.796875 0.109375q-0.0625 -0.375 -0.328125 -0.578125q-0.265625 -0.203125 -0.734375 -0.203125q-0.5625 0 -0.8125 0.1875q-0.234375 0.171875 -0.234375 0.4375q0 0.15625 0.09375 0.28125q0.109375 0.125 0.3125 0.21875q0.125 0.046875 0.734375 0.203125q0.859375 0.234375 1.203125 0.390625q0.34375 0.140625 0.53125 0.421875q0.203125 0.28125 0.203125 0.703125q0 0.40625 -0.234375 0.78125q-0.234375 0.359375 -0.6875 0.5625q-0.453125 0.1875 -1.015625 0.1875q-0.953125 0 -1.453125 -0.390625q-0.484375 -0.390625 -0.625 -1.15625z" fill-rule="nonzero"/><path fill="#0000ff" d="m11.392296 11.075439l5.7686996 0l0 8.643654l-5.7686996 0z" fill-rule="evenodd"/><path fill="#93c47d" d="m17.18239 11.075439l5.7686996 0l0 8.643654l-5.7686996 0z" fill-rule="evenodd"/><path fill="#ffd966" d="m11.392296 19.68852l5.7686996 0l0 8.643652l-5.7686996 0z" fill-rule="evenodd"/><path fill="#ff00ff" d="m17.18239 19.68852l5.7686996 0l0 8.643652l-5.7686996 0z" fill-rule="evenodd"/><path fill="#000000" fill-opacity="0.0" d="m2.331647 11.080484l29.228348 0l0 17.259842l-29.228348 0z" fill-rule="evenodd"/><path fill="#ffffff" d="m13.371602 22.814156l1.359375 -0.125q0.171875 0.953125 0.65625 1.390625q0.484375 0.421875 1.234376 0.421875q0.65625 0 1.140625 -0.296875q0.484375 -0.296875 0.796875 -0.78125q0.3125 -0.5 0.515625 -1.34375q0.21875 -0.84375 0.21875 -1.71875q0 -0.09375 0 -0.28125q-0.421875 0.671875 -1.15625 1.09375q-0.734375 0.40625 -1.578125 0.40625q-1.421876 0 -2.406251 -1.03125q-0.984375 -1.03125 -0.984375 -2.71875q0 -1.734375 1.015625 -2.796875q1.03125 -1.0625 2.578126 -1.0625q1.125 0 2.046875 0.609375q0.921875 0.59375 1.40625 1.703125q0.484375 1.109375 0.484375 3.21875q0 2.203125 -0.484375 3.5q-0.46875 1.296875 -1.421875 1.984375q-0.9375 0.6875 -2.203125 0.6875q-1.343751 0 -2.203126 -0.75q-0.84375 -0.75 -1.015625 -2.109375zm5.765626 -5.046875q0 -1.21875 -0.65625 -1.921875q-0.640625 -0.71875 -1.546875 -0.71875q-0.93750095 0 -1.640626 0.765625q-0.6875 0.765625 -0.6875 1.984375q0 1.09375 0.65625 1.78125q0.671875 0.6875 1.640626 0.6875q0.96875 0 1.59375 -0.6875q0.640625 -0.6875 0.640625 -1.890625z" fill-rule="nonzero"/><path fill="#0000ff" d="m30.479906 11.075439l5.7686977 0l0 8.643654l-5.7686977 0z" fill-rule="evenodd"/><path fill="#93c47d" d="m36.27 11.075439l5.7686996 0l0 8.643654l-5.7686996 0z" fill-rule="evenodd"/><path fill="#ffd966" d="m30.479906 19.68852l5.7686977 0l0 8.643652l-5.7686977 0z" fill-rule="evenodd"/><path fill="#ff00ff" d="m36.27 19.68852l5.7686996 0l0 8.643652l-5.7686996 0z" fill-rule="evenodd"/><path fill="#000000" fill-opacity="0.0" d="m21.419256 11.080484l29.228346 0l0 17.259842l-29.228346 0z" fill-rule="evenodd"/><path fill="#ffffff" d="m32.459213 22.814156l1.359375 -0.125q0.171875 0.953125 0.65625 1.390625q0.484375 0.421875 1.234375 0.421875q0.65625 0 1.140625 -0.296875q0.484375 -0.296875 0.796875 -0.78125q0.3125 -0.5 0.515625 -1.34375q0.21875 -0.84375 0.21875 -1.71875q0 -0.09375 0 -0.28125q-0.421875 0.671875 -1.15625 1.09375q-0.734375 0.40625 -1.578125 0.40625q-1.421875 0 -2.40625 -1.03125q-0.984375 -1.03125 -0.984375 -2.71875q0 -1.734375 1.015625 -2.796875q1.03125 -1.0625 2.578125 -1.0625q1.125 0 2.046875 0.609375q0.921875 0.59375 1.40625 1.703125q0.484375 1.109375 0.484375 3.21875q0 2.203125 -0.484375 3.5q-0.46875 1.296875 -1.421875 1.984375q-0.9375 0.6875 -2.203125 0.6875q-1.34375 0 -2.203125 -0.75q-0.84375 -0.75 -1.015625 -2.109375zm5.765625 -5.046875q0 -1.21875 -0.65625 -1.921875q-0.640625 -0.71875 -1.546875 -0.71875q-0.9375 0 -1.640625 0.765625q-0.6875 0.765625 -0.6875 1.984375q0 1.09375 0.65625 1.78125q0.671875 0.6875 1.640625 0.6875q0.96875 0 1.59375 -0.6875q0.640625 -0.6875 0.640625 -1.890625z" fill-rule="nonzero"/><path fill="#0000ff" d="m11.392296 30.164051l5.7686996 0l0 8.643654l-5.7686996 0z" fill-rule="evenodd"/><path fill="#93c47d" d="m17.18239 30.164051l5.7686996 0l0 8.643654l-5.7686996 0z" fill-rule="evenodd"/><path fill="#ffd966" d="m11.392296 38.77713l5.7686996 0l0 8.643654l-5.7686996 0z" fill-rule="evenodd"/><path fill="#ff00ff" d="m17.18239 38.77713l5.7686996 0l0 8.643654l-5.7686996 0z" fill-rule="evenodd"/><path fill="#000000" fill-opacity="0.0" d="m2.402695 30.169096l29.228346 0l0 17.259844l-29.228346 0z" fill-rule="evenodd"/><path fill="#ffffff" d="m13.44265 41.902767l1.359375 -0.125q0.171875 0.953125 0.65625 1.390625q0.484375 0.421875 1.234375 0.421875q0.65625 0 1.140625 -0.296875q0.484375 -0.296875 0.796875 -0.78125q0.3125 -0.5 0.515625 -1.34375q0.21875 -0.84375 0.21875 -1.71875q0 -0.09375 0 -0.28125q-0.421875 0.671875 -1.15625 1.09375q-0.734375 0.40625 -1.578125 0.40625q-1.421875 0 -2.40625 -1.03125q-0.984375 -1.03125 -0.984375 -2.71875q0 -1.734375 1.015625 -2.796875q1.03125 -1.0625 2.578125 -1.0625q1.125 0 2.046875 0.609375q0.921875 0.59375 1.40625 1.703125q0.484375 1.109375 0.484375 3.21875q0 2.203125 -0.484375 3.5q-0.46875 1.296875 -1.421875 1.984375q-0.9375 0.6875 -2.203125 0.6875q-1.34375 0 -2.203125 -0.75q-0.84375 -0.75 -1.015625 -2.109375zm5.765625 -5.046875q0 -1.21875 -0.65625 -1.921875q-0.640625 -0.71875 -1.546875 -0.71875q-0.9375 0 -1.640625 0.765625q-0.6875 0.765625 -0.6875 1.984375q0 1.09375 0.65625 1.78125q0.671875 0.6875 1.640625 0.6875q0.96875 0 1.59375 -0.6875q0.640625 -0.6875 0.640625 -1.890625z" fill-rule="nonzero"/><path fill="#0000ff" d="m29.971354 30.164051l5.7687016 0l0 8.643654l-5.7687016 0z" fill-rule="evenodd"/><path fill="#93c47d" d="m35.761448 30.164051l5.7686996 0l0 8.643654l-5.7686996 0z" fill-rule="evenodd"/><path fill="#ffd966" d="m29.971354 38.77713l5.7687016 0l0 8.643654l-5.7687016 0z" fill-rule="evenodd"/><path fill="#ff00ff" d="m35.761448 38.77713l5.7686996 0l0 8.643654l-5.7686996 0z" fill-rule="evenodd"/><path fill="#000000" fill-opacity="0.0" d="m21.135065 30.169096l29.228346 0l0 17.259844l-29.228346 0z" fill-rule="evenodd"/><path fill="#ffffff" d="m32.17502 41.902767l1.359375 -0.125q0.171875 0.953125 0.65625 1.390625q0.484375 0.421875 1.234375 0.421875q0.65625 0 1.140625 -0.296875q0.484375 -0.296875 0.796875 -0.78125q0.3125 -0.5 0.515625 -1.34375q0.21875 -0.84375 0.21875 -1.71875q0 -0.09375 0 -0.28125q-0.421875 0.671875 -1.15625 1.09375q-0.734375 0.40625 -1.578125 0.40625q-1.421875 0 -2.40625 -1.03125q-0.9843731 -1.03125 -0.9843731 -2.71875q0 -1.734375 1.0156231 -2.796875q1.03125 -1.0625 2.578125 -1.0625q1.125 0 2.046875 0.609375q0.921875 0.59375 1.40625 1.703125q0.484375 1.109375 0.484375 3.21875q0 2.203125 -0.484375 3.5q-0.46875 1.296875 -1.421875 1.984375q-0.9375 0.6875 -2.203125 0.6875q-1.34375 0 -2.203125 -0.75q-0.84375 -0.75 -1.015625 -2.109375zm5.765625 -5.046875q0 -1.21875 -0.65625 -1.921875q-0.640625 -0.71875 -1.546875 -0.71875q-0.9375 0 -1.640625 0.765625q-0.6875 0.765625 -0.6875 1.984375q0 1.09375 0.65625 1.78125q0.671875 0.6875 1.640625 0.6875q0.96875 0 1.59375 -0.6875q0.640625 -0.6875 0.640625 -1.890625z" fill-rule="nonzero"/><path fill="#000000" fill-opacity="0.0" d="m20.176561 30.169096l29.228346 0l0 17.259844l-29.228346 0z" fill-rule="evenodd"/><path fill="#ff0000" d="m31.827913 46.74464l4.421873 -15.796873l1.5 0l-4.40625 15.796873l-1.5156231 0z" fill-rule="nonzero"/><path fill="#000000" fill-opacity="0.0" d="m1.6188318 30.169096l29.228346 0l0 17.259844l-29.228346 0z" fill-rule="evenodd"/><path fill="#ff0000" d="m13.270184 46.74464l4.421875 -15.796873l1.5 0l-4.40625 15.796873l-1.515625 0z" fill-rule="nonzero"/></g></svg>