<svg version="1.1" viewBox="0.0 0.0 52.0 80.0" fill="none" stroke="none" stroke-linecap="square" stroke-miterlimit="10" xmlns:xlink="http://www.w3.org/1999/xlink" xmlns="http://www.w3.org/2000/svg"><clipPath id="p.0"><path d="m0 0l52.0 0l0 80.0l-52.0 0l0 -80.0z" clip-rule="nonzero"/></clipPath><g clip-path="url(#p.0)"><path fill="#c9daf8" d="m0 0l52.0 0l0 80.0l-52.0 0z" fill-rule="evenodd"/><path fill="#000000" fill-opacity="0.0" d="m-9.133859 34.700787l70.67717 0l0 53.322834l-70.67717 0z" fill-rule="evenodd"/><path fill="#0b5394" d="m12.283513 52.660786l-1.78125 -6.671875l0.90625 0l1.015625 4.375q0.171875 0.6875 0.28125 1.359375q0.265625 -1.0625 0.3125 -1.234375l1.265625 -4.5l1.0625 0l0.95312595 3.375q0.359375 1.25 0.53125 2.359375q0.125 -0.625 0.328125 -1.453125l1.046875 -4.28125l0.890625 0l-1.828125 6.671875l-0.859375 0l-1.406251 -5.09375q-0.171875 -0.625 -0.203125 -0.78125q-0.109375 0.46875 -0.203125 0.78125l-1.421875 5.09375l-0.890625 0zm7.5387125 -5.734375l0 -0.9375l0.8125 0l0 0.9375l-0.8125 0zm0 5.734375l0 -4.84375l0.8125 0l0 4.84375l-0.8125 0zm2.0567932 0l0 -4.84375l0.75 0l0 0.6875q0.5312519 -0.796875 1.5312519 -0.796875q0.4375 0 0.796875 0.171875q0.375 0.15625 0.546875 0.40625q0.1875 0.25 0.265625 0.609375q0.046875 0.21875 0.046875 0.796875l0 2.96875l-0.828125 0l0 -2.9375q0 -0.5 -0.09375 -0.75q-0.09375 -0.25 -0.34375 -0.390625q-0.234375 -0.15625 -0.5625 -0.15625q-0.515625 0 -0.90625 0.328125q-0.3750019 0.328125 -0.3750019 1.265625l0 2.640625l-0.828125 0zm9.576403 -0.734375l0.109375 0.71875q-0.34375 0.078125 -0.609375 0.078125q-0.453125 0 -0.703125 -0.140625q-0.234375 -0.140625 -0.34375 -0.359375q-0.09375 -0.234375 -0.09375 -0.984375l0 -2.78125l-0.609375 0l0 -0.640625l0.609375 0l0 -1.1875l0.8125 -0.5l0 1.6875l0.828125 0l0 0.640625l-0.828125 0l0 2.828125q0 0.359375 0.046875 0.46875q0.046875 0.09375 0.140625 0.15625q0.09375 0.046875 0.28125 0.046875q0.140625 0 0.359375 -0.03125zm0.79478455 0.734375l0 -6.671875l0.828125 0l0 2.390625q0.578125 -0.671875 1.453125 -0.671875q0.53125 0 0.921875 0.21875q0.40625 0.21875 0.578125 0.59375q0.171875 0.359375 0.171875 1.078125l0 3.0625l-0.828125 0l0 -3.0625q0 -0.625 -0.265625 -0.890625q-0.265625 -0.28125 -0.75 -0.28125q-0.375 0 -0.703125 0.1875q-0.3125 0.1875 -0.453125 0.515625q-0.125 0.3125 -0.125 0.890625l0 2.640625l-0.828125 0zm8.500366 -1.5625l0.84375 0.109375q-0.1875 0.75 -0.734375 1.15625q-0.546875 0.40625 -1.390625 0.40625q-1.0625 0 -1.6875 -0.65625q-0.609375 -0.65625 -0.609375 -1.828125q0 -1.21875 0.625 -1.890625q0.625 -0.6875 1.625 -0.6875q0.984375 0 1.59375 0.671875q0.609375 0.65625 0.609375 1.859375q0 0.0625 0 0.21875l-3.609375 0q0.046875 0.796875 0.453125 1.21875q0.40625 0.421875 1.015625 0.421875q0.453125 0 0.765625 -0.234375q0.3125 -0.234375 0.5 -0.765625zm-2.6875 -1.328125l2.703125 0q-0.0625 -0.609375 -0.3125 -0.90625q-0.390625 -0.46875 -1.015625 -0.46875q-0.5625 0 -0.953125 0.375q-0.375 0.375 -0.421875 1.0z" fill-rule="nonzero"/><path fill="#0b5394" d="m14.36823 65.72016l0 -6.703125l0.75 0l0 0.640625q0.265625 -0.375 0.59375 -0.5625q0.34375095 -0.1875 0.81250095 -0.1875q0.625 0 1.09375 0.328125q0.46875 0.3125 0.703125 0.90625q0.25 0.578125 0.25 1.265625q0 0.734375 -0.265625 1.328125q-0.265625 0.59375 -0.78125 0.921875q-0.5 0.3125 -1.0625 0.3125q-0.40625 0 -0.73437595 -0.171875q-0.328125 -0.171875 -0.53125 -0.4375l0 2.359375l-0.828125 0zm0.75 -4.25q0 0.9375 0.375 1.390625q0.375 0.4375 0.92187595 0.4375q0.546875 0 0.921875 -0.453125q0.390625 -0.46875 0.390625 -1.4375q0 -0.9375 -0.375 -1.390625q-0.375 -0.453125 -0.90625 -0.453125q-0.53125095 0 -0.93750095 0.484375q-0.390625 0.484375 -0.390625 1.421875zm4.453492 -3.34375l0 -0.9375l0.8125 0l0 0.9375l-0.8125 0zm0 5.734375l0 -4.84375l0.8125 0l0 4.84375l-0.8125 0zm2.0567932 0l0 -4.84375l0.75 0l0 0.6875q0.5312519 -0.796875 1.5312519 -0.796875q0.4375 0 0.796875 0.171875q0.375 0.15625 0.546875 0.40625q0.1875 0.25 0.265625 0.609375q0.046875 0.21875 0.046875 0.796875l0 2.96875l-0.828125 0l0 -2.9375q0 -0.5 -0.09375 -0.75q-0.09375 -0.25 -0.34375 -0.390625q-0.234375 -0.15625 -0.5625 -0.15625q-0.515625 0 -0.9062519 0.328125q-0.375 0.328125 -0.375 1.265625l0 2.640625l-0.828125 0zm5.203493 0l0 -6.671875l0.8125 0l0 3.796875l1.9375 -1.96875l1.0625 0l-1.84375 1.796875l2.03125 3.046875l-1.015625 0l-1.59375 -2.46875l-0.578125 0.546875l0 1.921875l-0.8125 0zm7.068222 -5.796875l0 -0.796875l4.328125 0l0 0.640625q-0.640625 0.671875 -1.265625 1.796875q-0.625 1.125 -0.96875 2.328125q-0.25 0.828125 -0.3125 1.828125l-0.84375 0q0.015625 -0.78125 0.3125 -1.890625q0.296875 -1.125 0.84375 -2.15625q0.5625 -1.046875 1.1875 -1.75l-3.28125 0z" fill-rule="nonzero"/><path fill="#0b5394" d="m6.7050223 75.06078l-1.46875 -4.84375l0.84375 0l0.765625 2.796875l0.296875 1.046875q0.015625 -0.078125 0.25 -1.0l0.7656245 -2.84375l0.84375 0l0.71875 2.8125l0.25 0.921875l0.265625 -0.9375l0.828125 -2.796875l0.796875 0l-1.5 4.84375l-0.859375 0l-0.765625 -2.890625l-0.1875 -0.828125l-0.9843745 3.71875l-0.859375 0zm5.86148 -5.734375l0 -0.9375l0.8125 0l0 0.9375l-0.8125 0zm0 5.734375l0 -4.84375l0.8125 0l0 4.84375l-0.8125 0zm3.8536692 -0.734375l0.109375 0.71875q-0.34375 0.078125 -0.60937595 0.078125q-0.453125 0 -0.703125 -0.140625q-0.234375 -0.140625 -0.34375 -0.359375q-0.09375 -0.234375 -0.09375 -0.984375l0 -2.78125l-0.609375 0l0 -0.640625l0.609375 0l0 -1.1875l0.8125 -0.5l0 1.6875l0.82812595 0l0 0.640625l-0.82812595 0l0 2.828125q0 0.359375 0.046875 0.46875q0.046875 0.09375 0.140625 0.15625q0.09375 0.046875 0.28125095 0.046875q0.140625 0 0.359375 -0.03125zm0.79478455 0.734375l0 -6.671875l0.828125 0l0 2.390625q0.578125 -0.671875 1.453125 -0.671875q0.53125 0 0.921875 0.21875q0.40625 0.21875 0.578125 0.59375q0.171875 0.359375 0.171875 1.078125l0 3.0625l-0.828125 0l0 -3.0625q0 -0.625 -0.265625 -0.890625q-0.265625 -0.28125 -0.75 -0.28125q-0.375 0 -0.703125 0.1875q-0.3125 0.1875 -0.453125 0.515625q-0.125 0.3125 -0.125 0.890625l0 2.640625l-0.828125 0zm10.935778 -0.59375q-0.453125 0.390625 -0.875 0.546875q-0.421875 0.15625 -0.90625 0.15625q-0.796875 0 -1.21875 -0.390625q-0.421875 -0.390625 -0.421875 -1.0q0 -0.34375 0.15625 -0.640625q0.15625 -0.296875 0.421875 -0.46875q0.265625 -0.1875 0.59375 -0.28125q0.234375 -0.0625 0.71875 -0.109375q1.0 -0.125 1.46875 -0.28125q0 -0.171875 0 -0.21875q0 -0.5 -0.234375 -0.703125q-0.3125 -0.28125 -0.921875 -0.28125q-0.578125 0 -0.859375 0.203125q-0.28125 0.203125 -0.40625 0.71875l-0.796875 -0.109375q0.109375 -0.515625 0.359375 -0.828125q0.25 -0.328125 0.71875 -0.5q0.46875 -0.171875 1.09375 -0.171875q0.625 0 1.0 0.15625q0.390625 0.140625 0.578125 0.359375q0.1875 0.21875 0.25 0.5625q0.046875 0.203125 0.046875 0.75l0 1.09375q0 1.140625 0.046875 1.453125q0.0625 0.296875 0.21875 0.578125l-0.859375 0q-0.125 -0.25 -0.171875 -0.59375zm-0.0625 -1.828125q-0.453125 0.171875 -1.34375 0.296875q-0.5 0.078125 -0.71875 0.171875q-0.203125 0.09375 -0.3125 0.265625q-0.109375 0.171875 -0.109375 0.390625q0 0.328125 0.234375 0.546875q0.25 0.21875 0.734375 0.21875q0.46875 0 0.828125 -0.203125q0.375 -0.21875 0.5625 -0.578125q0.125 -0.265625 0.125 -0.8125l0 -0.296875zm4.3576508 0.984375l0.8125 -0.140625q0.078125 0.5 0.390625 0.765625q0.3125 0.25 0.859375 0.25q0.578125 0 0.84375 -0.234375q0.28125 -0.234375 0.28125 -0.53125q0 -0.28125 -0.25 -0.4375q-0.171875 -0.109375 -0.84375 -0.28125q-0.890625 -0.234375 -1.25 -0.390625q-0.34375 -0.171875 -0.53125 -0.46875q-0.171875 -0.296875 -0.171875 -0.640625q0 -0.328125 0.140625 -0.59375q0.15625 -0.28125 0.40625 -0.46875q0.203125 -0.140625 0.53125 -0.234375q0.328125 -0.109375 0.703125 -0.109375q0.578125 0 1.0 0.171875q0.4375 0.15625 0.640625 0.4375q0.203125 0.28125 0.28125 0.75l-0.796875 0.109375q-0.0625 -0.375 -0.328125 -0.578125q-0.265625 -0.203125 -0.734375 -0.203125q-0.5625 0 -0.8125 0.1875q-0.234375 0.171875 -0.234375 0.4375q0 0.15625 0.09375 0.28125q0.109375 0.125 0.3125 0.21875q0.125 0.046875 0.734375 0.203125q0.859375 0.234375 1.203125 0.390625q0.34375 0.140625 0.53125 0.421875q0.203125 0.28125 0.203125 0.703125q0 0.40625 -0.234375 0.78125q-0.234375 0.359375 -0.6875 0.5625q-0.453125 0.1875 -1.015625 0.1875q-0.953125 0 -1.453125 -0.390625q-0.484375 -0.390625 -0.625 -1.15625zm8.1640625 1.4375l0 -0.703125q-0.5625 0.8125 -1.53125 0.8125q-0.421875 0 -0.796875 -0.15625q-0.375 -0.171875 -0.5625 -0.421875q-0.171875 -0.25 -0.25 -0.609375q-0.046875 -0.234375 -0.046875 -0.765625l0 -3.0l0.828125 0l0 2.6875q0 0.640625 0.046875 0.875q0.078125 0.3125 0.328125 0.5q0.25 0.1875 0.609375 0.1875q0.375 0 0.703125 -0.1875q0.328125 -0.1875 0.453125 -0.515625q0.140625 -0.328125 0.140625 -0.953125l0 -2.59375l0.8125 0l0 4.84375l-0.734375 0zm2.7816162 0l-0.765625 0l0 -6.671875l0.828125 0l0 2.375q0.515625 -0.65625 1.3125 -0.65625q0.453125 0 0.84375 0.1875q0.40625 0.171875 0.65625 0.5q0.265625 0.328125 0.40625 0.796875q0.15625 0.453125 0.15625 0.984375q0 1.234375 -0.625 1.921875q-0.609375 0.671875 -1.46875 0.671875q-0.859375 0 -1.34375 -0.71875l0 0.609375zm-0.015625 -2.453125q0 0.875 0.234375 1.25q0.390625 0.640625 1.046875 0.640625q0.546875 0 0.9375 -0.46875q0.390625 -0.46875 0.390625 -1.390625q0 -0.953125 -0.375 -1.390625q-0.375 -0.453125 -0.90625 -0.453125q-0.546875 0 -0.9375 0.46875q-0.390625 0.453125 -0.390625 1.34375z" fill-rule="nonzero"/><path fill="#ff00ff" d="m4.302538 17.911303l13.795275 0l0 20.661417l-13.795275 0z" fill-rule="evenodd"/><path fill="#000000" fill-opacity="0.0" d="m-6.2963023 17.914515l35.05512 0l0 20.661417l-35.05512 0z" fill-rule="evenodd"/><path fill="#ffffff" d="m6.316035 22.6596l0 -1.796875l9.875 0l0 1.453125q-1.453125 1.546875 -2.890625 4.125q-1.421875 2.5625 -2.203125 5.28125q-0.5625 1.921875 -0.71875 4.203125l-1.9375 0q0.03125 -1.796875 0.703125 -4.34375q0.6875 -2.5625 1.953125 -4.921875q1.265625 -2.375 2.6875 -4.0l-7.4687495 0z" fill-rule="nonzero"/><path fill="#0b5394" d="m21.092266 26.030184l4.4094486 0l0 -2.2204723l4.4094486 4.4409447l-4.4094486 4.4409447l0 -2.2204723l-4.4094486 0z" fill-rule="evenodd"/><path fill="#cfe2f3" d="m45.18676 31.09591c0.61087036 0 1.1060753 0.49529457 1.1060753 1.1061668c0 0.6108742 -0.49520493 1.1060753 -1.1060753 1.1060753c-0.6108742 0 -1.1061668 -0.4952011 -1.1061668 -1.1060753c0 -0.61087227 0.49529266 -1.1061668 1.1061668 -1.1061668zm-4.359997 1.1061668c0 0.6108742 0.4952011 1.1060753 1.1060753 1.1060753c0.6108742 0 1.1061668 -0.4952011 1.1061668 -1.1060753c0 -0.61087227 -0.49529266 -1.1061668 -1.1061668 -1.1061668c-0.6108742 0 -1.1060753 0.49529457 -1.1060753 1.1061668zm-3.2539215 0c0 0.6108742 0.49529648 1.1060753 1.1061668 1.1060753c0.6107826 0 1.1060753 -0.4952011 1.1060753 -1.1060753c0 -0.61087227 -0.49529266 -1.1061668 -1.1060753 -1.1061668c-0.61087036 0 -1.1061668 0.49529457 -1.1061668 1.1061668z" fill-rule="evenodd"/><path fill="#cfe2f3" d="m45.927807 28.883669c0.8165283 0.053585052 1.5502777 0.40641594 2.092968 0.94919777c0.59017944 0.59017754 0.9564972 1.4066143 0.9564972 2.3083267c0 1.803421 -1.4614906 3.264824 -3.264824 3.264824l-7.9765396 0c-0.9601021 0 -1.8301239 -0.389328 -2.4592896 -1.0184937c-0.6290703 -0.6290703 -1.0184898 -1.4991875 -1.0184898 -2.4592857c0 -1.6853504 1.3653183 -3.0506668 3.0506668 -3.0506668l8.406055 0c0.07058716 -0.0012016296 0.14237213 0.0011997223 0.21295547 0.0060977936zm-1.8472137 3.318407c0 0.6108742 0.49529266 1.1060753 1.1061668 1.1060753c0.61087036 0 1.1060753 -0.4952011 1.1060753 -1.1060753c0 -0.61087227 -0.49520493 -1.1061668 -1.1060753 -1.1061668c-0.6108742 0 -1.1061668 0.49529457 -1.1061668 1.1061668zm-3.25383 0c0 0.6108742 0.4952011 1.1060753 1.1060753 1.1060753c0.6108742 0 1.1061668 -0.4952011 1.1061668 -1.1060753c0 -0.61087227 -0.49529266 -1.1061668 -1.1061668 -1.1061668c-0.6108742 0 -1.1060753 0.49529457 -1.1060753 1.1061668zm-3.2539215 0c0 0.6108742 0.49529648 1.1060753 1.1061668 1.1060753c0.6107826 0 1.1060753 -0.4952011 1.1060753 -1.1060753c0 -0.61087227 -0.49529266 -1.1061668 -1.1060753 -1.1061668c-0.61087036 0 -1.1061668 0.49529457 -1.1061668 1.1061668zm6.8557777 -7.2026024l-2.5797615 0l-1.7315445 3.8780975l5.597538 0c0.07178497 0 0.14357376 0.002494812 0.21535873 0.007297516l0 -3.885395l-1.5015907 0zm-11.735367 6.7535954l0.09978104 0.6071758c0 0 -0.03649521 -0.024295807 -0.09978104 -0.06568909l0 0.27014542c0.061992645 -0.041389465 0.09978104 -0.06568909 0.09978104 -0.06568909l-0.075481415 0.4648056l1.186451 0l0 -1.209547l-1.2107506 0zm0 1.2095509l0 -0.39912033c-0.3322258 0.22385788 -1.3787117 0.9673996 -1.3130226 1.3908157c0.07788277 0.502594 1.0452843 0.7788353 1.0452843 0.7788353l0.2896347 -1.7705307l-0.021896362 0zm-1.3118229 -2.0601711c-0.06568718 0.4235077 0.9807949 1.1669598 1.3130245 1.3909092l0 -0.5402889l-0.26654053 -1.6281624c-0.0012016296 -0.0012931824 -0.9685993 0.2737484 -1.046484 0.7775421z" fill-rule="evenodd"/><path fill="#cfe2f3" d="m46.15416 21.599579c0 0.6533699 -0.44420242 0.52319527 -0.44420242 0.52319527l-0.39052963 0l0 -1.046484l0.39052963 0c0 0 0.44420242 0 0.44420242 0.5232887zm-1.4517021 -0.5232887c-0.7289429 0 -1.3191223 0.59017754 -1.3191223 1.3191223l0 2.6028595l1.0452843 0l0 -2.6016579c0 -0.15096283 0.12297058 -0.27383995 0.27383804 -0.27383995l0.6181717 0l0 -1.046484l-0.6181717 0z" fill-rule="evenodd"/><path fill="#000000" fill-opacity="0.0" d="m32.426712 30.123613c0 0 -0.9673977 0.27504158 -1.0452824 0.7788353c-0.06568718 0.4235077 0.9807949 1.1669598 1.3130245 1.3909092c0.062084198 0.041297913 0.09978104 0.06568527 0.09978104 0.06568527l-0.09978104 -0.6072674l-0.26774216 -1.6281624" fill-rule="evenodd"/><path fill="#000000" fill-opacity="0.0" d="m32.693253 32.5635c0.061992645 -0.041389465 0.09978104 -0.06578064 0.09978104 -0.06578064l-0.075481415 0.46490097l-0.28963852 1.7705307c0 0 -0.9673996 -0.27503967 -1.0452824 -0.7788353c-0.06809044 -0.42341614 0.97839546 -1.1669579 1.3106213 -1.3908157z" fill-rule="evenodd"/><path fill="#000000" fill-opacity="0.0" d="m32.693253 31.753069l1.2095528 0l0 1.2095509l-1.2095528 0l0 -0.66926193z" fill-rule="evenodd"/><path fill="#000000" fill-opacity="0.0" d="m44.42862 24.999474l1.5003891 0l0 3.876896" fill-rule="evenodd"/><path fill="#000000" fill-opacity="0.0" d="m40.11611 28.87637l1.7315445 -3.876896l1.534481 0" fill-rule="evenodd"/><path fill="#000000" fill-opacity="0.0" d="m45.18676 33.30815c0.61050415 0 1.1060753 -0.49557114 1.1060753 -1.1060753c0 -0.61050224 -0.49557114 -1.1061668 -1.1060753 -1.1061668c-0.61050415 0 -1.1061668 0.4956646 -1.1061668 1.1061668c0 0.61050415 0.4956627 1.1060753 1.1061668 1.1060753" fill-rule="evenodd"/><path fill="#000000" fill-opacity="0.0" d="m41.93284 33.30815c0.61050415 0 1.1061668 -0.49557114 1.1061668 -1.1060753c0 -0.61050224 -0.4956627 -1.1061668 -1.1061668 -1.1061668c-0.61050415 0 -1.1060753 0.4956646 -1.1060753 1.1061668c0 0.61050415 0.49557114 1.1060753 1.1060753 1.1060753" fill-rule="evenodd"/><path fill="#000000" fill-opacity="0.0" d="m38.67901 31.09591c-0.61087036 0 -1.1061668 0.49529457 -1.1061668 1.1061668c0 0.6108742 0.49529648 1.1060753 1.1061668 1.1060753c0.6107826 0 1.1060753 -0.4952011 1.1060753 -1.1060753c-0.0012016296 -0.61087227 -0.49529266 -1.1061668 -1.1060753 -1.1061668z" fill-rule="evenodd"/><path fill="#000000" fill-opacity="0.0" d="m45.927807 28.883669c-0.07058334 -0.0048980713 -0.14236832 -0.007299423 -0.21535873 -0.007299423l-8.404854 0c-1.6853485 0 -3.0506668 1.3653164 -3.0506668 3.0506668c0 0.9601021 0.3893242 1.8302155 1.0184898 2.4592896c0.6290741 0.6290703 1.4991875 1.0184898 2.4592896 1.0184898l7.9777412 0c1.8033333 0 3.264824 -1.4614029 3.264824 -3.264824c0 -0.9017105 -0.36502457 -1.7182407 -0.9564972 -2.3084183c-0.5426903 -0.5426903 -1.2764397 -0.89431953 -2.092968 -0.9479046z" fill-rule="evenodd"/><path fill="#000000" fill-opacity="0.0" d="m44.42862 24.999474l-1.0452843 0l0 -2.6028595c0 -0.7289467 0.59017944 -1.3191223 1.3191223 -1.3191223l1.0087929 0c0 0 0.44411087 0 0.44411087 0.5232868c0 0.65346336 -0.44411087 0.5231972 -0.44411087 0.5231972l-1.0087929 0c-0.15086746 0 -0.27383804 0.12296867 -0.27383804 0.27383804l0 2.6016598z" fill-rule="evenodd"/><path fill="#000000" fill-opacity="0.0" d="m45.319427 21.07629l0 1.046484" fill-rule="evenodd"/><path stroke="#0b5394" stroke-width="1.0" stroke-linejoin="round" stroke-linecap="butt" d="m32.426712 30.123613c0 0 -0.9673977 0.27504158 -1.0452824 0.7788353c-0.06568718 0.4235077 0.9807949 1.1669598 1.3130245 1.3909092c0.062084198 0.041297913 0.09978104 0.06568527 0.09978104 0.06568527l-0.09978104 -0.6072674l-0.26774216 -1.6281624" fill-rule="evenodd"/><path stroke="#0b5394" stroke-width="1.0" stroke-linejoin="round" stroke-linecap="butt" d="m32.693253 32.5635c0.061992645 -0.041389465 0.09978104 -0.06578064 0.09978104 -0.06578064l-0.075481415 0.46490097l-0.28963852 1.7705307c0 0 -0.9673996 -0.27503967 -1.0452824 -0.7788353c-0.06809044 -0.42341614 0.97839546 -1.1669579 1.3106213 -1.3908157z" fill-rule="evenodd"/><path stroke="#0b5394" stroke-width="1.0" stroke-linejoin="round" stroke-linecap="butt" d="m32.693253 31.753069l1.2095528 0l0 1.2095509l-1.2095528 0l0 -0.66926193z" fill-rule="evenodd"/><path stroke="#0b5394" stroke-width="1.0" stroke-linejoin="round" stroke-linecap="butt" d="m44.42862 24.999474l1.5003891 0l0 3.876896" fill-rule="evenodd"/><path stroke="#0b5394" stroke-width="1.0" stroke-linejoin="round" stroke-linecap="butt" d="m40.11611 28.87637l1.7315445 -3.876896l1.534481 0" fill-rule="evenodd"/><path stroke="#0b5394" stroke-width="1.0" stroke-linejoin="round" stroke-linecap="butt" d="m45.18676 33.30815c0.61050415 0 1.1060753 -0.49557114 1.1060753 -1.1060753c0 -0.61050224 -0.49557114 -1.1061668 -1.1060753 -1.1061668c-0.61050415 0 -1.1061668 0.4956646 -1.1061668 1.1061668c0 0.61050415 0.4956627 1.1060753 1.1061668 1.1060753" fill-rule="evenodd"/><path stroke="#0b5394" stroke-width="1.0" stroke-linejoin="round" stroke-linecap="butt" d="m41.93284 33.30815c0.61050415 0 1.1061668 -0.49557114 1.1061668 -1.1060753c0 -0.61050224 -0.4956627 -1.1061668 -1.1061668 -1.1061668c-0.61050415 0 -1.1060753 0.4956646 -1.1060753 1.1061668c0 0.61050415 0.49557114 1.1060753 1.1060753 1.1060753" fill-rule="evenodd"/><path stroke="#0b5394" stroke-width="1.0" stroke-linejoin="round" stroke-linecap="butt" d="m38.67901 31.09591c-0.61087036 0 -1.1061668 0.49529457 -1.1061668 1.1061668c0 0.6108742 0.49529648 1.1060753 1.1061668 1.1060753c0.6107826 0 1.1060753 -0.4952011 1.1060753 -1.1060753c-0.0012016296 -0.61087227 -0.49529266 -1.1061668 -1.1060753 -1.1061668z" fill-rule="evenodd"/><path stroke="#0b5394" stroke-width="1.0" stroke-linejoin="round" stroke-linecap="butt" d="m45.927807 28.883669c-0.07058334 -0.0048980713 -0.14236832 -0.007299423 -0.21535873 -0.007299423l-8.404854 0c-1.6853485 0 -3.0506668 1.3653164 -3.0506668 3.0506668c0 0.9601021 0.3893242 1.8302155 1.0184898 2.4592896c0.6290741 0.6290703 1.4991875 1.0184898 2.4592896 1.0184898l7.9777412 0c1.8033333 0 3.264824 -1.4614029 3.264824 -3.264824c0 -0.9017105 -0.36502457 -1.7182407 -0.9564972 -2.3084183c-0.5426903 -0.5426903 -1.2764397 -0.89431953 -2.092968 -0.9479046z" fill-rule="evenodd"/><path stroke="#0b5394" stroke-width="1.0" stroke-linejoin="round" stroke-linecap="butt" d="m44.42862 24.999474l-1.0452843 0l0 -2.6028595c0 -0.7289467 0.59017944 -1.3191223 1.3191223 -1.3191223l1.0087929 0c0 0 0.44411087 0 0.44411087 0.5232868c0 0.65346336 -0.44411087 0.5231972 -0.44411087 0.5231972l-1.0087929 0c-0.15086746 0 -0.27383804 0.12296867 -0.27383804 0.27383804l0 2.6016598z" fill-rule="evenodd"/><path stroke="#0b5394" stroke-width="1.0" stroke-linejoin="round" stroke-linecap="butt" d="m45.319427 21.07629l0 1.046484" fill-rule="evenodd"/></g></svg>