<svg version="1.1" viewBox="0.0 0.0 52.0 80.0" fill="none" stroke="none" stroke-linecap="square" stroke-miterlimit="10" xmlns:xlink="http://www.w3.org/1999/xlink" xmlns="http://www.w3.org/2000/svg"><clipPath id="p.0"><path d="m0 0l52.0 0l0 80.0l-52.0 0l0 -80.0z" clip-rule="nonzero"/></clipPath><g clip-path="url(#p.0)"><path fill="#c9daf8" d="m0 0l52.0 0l0 80.0l-52.0 0z" fill-rule="evenodd"/><path fill="#000000" fill-opacity="0.0" d="m-9.133859 33.279827l70.67717 0l0 42.01575l-70.67717 0z" fill-rule="evenodd"/><path fill="#0b5394" d="m12.283513 51.239826l-1.78125 -6.671875l0.90625 0l1.015625 4.375q0.171875 0.6875 0.28125 1.359375q0.265625 -1.0625 0.3125 -1.234375l1.265625 -4.5l1.0625 0l0.95312595 3.375q0.359375 1.25 0.53125 2.359375q0.125 -0.625 0.328125 -1.453125l1.046875 -4.28125l0.890625 0l-1.828125 6.671875l-0.859375 0l-1.406251 -5.09375q-0.171875 -0.625 -0.203125 -0.78125q-0.109375 0.46875 -0.203125 0.78125l-1.421875 5.09375l-0.890625 0zm7.5387125 -5.734375l0 -0.9375l0.8125 0l0 0.9375l-0.8125 0zm0 5.734375l0 -4.84375l0.8125 0l0 4.84375l-0.8125 0zm2.0567932 0l0 -4.84375l0.75 0l0 0.6875q0.5312519 -0.796875 1.5312519 -0.796875q0.4375 0 0.796875 0.171875q0.375 0.15625 0.546875 0.40625q0.1875 0.25 0.265625 0.609375q0.046875 0.21875 0.046875 0.796875l0 2.96875l-0.828125 0l0 -2.9375q0 -0.5 -0.09375 -0.75q-0.09375 -0.25 -0.34375 -0.390625q-0.234375 -0.15625 -0.5625 -0.15625q-0.515625 0 -0.90625 0.328125q-0.3750019 0.328125 -0.3750019 1.265625l0 2.640625l-0.828125 0zm9.576403 -0.734375l0.109375 0.71875q-0.34375 0.078125 -0.609375 0.078125q-0.453125 0 -0.703125 -0.140625q-0.234375 -0.140625 -0.34375 -0.359375q-0.09375 -0.234375 -0.09375 -0.984375l0 -2.78125l-0.609375 0l0 -0.640625l0.609375 0l0 -1.1875l0.8125 -0.5l0 1.6875l0.828125 0l0 0.640625l-0.828125 0l0 2.828125q0 0.359375 0.046875 0.46875q0.046875 0.09375 0.140625 0.15625q0.09375 0.046875 0.28125 0.046875q0.140625 0 0.359375 -0.03125zm0.79478455 0.734375l0 -6.671875l0.828125 0l0 2.390625q0.578125 -0.671875 1.453125 -0.671875q0.53125 0 0.921875 0.21875q0.40625 0.21875 0.578125 0.59375q0.171875 0.359375 0.171875 1.078125l0 3.0625l-0.828125 0l0 -3.0625q0 -0.625 -0.265625 -0.890625q-0.265625 -0.28125 -0.75 -0.28125q-0.375 0 -0.703125 0.1875q-0.3125 0.1875 -0.453125 0.515625q-0.125 0.3125 -0.125 0.890625l0 2.640625l-0.828125 0zm8.500366 -1.5625l0.84375 0.109375q-0.1875 0.75 -0.734375 1.15625q-0.546875 0.40625 -1.390625 0.40625q-1.0625 0 -1.6875 -0.65625q-0.609375 -0.65625 -0.609375 -1.828125q0 -1.21875 0.625 -1.890625q0.625 -0.6875 1.625 -0.6875q0.984375 0 1.59375 0.671875q0.609375 0.65625 0.609375 1.859375q0 0.0625 0 0.21875l-3.609375 0q0.046875 0.796875 0.453125 1.21875q0.40625 0.421875 1.015625 0.421875q0.453125 0 0.765625 -0.234375q0.3125 -0.234375 0.5 -0.765625zm-2.6875 -1.328125l2.703125 0q-0.0625 -0.609375 -0.3125 -0.90625q-0.390625 -0.46875 -1.015625 -0.46875q-0.5625 0 -0.953125 0.375q-0.375 0.375 -0.421875 1.0z" fill-rule="nonzero"/><path fill="#0b5394" d="m12.669881 62.5492l0.390625 -1.9375l-0.765625 0l0 -0.671875l0.90625 0l0.34375 -1.65625l-1.25 0l0 -0.6875l1.375 0l0.40625 -1.953125l0.6875 0l-0.40625 1.953125l1.4375 0l0.39062595 -1.953125l0.6875 0l-0.390625 1.953125l0.78125 0l0 0.6875l-0.921875 0l-0.34375095 1.65625l1.265626 0l0 0.671875l-1.390626 0l-0.40625 1.9375l-0.671875 0l0.390625 -1.9375l-1.4375 0l-0.390625 1.9375l-0.6875 0zm1.21875 -2.609375l1.421875 0l0.34375 -1.65625l-1.4375 0l-0.328125 1.65625zm3.8909922 0.734375l0.828125 -0.109375q0.140625 0.703125 0.46875 1.015625q0.34375 0.296875 0.828125 0.296875q0.578125 0 0.96875 -0.390625q0.40625 -0.40625 0.40625 -1.0q0 -0.5625 -0.375 -0.921875q-0.359375 -0.375 -0.921875 -0.375q-0.234375 0 -0.578125 0.09375l0.078125 -0.71875q0.09375 0 0.140625 0q0.515625 0 0.9375 -0.265625q0.421875 -0.28125 0.421875 -0.84375q0 -0.453125 -0.3125 -0.75q-0.296875 -0.296875 -0.78125 -0.296875q-0.484375 0 -0.796875 0.3125q-0.3125 0.296875 -0.40625 0.890625l-0.828125 -0.140625q0.15625 -0.828125 0.6875 -1.28125q0.53125 -0.453125 1.328125 -0.453125q0.546875 0 1.0 0.234375q0.46875 0.234375 0.703125 0.640625q0.25 0.40625 0.25 0.859375q0 0.4375 -0.234375 0.796875q-0.234375 0.34375 -0.6875 0.5625q0.59375 0.125 0.921875 0.5625q0.328125 0.421875 0.328125 1.078125q0 0.875 -0.640625 1.484375q-0.640625 0.609375 -1.609375 0.609375q-0.875 0 -1.46875 -0.515625q-0.578125 -0.53125 -0.65625 -1.375zm7.6701527 0.328125l0.8125 -0.140625q0.078125 0.5 0.390625 0.765625q0.3125 0.25 0.859375 0.25q0.578125 0 0.84375 -0.234375q0.28125 -0.234375 0.28125 -0.53125q0 -0.28125 -0.25 -0.4375q-0.171875 -0.109375 -0.84375 -0.28125q-0.890625 -0.234375 -1.25 -0.390625q-0.34375 -0.171875 -0.53125 -0.46875q-0.171875 -0.296875 -0.171875 -0.640625q0 -0.328125 0.140625 -0.59375q0.15625 -0.28125 0.40625 -0.46875q0.203125 -0.140625 0.53125 -0.234375q0.328125 -0.109375 0.703125 -0.109375q0.578125 0 1.0 0.171875q0.4375 0.15625 0.640625 0.4375q0.203125 0.28125 0.28125 0.75l-0.796875 0.109375q-0.0625 -0.375 -0.328125 -0.578125q-0.265625 -0.203125 -0.734375 -0.203125q-0.5625 0 -0.8125 0.1875q-0.234375 0.171875 -0.234375 0.4375q0 0.15625 0.09375 0.28125q0.109375 0.125 0.3125 0.21875q0.125 0.046875 0.734375 0.203125q0.859375 0.234375 1.203125 0.390625q0.34375 0.140625 0.53125 0.421875q0.203125 0.28125 0.203125 0.703125q0 0.40625 -0.234375 0.78125q-0.234375 0.359375 -0.6875 0.5625q-0.453125 0.1875 -1.015625 0.1875q-0.953125 0 -1.453125 -0.390625q-0.484375 -0.390625 -0.625 -1.15625zm8.1640625 1.4375l0 -0.703125q-0.5625 0.8125 -1.53125 0.8125q-0.421875 0 -0.796875 -0.15625q-0.375 -0.171875 -0.5625 -0.421875q-0.171875 -0.25 -0.25 -0.609375q-0.046875 -0.234375 -0.046875 -0.765625l0 -3.0l0.828125 0l0 2.6875q0 0.640625 0.046875 0.875q0.078125 0.3125 0.328125 0.5q0.25 0.1875 0.609375 0.1875q0.375 0 0.703125 -0.1875q0.328125 -0.1875 0.453125 -0.515625q0.140625 -0.328125 0.140625 -0.953125l0 -2.59375l0.8125 0l0 4.84375l-0.734375 0zm2.7816162 0l-0.765625 0l0 -6.671875l0.828125 0l0 2.375q0.515625 -0.65625 1.3125 -0.65625q0.453125 0 0.84375 0.1875q0.40625 0.171875 0.65625 0.5q0.265625 0.328125 0.40625 0.796875q0.15625 0.453125 0.15625 0.984375q0 1.234375 -0.625 1.921875q-0.609375 0.671875 -1.46875 0.671875q-0.859375 0 -1.34375 -0.71875l0 0.609375zm-0.015625 -2.453125q0 0.875 0.234375 1.25q0.390625 0.640625 1.046875 0.640625q0.546875 0 0.9375 -0.46875q0.390625 -0.46875 0.390625 -1.390625q0 -0.953125 -0.375 -1.390625q-0.375 -0.453125 -0.90625 -0.453125q-0.546875 0 -0.9375 0.46875q-0.390625 0.453125 -0.390625 1.34375z" fill-rule="nonzero"/><path fill="#cfe2f3" d="m37.213966 27.763945c1.3675194 0 2.476097 1.1087837 2.476097 2.476305c0 1.3675213 -1.1085777 2.476101 -2.476097 2.476101c-1.3675232 0 -2.476307 -1.1085796 -2.476307 -2.476101c0 -1.3675213 1.1087837 -2.476305 2.476307 -2.476305zm-9.760447 2.476305c0 1.3675213 1.1085777 2.476101 2.476099 2.476101c1.3675213 0 2.476307 -1.1085796 2.476307 -2.476101c0 -1.3675213 -1.1087856 -2.476305 -2.476307 -2.476305c-1.3675213 0 -2.476099 1.1087837 -2.476099 2.476305zm-7.2843475 0c0 1.3675213 1.1087856 2.476101 2.476307 2.476101c1.3673134 0 2.476099 -1.1085796 2.476099 -2.476101c0 -1.3675213 -1.1087856 -2.476305 -2.476099 -2.476305c-1.3675213 0 -2.476307 1.1087837 -2.476307 2.476305z" fill-rule="evenodd"/><path fill="#cfe2f3" d="m38.872902 22.81154c1.8279114 0.11995697 3.4705086 0.90981865 4.6853943 2.1249104c1.3211937 1.3211937 2.1412506 3.148899 2.1412506 5.1675014c0 4.0372066 -3.2717514 7.308752 -7.308754 7.308752l-17.856575 0c-2.1493168 0 -4.096979 -0.8715553 -5.505452 -2.2800293c-1.4082651 -1.4082642 -2.2800293 -3.3561344 -2.2800293 -5.505451c0 -3.7728863 3.056447 -6.8293343 6.8293333 -6.8293343l18.818102 0c0.15801239 -0.0026874542 0.31871796 0.0026893616 0.47673035 0.013650894zm-4.1352425 7.428709c0 1.3675213 1.1087837 2.476101 2.476307 2.476101c1.3675194 0 2.476097 -1.1085796 2.476097 -2.476101c0 -1.3675213 -1.1085777 -2.476305 -2.476097 -2.476305c-1.3675232 0 -2.476307 1.1087837 -2.476307 2.476305zm-7.2841396 0c0 1.3675213 1.1085777 2.476101 2.476099 2.476101c1.3675213 0 2.476307 -1.1085796 2.476307 -2.476101c0 -1.3675213 -1.1087856 -2.476305 -2.476307 -2.476305c-1.3675213 0 -2.476099 1.1087837 -2.476099 2.476305zm-7.2843475 0c0 1.3675213 1.1087856 2.476101 2.476307 2.476101c1.3673134 0 2.476099 -1.1085796 2.476099 -2.476101c0 -1.3675213 -1.1087856 -2.476305 -2.476099 -2.476305c-1.3675213 0 -2.476307 1.1087837 -2.476307 2.476305zm15.347593 -16.12401l-5.7751503 0l-3.876299 8.68165l12.530855 0c0.16070175 0 0.3214035 0.005584717 0.48210907 0.016340256l0 -8.69799l-3.361515 0zm-26.271217 15.118845l0.2233696 1.3592491c0 0 -0.08169556 -0.054395676 -0.2233696 -0.14705276l0 0.6047535c0.13877869 -0.09265709 0.2233696 -0.14705086 0.2233696 -0.14705086l-0.16897488 1.0405312l2.6560354 0l0 -2.7077408l-2.7104301 0zm0 2.7077427l0 -0.8934803c-0.7437401 0.5011349 -3.0864367 2.1656532 -2.939385 3.1135292c0.17435265 1.1251259 2.3400083 1.7435265 2.3400083 1.7435265l0.64839363 -3.9635754l-0.049016953 0zm-2.936696 -4.611973c-0.14705229 0.948082 2.1956453 2.6123962 2.9393845 3.113737l0 -1.209507l-0.5966873 -3.6448612c-0.002688408 -0.0028953552 -2.1683445 0.6128197 -2.3426971 1.7406311z" fill-rule="evenodd"/><path fill="#cfe2f3" d="m39.37962 6.505111c0 1.4626603 -0.99441147 1.1712451 -0.99441147 1.1712451l-0.8742447 0l0 -2.3426971l0.8742447 0c0 0 0.99441147 0 0.99441147 1.171452zm-3.2498283 -1.171452c-1.6318398 0 -2.9530334 1.3211927 -2.9530334 2.9530354l0 5.8268566l2.3400078 0l0 -5.824168c0 -0.3379507 0.2752838 -0.6130266 0.61302567 -0.6130266l1.3838615 0l0 -2.3426971l-1.3838615 0z" fill-rule="evenodd"/><path fill="#000000" fill-opacity="0.0" d="m8.648862 25.587328c0 0 -2.165656 0.615715 -2.3400087 1.7435265c-0.14705229 0.948082 2.1956453 2.6123962 2.9393845 3.113737c0.13898563 0.092451096 0.22337055 0.14705276 0.22337055 0.14705276l-0.22337055 -1.3594551l-0.5993757 -3.6448612" fill-rule="evenodd"/><path fill="#000000" fill-opacity="0.0" d="m9.245549 31.049347c0.13877869 -0.09265709 0.2233696 -0.14725876 0.2233696 -0.14725876l-0.16897488 1.040739l-0.64839363 3.9635754c0 0 -2.1656556 -0.615715 -2.3400087 -1.7435265c-0.1524291 -0.947876 2.1902676 -2.6123943 2.9340076 -3.1135292z" fill-rule="evenodd"/><path fill="#000000" fill-opacity="0.0" d="m9.245549 29.235085l2.7077417 0l0 2.7077427l-2.7077417 0l0 -1.4982357z" fill-rule="evenodd"/><path fill="#000000" fill-opacity="0.0" d="m35.516766 14.11624l3.3588257 0l0 8.678963" fill-rule="evenodd"/><path fill="#000000" fill-opacity="0.0" d="m25.862629 22.795202l3.876297 -8.678963l3.4351425 0" fill-rule="evenodd"/><path fill="#000000" fill-opacity="0.0" d="m37.213966 32.71635c1.3666916 0 2.476097 -1.1094055 2.476097 -2.476101c0 -1.3666935 -1.1094055 -2.476305 -2.476097 -2.476305c-1.3666954 0 -2.476307 1.1096115 -2.476307 2.476305c0 1.3666954 1.1096115 2.476101 2.476307 2.476101" fill-rule="evenodd"/><path fill="#000000" fill-opacity="0.0" d="m29.929619 32.71635c1.3666935 0 2.476307 -1.1094055 2.476307 -2.476101c0 -1.3666935 -1.1096134 -2.476305 -2.476307 -2.476305c-1.3666935 0 -2.476099 1.1096115 -2.476099 2.476305c0 1.3666954 1.1094055 2.476101 2.476099 2.476101" fill-rule="evenodd"/><path fill="#000000" fill-opacity="0.0" d="m22.64548 27.763945c-1.3675213 0 -2.476307 1.1087837 -2.476307 2.476305c0 1.3675213 1.1087856 2.476101 2.476307 2.476101c1.3673134 0 2.476099 -1.1085796 2.476099 -2.476101c-0.0026893616 -1.3675213 -1.1087856 -2.476305 -2.476099 -2.476305z" fill-rule="evenodd"/><path fill="#000000" fill-opacity="0.0" d="m38.872902 22.81154c-0.15801239 -0.010961533 -0.31871796 -0.016338348 -0.48210907 -0.016338348l-18.815413 0c-3.7728853 0 -6.8293324 3.056446 -6.8293324 6.8293324c0 2.1493168 0.8715563 4.097187 2.2800293 5.505451c1.4082661 1.408268 3.3561344 2.2800293 5.505451 2.2800293l17.859264 0c4.0370026 0 7.308754 -3.2715416 7.308754 -7.30875c0 -2.0186043 -0.81716156 -3.8465157 -2.1412506 -5.1677094c-1.2148857 -1.2148838 -2.857483 -2.002058 -4.6853943 -2.122015z" fill-rule="evenodd"/><path fill="#000000" fill-opacity="0.0" d="m35.516766 14.11624l-2.3400078 0l0 -5.8268566c0 -1.6318426 1.3211937 -2.9530354 2.9530334 -2.9530354l2.258316 0c0 0 0.99420166 0 0.99420166 1.171452c0 1.4628673 -0.99420166 1.1712451 -0.99420166 1.1712451l-2.258316 0c-0.33774185 0 -0.61302567 0.27528286 -0.61302567 0.6130266l0 5.824168z" fill-rule="evenodd"/><path fill="#000000" fill-opacity="0.0" d="m37.510963 5.333659l0 2.3426971" fill-rule="evenodd"/><path stroke="#0b5394" stroke-width="1.0" stroke-linejoin="round" stroke-linecap="butt" d="m8.648862 25.587328c0 0 -2.165656 0.615715 -2.3400087 1.7435265c-0.14705229 0.948082 2.1956453 2.6123962 2.9393845 3.113737c0.13898563 0.092451096 0.22337055 0.14705276 0.22337055 0.14705276l-0.22337055 -1.3594551l-0.5993757 -3.6448612" fill-rule="evenodd"/><path stroke="#0b5394" stroke-width="1.0" stroke-linejoin="round" stroke-linecap="butt" d="m9.245549 31.049347c0.13877869 -0.09265709 0.2233696 -0.14725876 0.2233696 -0.14725876l-0.16897488 1.040739l-0.64839363 3.9635754c0 0 -2.1656556 -0.615715 -2.3400087 -1.7435265c-0.1524291 -0.947876 2.1902676 -2.6123943 2.9340076 -3.1135292z" fill-rule="evenodd"/><path stroke="#0b5394" stroke-width="1.0" stroke-linejoin="round" stroke-linecap="butt" d="m9.245549 29.235085l2.7077417 0l0 2.7077427l-2.7077417 0l0 -1.4982357z" fill-rule="evenodd"/><path stroke="#0b5394" stroke-width="1.0" stroke-linejoin="round" stroke-linecap="butt" d="m35.516766 14.11624l3.3588257 0l0 8.678963" fill-rule="evenodd"/><path stroke="#0b5394" stroke-width="1.0" stroke-linejoin="round" stroke-linecap="butt" d="m25.862629 22.795202l3.876297 -8.678963l3.4351425 0" fill-rule="evenodd"/><path stroke="#0b5394" stroke-width="1.0" stroke-linejoin="round" stroke-linecap="butt" d="m37.213966 32.71635c1.3666916 0 2.476097 -1.1094055 2.476097 -2.476101c0 -1.3666935 -1.1094055 -2.476305 -2.476097 -2.476305c-1.3666954 0 -2.476307 1.1096115 -2.476307 2.476305c0 1.3666954 1.1096115 2.476101 2.476307 2.476101" fill-rule="evenodd"/><path stroke="#0b5394" stroke-width="1.0" stroke-linejoin="round" stroke-linecap="butt" d="m29.929619 32.71635c1.3666935 0 2.476307 -1.1094055 2.476307 -2.476101c0 -1.3666935 -1.1096134 -2.476305 -2.476307 -2.476305c-1.3666935 0 -2.476099 1.1096115 -2.476099 2.476305c0 1.3666954 1.1094055 2.476101 2.476099 2.476101" fill-rule="evenodd"/><path stroke="#0b5394" stroke-width="1.0" stroke-linejoin="round" stroke-linecap="butt" d="m22.64548 27.763945c-1.3675213 0 -2.476307 1.1087837 -2.476307 2.476305c0 1.3675213 1.1087856 2.476101 2.476307 2.476101c1.3673134 0 2.476099 -1.1085796 2.476099 -2.476101c-0.0026893616 -1.3675213 -1.1087856 -2.476305 -2.476099 -2.476305z" fill-rule="evenodd"/><path stroke="#0b5394" stroke-width="1.0" stroke-linejoin="round" stroke-linecap="butt" d="m38.872902 22.81154c-0.15801239 -0.010961533 -0.31871796 -0.016338348 -0.48210907 -0.016338348l-18.815413 0c-3.7728853 0 -6.8293324 3.056446 -6.8293324 6.8293324c0 2.1493168 0.8715563 4.097187 2.2800293 5.505451c1.4082661 1.408268 3.3561344 2.2800293 5.505451 2.2800293l17.859264 0c4.0370026 0 7.308754 -3.2715416 7.308754 -7.30875c0 -2.0186043 -0.81716156 -3.8465157 -2.1412506 -5.1677094c-1.2148857 -1.2148838 -2.857483 -2.002058 -4.6853943 -2.122015z" fill-rule="evenodd"/><path stroke="#0b5394" stroke-width="1.0" stroke-linejoin="round" stroke-linecap="butt" d="m35.516766 14.11624l-2.3400078 0l0 -5.8268566c0 -1.6318426 1.3211937 -2.9530354 2.9530334 -2.9530354l2.258316 0c0 0 0.99420166 0 0.99420166 1.171452c0 1.4628673 -0.99420166 1.1712451 -0.99420166 1.1712451l-2.258316 0c-0.33774185 0 -0.61302567 0.27528286 -0.61302567 0.6130266l0 5.824168z" fill-rule="evenodd"/><path stroke="#0b5394" stroke-width="1.0" stroke-linejoin="round" stroke-linecap="butt" d="m37.510963 5.333659l0 2.3426971" fill-rule="evenodd"/><path fill="#000000" fill-opacity="0.0" d="m14.105871 3.521721l38.3937 0l0 30.70866l-38.3937 0z" fill-rule="evenodd"/><path fill="#0b5394" d="m31.099413 19.716095l0.828125 -0.109375q0.1406231 0.703125 0.4687481 1.015625q0.34375 0.296875 0.828125 0.296875q0.578125 0 0.96875 -0.390625q0.40625 -0.40625 0.40625 -1.0q0 -0.5625 -0.375 -0.921875q-0.359375 -0.375 -0.921875 -0.375q-0.234375 0 -0.578125 0.09375l0.078125 -0.71875q0.09375 0 0.140625 0q0.515625 0 0.9375 -0.265625q0.421875 -0.28125 0.421875 -0.84375q0 -0.453125 -0.3125 -0.75q-0.296875 -0.296875 -0.78125 -0.296875q-0.484375 0 -0.796875 0.3125q-0.3125 0.296875 -0.40625 0.890625l-0.8281231 -0.140625q0.15625 -0.828125 0.6875 -1.28125q0.5312481 -0.453125 1.3281231 -0.453125q0.546875 0 1.0 0.234375q0.46875 0.234375 0.703125 0.640625q0.25 0.40625 0.25 0.859375q0 0.4375 -0.234375 0.796875q-0.234375 0.34375 -0.6875 0.5625q0.59375 0.125 0.921875 0.5625q0.328125 0.421875 0.328125 1.078125q0 0.875 -0.640625 1.484375q-0.640625 0.609375 -1.609375 0.609375q-0.875 0 -1.4687481 -0.515625q-0.578125 -0.53125 -0.65625 -1.375z" fill-rule="nonzero"/></g></svg>