<svg version="1.1" viewBox="0.0 0.0 52.0 80.0" fill="none" stroke="none" stroke-linecap="square" stroke-miterlimit="10" xmlns:xlink="http://www.w3.org/1999/xlink" xmlns="http://www.w3.org/2000/svg"><clipPath id="p.0"><path d="m0 0l52.0 0l0 80.0l-52.0 0l0 -80.0z" clip-rule="nonzero"/></clipPath><g clip-path="url(#p.0)"><path fill="#c9daf8" d="m0 0l52.0 0l0 80.0l-52.0 0z" fill-rule="evenodd"/><path fill="#000000" fill-opacity="0.0" d="m-9.133859 34.700787l70.67717 0l0 53.322834l-70.67717 0z" fill-rule="evenodd"/><path fill="#0b5394" d="m12.283513 52.660786l-1.78125 -6.671875l0.90625 0l1.015625 4.375q0.171875 0.6875 0.28125 1.359375q0.265625 -1.0625 0.3125 -1.234375l1.265625 -4.5l1.0625 0l0.95312595 3.375q0.359375 1.25 0.53125 2.359375q0.125 -0.625 0.328125 -1.453125l1.046875 -4.28125l0.890625 0l-1.828125 6.671875l-0.859375 0l-1.406251 -5.09375q-0.171875 -0.625 -0.203125 -0.78125q-0.109375 0.46875 -0.203125 0.78125l-1.421875 5.09375l-0.890625 0zm7.5387125 -5.734375l0 -0.9375l0.8125 0l0 0.9375l-0.8125 0zm0 5.734375l0 -4.84375l0.8125 0l0 4.84375l-0.8125 0zm2.0567932 0l0 -4.84375l0.75 0l0 0.6875q0.5312519 -0.796875 1.5312519 -0.796875q0.4375 0 0.796875 0.171875q0.375 0.15625 0.546875 0.40625q0.1875 0.25 0.265625 0.609375q0.046875 0.21875 0.046875 0.796875l0 2.96875l-0.828125 0l0 -2.9375q0 -0.5 -0.09375 -0.75q-0.09375 -0.25 -0.34375 -0.390625q-0.234375 -0.15625 -0.5625 -0.15625q-0.515625 0 -0.90625 0.328125q-0.3750019 0.328125 -0.3750019 1.265625l0 2.640625l-0.828125 0zm9.576403 -0.734375l0.109375 0.71875q-0.34375 0.078125 -0.609375 0.078125q-0.453125 0 -0.703125 -0.140625q-0.234375 -0.140625 -0.34375 -0.359375q-0.09375 -0.234375 -0.09375 -0.984375l0 -2.78125l-0.609375 0l0 -0.640625l0.609375 0l0 -1.1875l0.8125 -0.5l0 1.6875l0.828125 0l0 0.640625l-0.828125 0l0 2.828125q0 0.359375 0.046875 0.46875q0.046875 0.09375 0.140625 0.15625q0.09375 0.046875 0.28125 0.046875q0.140625 0 0.359375 -0.03125zm0.79478455 0.734375l0 -6.671875l0.828125 0l0 2.390625q0.578125 -0.671875 1.453125 -0.671875q0.53125 0 0.921875 0.21875q0.40625 0.21875 0.578125 0.59375q0.171875 0.359375 0.171875 1.078125l0 3.0625l-0.828125 0l0 -3.0625q0 -0.625 -0.265625 -0.890625q-0.265625 -0.28125 -0.75 -0.28125q-0.375 0 -0.703125 0.1875q-0.3125 0.1875 -0.453125 0.515625q-0.125 0.3125 -0.125 0.890625l0 2.640625l-0.828125 0zm8.500366 -1.5625l0.84375 0.109375q-0.1875 0.75 -0.734375 1.15625q-0.546875 0.40625 -1.390625 0.40625q-1.0625 0 -1.6875 -0.65625q-0.609375 -0.65625 -0.609375 -1.828125q0 -1.21875 0.625 -1.890625q0.625 -0.6875 1.625 -0.6875q0.984375 0 1.59375 0.671875q0.609375 0.65625 0.609375 1.859375q0 0.0625 0 0.21875l-3.609375 0q0.046875 0.796875 0.453125 1.21875q0.40625 0.421875 1.015625 0.421875q0.453125 0 0.765625 -0.234375q0.3125 -0.234375 0.5 -0.765625zm-2.6875 -1.328125l2.703125 0q-0.0625 -0.609375 -0.3125 -0.90625q-0.390625 -0.46875 -1.015625 -0.46875q-0.5625 0 -0.953125 0.375q-0.375 0.375 -0.421875 1.0z" fill-rule="nonzero"/><path fill="#0b5394" d="m9.961507 65.72016l0 -6.703125l0.75 0l0 0.640625q0.265625 -0.375 0.59375 -0.5625q0.34375 -0.1875 0.8125 -0.1875q0.625 0 1.09375 0.328125q0.46875 0.3125 0.703125 0.90625q0.25 0.578125 0.25 1.265625q0 0.734375 -0.265625 1.328125q-0.265625 0.59375 -0.78125 0.921875q-0.5 0.3125 -1.0625 0.3125q-0.40625 0 -0.734375 -0.171875q-0.328125 -0.171875 -0.53125 -0.4375l0 2.359375l-0.828125 0zm0.75 -4.25q0 0.9375 0.375 1.390625q0.375 0.4375 0.921875 0.4375q0.546875 0 0.921875 -0.453125q0.390625 -0.46875 0.390625 -1.4375q0 -0.9375 -0.375 -1.390625q-0.375 -0.453125 -0.90625 -0.453125q-0.53125 0 -0.9375 0.484375q-0.390625 0.484375 -0.390625 1.421875zm4.453491 -3.34375l0 -0.9375l0.8125 0l0 0.9375l-0.8125 0zm0 5.734375l0 -4.84375l0.8125 0l0 4.84375l-0.8125 0zm2.0567942 0l0 -4.84375l0.75 0l0 0.6875q0.53125 -0.796875 1.53125 -0.796875q0.4375 0 0.796875 0.171875q0.375 0.15625 0.546875 0.40625q0.1875 0.25 0.265625 0.609375q0.046875 0.21875 0.046875 0.796875l0 2.96875l-0.828125 0l0 -2.9375q0 -0.5 -0.09375 -0.75q-0.09375 -0.25 -0.34375 -0.390625q-0.234375 -0.15625 -0.5625 -0.15625q-0.515625 0 -0.90625 0.328125q-0.375 0.328125 -0.375 1.265625l0 2.640625l-0.828125 0zm5.203491 0l0 -6.671875l0.8125019 0l0 3.796875l1.9375 -1.96875l1.0625 0l-1.84375 1.796875l2.03125 3.046875l-1.015625 0l-1.59375 -2.46875l-0.578125 0.546875l0 1.921875l-0.8125019 0zm7.146349 -1.546875l0.78125 -0.0625q0.09375 0.546875 0.375 0.796875q0.296875 0.25 0.734375 0.25q0.375 0 0.65625 -0.171875q0.296875 -0.171875 0.46875 -0.453125q0.1875 -0.296875 0.3125 -0.78125q0.125 -0.5 0.125 -1.015625q0 -0.046875 -0.015625 -0.15625q-0.234375 0.390625 -0.671875 0.640625q-0.421875 0.234375 -0.921875 0.234375q-0.828125 0 -1.40625 -0.59375q-0.5625 -0.609375 -0.5625 -1.59375q0 -1.015625 0.59375 -1.625q0.59375 -0.625 1.5 -0.625q0.65625 0 1.1875 0.359375q0.546875 0.34375 0.828125 1.0q0.28125 0.640625 0.28125 1.875q0 1.265625 -0.28125 2.03125q-0.28125 0.765625 -0.828125 1.15625q-0.546875 0.390625 -1.28125 0.390625q-0.78125 0 -1.28125 -0.421875q-0.5 -0.4375 -0.59375 -1.234375zm3.34375 -2.9375q0 -0.71875 -0.375 -1.125q-0.375 -0.421875 -0.890625 -0.421875q-0.546875 0 -0.953125 0.453125q-0.40625 0.4375 -0.40625 1.15625q0 0.640625 0.375 1.046875q0.390625 0.390625 0.953125 0.390625q0.578125 0 0.9375 -0.390625q0.359375 -0.40625 0.359375 -1.109375zm8.357651 3.703125q-0.40625 0.4375 -0.890625 0.671875q-0.484375 0.21875 -1.03125 0.21875q-1.03125 0 -1.625 -0.6875q-0.484375 -0.5625 -0.484375 -1.265625q0 -0.609375 0.390625 -1.109375q0.40625 -0.5 1.1875 -0.875q-0.4375 -0.53125 -0.59375 -0.84375q-0.15625 -0.328125 -0.15625 -0.625q0 -0.609375 0.46875 -1.046875q0.484375 -0.453125 1.1875 -0.453125q0.6875 0 1.125 0.421875q0.4375 0.421875 0.4375 1.015625q0 0.953125 -1.265625 1.625l1.203125 1.515625q0.203125 -0.390625 0.3125 -0.921875l0.859375 0.1875q-0.21875 0.859375 -0.59375 1.4375q0.453125 0.609375 1.03125 1.015625l-0.546875 0.65625q-0.5 -0.3125 -1.015625 -0.9375zm-1.671875 -3.484375q0.53125 -0.3125 0.6875 -0.546875q0.15625 -0.25 0.15625 -0.53125q0 -0.34375 -0.21875 -0.546875q-0.21875 -0.21875 -0.53125 -0.21875q-0.34375 0 -0.5625 0.21875q-0.21875 0.203125 -0.21875 0.515625q0 0.15625 0.078125 0.328125q0.078125 0.171875 0.25 0.359375l0.359375 0.421875zm1.15625 2.828125l-1.515625 -1.859375q-0.65625 0.390625 -0.890625 0.734375q-0.234375 0.34375 -0.234375 0.671875q0 0.40625 0.328125 0.84375q0.328125 0.4375 0.90625 0.4375q0.375 0 0.765625 -0.234375q0.40625 -0.234375 0.640625 -0.59375z" fill-rule="nonzero"/><path fill="#0b5394" d="m9.93253 76.92016l-0.09375 -0.765625q0.265625 0.078125 0.46875 0.078125q0.28125 0 0.4375 -0.09375q0.171875 -0.09375 0.265625 -0.265625q0.078125 -0.109375 0.25 -0.609375q0.03125 -0.0625 0.078125 -0.1875l-1.828125 -4.859375l0.875 0l1.015625 2.8125q0.1875 0.53125 0.34375 1.109375q0.140625 -0.5625 0.34375 -1.09375l1.03125 -2.828125l0.8125 0l-1.84375 4.921875q-0.28125 0.796875 -0.453125 1.09375q-0.21875 0.40625 -0.5 0.59375q-0.28125 0.203125 -0.671875 0.203125q-0.234375 0 -0.53125 -0.109375zm8.007813 -3.421875l0.84375 0.109375q-0.1875 0.75 -0.734375 1.15625q-0.546875 0.40625 -1.390625 0.40625q-1.062501 0 -1.687501 -0.65625q-0.609375 -0.65625 -0.609375 -1.828125q0 -1.21875 0.625 -1.890625q0.625 -0.6875 1.625001 -0.6875q0.984375 0 1.59375 0.671875q0.609375 0.65625 0.609375 1.859375q0 0.0625 0 0.21875l-3.609376 0q0.046875 0.796875 0.453125 1.21875q0.40625095 0.421875 1.015626 0.421875q0.453125 0 0.765625 -0.234375q0.3125 -0.234375 0.5 -0.765625zm-2.687501 -1.328125l2.703126 0q-0.0625 -0.609375 -0.3125 -0.90625q-0.390625 -0.46875 -1.015625 -0.46875q-0.5625 0 -0.95312595 0.375q-0.375 0.375 -0.421875 1.0zm4.547242 2.890625l0 -6.671875l0.828125 0l0 6.671875l-0.828125 0zm2.0724182 0l0 -6.671875l0.828125 0l0 6.671875l-0.828125 0zm1.7911701 -2.421875q0 -1.34375 0.75 -1.984375q0.625 -0.546875 1.515625 -0.546875q1.0 0 1.625 0.65625q0.640625 0.65625 0.640625 1.8125q0 0.9375 -0.28125 1.46875q-0.28125 0.53125 -0.8125 0.828125q-0.53125 0.296875 -1.171875 0.296875q-1.015625 0 -1.640625 -0.640625q-0.625 -0.65625 -0.625 -1.890625zm0.84375 0q0 0.9375 0.40625 1.40625q0.40625 0.453125 1.015625 0.453125q0.609375 0 1.015625 -0.46875q0.40625 -0.46875 0.40625 -1.421875q0 -0.890625 -0.40625 -1.34375q-0.40625 -0.46875 -1.015625 -0.46875q-0.609375 0 -1.015625 0.46875q-0.40625 0.453125 -0.40625 1.375zm5.531616 2.421875l-1.46875 -4.84375l0.84375 0l0.765625 2.796875l0.296875 1.046875q0.015625 -0.078125 0.25 -1.0l0.765625 -2.84375l0.84375 0l0.71875 2.8125l0.25 0.921875l0.265625 -0.9375l0.828125 -2.796875l0.796875 0l-1.5 4.84375l-0.859375 0l-0.765625 -2.890625l-0.1875 -0.828125l-0.984375 3.71875l-0.859375 0zm9.48439 -3.625q-0.515625 -0.1875 -0.765625 -0.53125q-0.25 -0.34375 -0.25 -0.828125q0 -0.734375 0.515625 -1.21875q0.53125 -0.5 1.40625 -0.5q0.875 0 1.40625 0.515625q0.53125 0.5 0.53125 1.234375q0 0.453125 -0.25 0.796875q-0.234375 0.34375 -0.734375 0.53125q0.625 0.203125 0.9375 0.65625q0.328125 0.4375 0.328125 1.0625q0 0.859375 -0.609375 1.4375q-0.609375 0.578125 -1.59375 0.578125q-0.984375 0 -1.59375 -0.578125q-0.609375 -0.59375 -0.609375 -1.46875q0 -0.640625 0.328125 -1.078125q0.328125 -0.453125 0.953125 -0.609375zm-0.171875 -1.390625q0 0.484375 0.296875 0.78125q0.3125 0.296875 0.796875 0.296875q0.484375 0 0.78125 -0.296875q0.296875 -0.296875 0.296875 -0.734375q0 -0.453125 -0.3125 -0.75q-0.3125 -0.3125 -0.765625 -0.3125q-0.46875 0 -0.78125 0.3125q-0.3125 0.296875 -0.3125 0.703125zm-0.265625 3.09375q0 0.34375 0.15625 0.671875q0.171875 0.328125 0.5 0.515625q0.328125 0.171875 0.71875 0.171875q0.578125 0 0.953125 -0.375q0.390625 -0.375 0.390625 -0.96875q0 -0.578125 -0.390625 -0.96875q-0.390625 -0.390625 -0.984375 -0.390625q-0.578125 0 -0.96875 0.390625q-0.375 0.375 -0.375 0.953125z" fill-rule="nonzero"/><path fill="#ff00ff" d="m6.8604236 16.900387l14.929132 0l0 22.3937l-14.929132 0z" fill-rule="evenodd"/><path fill="#000000" fill-opacity="0.0" d="m-5.21332 16.90681l37.76378 0l0 22.299213l-37.76378 0z" fill-rule="evenodd"/><path fill="#ffffff" d="m8.909597 32.205166l1.796875 -0.171875q0.234375 1.28125 0.875 1.859375q0.640625 0.5625 1.65625 0.5625q0.859375 0 1.515625 -0.390625q0.65625 -0.40625 1.0625 -1.0625q0.421875 -0.65625 0.703125 -1.7812481q0.28125 -1.125 0.28125 -2.296875q0 -0.125 -0.015625 -0.375q-0.5625 0.890625 -1.53125 1.453125q-0.96875 0.5625 -2.109375 0.5625q-1.890625 0 -3.203125 -1.375q-1.3125 -1.375 -1.3125 -3.625q0 -2.328125 1.359375 -3.734375q1.375 -1.421875 3.4375 -1.421875q1.484375 0 2.71875 0.8125q1.234375 0.796875 1.875 2.28125q0.640625 1.484375 0.640625 4.28125q0 2.9375 -0.640625 4.671873q-0.625 1.734375 -1.890625 2.640625q-1.25 0.90625 -2.9375 0.90625q-1.78125 0 -2.921875 -1.0q-1.140625 -1.0 -1.359375 -2.796875zm7.671875 -6.734373q0 -1.609375 -0.859375 -2.5625q-0.859375 -0.953125 -2.0625 -0.953125q-1.25 0 -2.1875 1.03125q-0.921875 1.015625 -0.921875 2.640625q0 1.453125 0.875 2.375q0.890625 0.90625 2.171875 0.90625q1.3125 0 2.140625 -0.90625q0.84375 -0.921875 0.84375 -2.53125z" fill-rule="nonzero"/><path fill="#ffd966" d="m31.522943 16.900387l14.96063 0l0 22.3937l-14.96063 0z" fill-rule="evenodd"/><path fill="#000000" fill-opacity="0.0" d="m19.4492 16.90681l37.76378 0l0 22.299213l-37.76378 0z" fill-rule="evenodd"/><path fill="#ffffff" d="m36.165867 27.455168q-1.15625 -0.421875 -1.71875 -1.21875q-0.5625 -0.796875 -0.5625 -1.890625q0 -1.671875 1.1875 -2.796875q1.203125 -1.140625 3.1875 -1.140625q2.0 0 3.21875 1.171875q1.21875 1.15625 1.21875 2.8125q0 1.0625 -0.5625 1.859375q-0.546875 0.78125 -1.6875 1.203125q1.40625 0.453125 2.140625 1.484375q0.734375 1.015625 0.734375 2.4375q0 1.9531231 -1.390625 3.296873q-1.375 1.328125 -3.640625 1.328125q-2.25 0 -3.640625 -1.34375q-1.390625 -1.34375 -1.390625 -3.343748q0 -1.484375 0.75 -2.484375q0.765625 -1.015625 2.15625 -1.375zm-0.375 -3.171875q0 1.078125 0.703125 1.765625q0.703125 0.6875 1.8125 0.6875q1.078125 0 1.765625 -0.671875q0.703125 -0.6875 0.703125 -1.671875q0 -1.03125 -0.71875 -1.734375q-0.703125 -0.703125 -1.765625 -0.703125q-1.078125 0 -1.796875 0.6875q-0.703125 0.6875 -0.703125 1.640625zm-0.59375 7.046875q0 0.7968731 0.375 1.5468731q0.375 0.75 1.125 1.171875q0.75 0.40625 1.625 0.40625q1.34375 0 2.21875 -0.859375q0.875 -0.875 0.875 -2.203123q0 -1.359375 -0.90625 -2.234375q-0.90625 -0.890625 -2.25 -0.890625q-1.328125 0 -2.203125 0.875q-0.859375 0.875 -0.859375 2.1875z" fill-rule="nonzero"/></g></svg>