<svg version="1.1" viewBox="0.0 0.0 52.0 80.0" fill="none" stroke="none" stroke-linecap="square" stroke-miterlimit="10" xmlns:xlink="http://www.w3.org/1999/xlink" xmlns="http://www.w3.org/2000/svg"><clipPath id="p.0"><path d="m0 0l52.0 0l0 80.0l-52.0 0l0 -80.0z" clip-rule="nonzero"/></clipPath><g clip-path="url(#p.0)"><path fill="#c9daf8" d="m0 0l52.0 0l0 80.0l-52.0 0z" fill-rule="evenodd"/><path fill="#000000" fill-opacity="0.0" d="m-9.133859 34.700787l70.67717 0l0 53.322834l-70.67717 0z" fill-rule="evenodd"/><path fill="#0b5394" d="m12.283513 52.660786l-1.78125 -6.671875l0.90625 0l1.015625 4.375q0.171875 0.6875 0.28125 1.359375q0.265625 -1.0625 0.3125 -1.234375l1.265625 -4.5l1.0625 0l0.95312595 3.375q0.359375 1.25 0.53125 2.359375q0.125 -0.625 0.328125 -1.453125l1.046875 -4.28125l0.890625 0l-1.828125 6.671875l-0.859375 0l-1.406251 -5.09375q-0.171875 -0.625 -0.203125 -0.78125q-0.109375 0.46875 -0.203125 0.78125l-1.421875 5.09375l-0.890625 0zm7.5387125 -5.734375l0 -0.9375l0.8125 0l0 0.9375l-0.8125 0zm0 5.734375l0 -4.84375l0.8125 0l0 4.84375l-0.8125 0zm2.0567932 0l0 -4.84375l0.75 0l0 0.6875q0.5312519 -0.796875 1.5312519 -0.796875q0.4375 0 0.796875 0.171875q0.375 0.15625 0.546875 0.40625q0.1875 0.25 0.265625 0.609375q0.046875 0.21875 0.046875 0.796875l0 2.96875l-0.828125 0l0 -2.9375q0 -0.5 -0.09375 -0.75q-0.09375 -0.25 -0.34375 -0.390625q-0.234375 -0.15625 -0.5625 -0.15625q-0.515625 0 -0.90625 0.328125q-0.3750019 0.328125 -0.3750019 1.265625l0 2.640625l-0.828125 0zm9.576403 -0.734375l0.109375 0.71875q-0.34375 0.078125 -0.609375 0.078125q-0.453125 0 -0.703125 -0.140625q-0.234375 -0.140625 -0.34375 -0.359375q-0.09375 -0.234375 -0.09375 -0.984375l0 -2.78125l-0.609375 0l0 -0.640625l0.609375 0l0 -1.1875l0.8125 -0.5l0 1.6875l0.828125 0l0 0.640625l-0.828125 0l0 2.828125q0 0.359375 0.046875 0.46875q0.046875 0.09375 0.140625 0.15625q0.09375 0.046875 0.28125 0.046875q0.140625 0 0.359375 -0.03125zm0.79478455 0.734375l0 -6.671875l0.828125 0l0 2.390625q0.578125 -0.671875 1.453125 -0.671875q0.53125 0 0.921875 0.21875q0.40625 0.21875 0.578125 0.59375q0.171875 0.359375 0.171875 1.078125l0 3.0625l-0.828125 0l0 -3.0625q0 -0.625 -0.265625 -0.890625q-0.265625 -0.28125 -0.75 -0.28125q-0.375 0 -0.703125 0.1875q-0.3125 0.1875 -0.453125 0.515625q-0.125 0.3125 -0.125 0.890625l0 2.640625l-0.828125 0zm8.500366 -1.5625l0.84375 0.109375q-0.1875 0.75 -0.734375 1.15625q-0.546875 0.40625 -1.390625 0.40625q-1.0625 0 -1.6875 -0.65625q-0.609375 -0.65625 -0.609375 -1.828125q0 -1.21875 0.625 -1.890625q0.625 -0.6875 1.625 -0.6875q0.984375 0 1.59375 0.671875q0.609375 0.65625 0.609375 1.859375q0 0.0625 0 0.21875l-3.609375 0q0.046875 0.796875 0.453125 1.21875q0.40625 0.421875 1.015625 0.421875q0.453125 0 0.765625 -0.234375q0.3125 -0.234375 0.5 -0.765625zm-2.6875 -1.328125l2.703125 0q-0.0625 -0.609375 -0.3125 -0.90625q-0.390625 -0.46875 -1.015625 -0.46875q-0.5625 0 -0.953125 0.375q-0.375 0.375 -0.421875 1.0z" fill-rule="nonzero"/><path fill="#0b5394" d="m9.961507 65.72016l0 -6.703125l0.75 0l0 0.640625q0.265625 -0.375 0.59375 -0.5625q0.34375 -0.1875 0.8125 -0.1875q0.625 0 1.09375 0.328125q0.46875 0.3125 0.703125 0.90625q0.25 0.578125 0.25 1.265625q0 0.734375 -0.265625 1.328125q-0.265625 0.59375 -0.78125 0.921875q-0.5 0.3125 -1.0625 0.3125q-0.40625 0 -0.734375 -0.171875q-0.328125 -0.171875 -0.53125 -0.4375l0 2.359375l-0.828125 0zm0.75 -4.25q0 0.9375 0.375 1.390625q0.375 0.4375 0.921875 0.4375q0.546875 0 0.921875 -0.453125q0.390625 -0.46875 0.390625 -1.4375q0 -0.9375 -0.375 -1.390625q-0.375 -0.453125 -0.90625 -0.453125q-0.53125 0 -0.9375 0.484375q-0.390625 0.484375 -0.390625 1.421875zm4.453491 -3.34375l0 -0.9375l0.8125 0l0 0.9375l-0.8125 0zm0 5.734375l0 -4.84375l0.8125 0l0 4.84375l-0.8125 0zm2.0567942 0l0 -4.84375l0.75 0l0 0.6875q0.53125 -0.796875 1.53125 -0.796875q0.4375 0 0.796875 0.171875q0.375 0.15625 0.546875 0.40625q0.1875 0.25 0.265625 0.609375q0.046875 0.21875 0.046875 0.796875l0 2.96875l-0.828125 0l0 -2.9375q0 -0.5 -0.09375 -0.75q-0.09375 -0.25 -0.34375 -0.390625q-0.234375 -0.15625 -0.5625 -0.15625q-0.515625 0 -0.90625 0.328125q-0.375 0.328125 -0.375 1.265625l0 2.640625l-0.828125 0zm5.203491 0l0 -6.671875l0.8125019 0l0 3.796875l1.9375 -1.96875l1.0625 0l-1.84375 1.796875l2.03125 3.046875l-1.015625 0l-1.59375 -2.46875l-0.578125 0.546875l0 1.921875l-0.8125019 0zm10.099474 0l-0.8125 0l0 -5.21875q-0.296875 0.28125 -0.78125 0.5625q-0.484375 0.28125 -0.859375 0.421875l0 -0.796875q0.6875 -0.328125 1.203125 -0.78125q0.515625 -0.453125 0.734375 -0.890625l0.515625 0l0 6.703125zm8.748276 -0.78125q-0.40625 0.4375 -0.890625 0.671875q-0.484375 0.21875 -1.03125 0.21875q-1.03125 0 -1.625 -0.6875q-0.484375 -0.5625 -0.484375 -1.265625q0 -0.609375 0.390625 -1.109375q0.40625 -0.5 1.1875 -0.875q-0.4375 -0.53125 -0.59375 -0.84375q-0.15625 -0.328125 -0.15625 -0.625q0 -0.609375 0.46875 -1.046875q0.484375 -0.453125 1.1875 -0.453125q0.6875 0 1.125 0.421875q0.4375 0.421875 0.4375 1.015625q0 0.953125 -1.265625 1.625l1.203125 1.515625q0.203125 -0.390625 0.3125 -0.921875l0.859375 0.1875q-0.21875 0.859375 -0.59375 1.4375q0.453125 0.609375 1.03125 1.015625l-0.546875 0.65625q-0.5 -0.3125 -1.015625 -0.9375zm-1.671875 -3.484375q0.53125 -0.3125 0.6875 -0.546875q0.15625 -0.25 0.15625 -0.53125q0 -0.34375 -0.21875 -0.546875q-0.21875 -0.21875 -0.53125 -0.21875q-0.34375 0 -0.5625 0.21875q-0.21875 0.203125 -0.21875 0.515625q0 0.15625 0.078125 0.328125q0.078125 0.171875 0.25 0.359375l0.359375 0.421875zm1.15625 2.828125l-1.515625 -1.859375q-0.65625 0.390625 -0.890625 0.734375q-0.234375 0.34375 -0.234375 0.671875q0 0.40625 0.328125 0.84375q0.328125 0.4375 0.90625 0.4375q0.375 0 0.765625 -0.234375q0.40625 -0.234375 0.640625 -0.59375z" fill-rule="nonzero"/><path fill="#0b5394" d="m10.85481 75.46703l0.796875 0.109375q0.046875 0.375 0.28125 0.546875q0.296875 0.21875 0.828125 0.21875q0.5625 0 0.875 -0.234375q0.3125 -0.21875 0.421875 -0.625q0.0625 -0.25 0.0625 -1.0625q-0.546875 0.640625 -1.34375 0.640625q-1.0 0 -1.546875 -0.71875q-0.546875 -0.71875 -0.546875 -1.734375q0 -0.6875 0.25 -1.265625q0.25 -0.59375 0.71875 -0.90625q0.484375 -0.328125 1.125 -0.328125q0.859375 0 1.421875 0.703125l0 -0.59375l0.75 0l0 4.1875q0 1.125 -0.234375 1.59375q-0.21875 0.484375 -0.71875 0.75q-0.5 0.28125 -1.234375 0.28125q-0.859375 0 -1.390625 -0.390625q-0.53125 -0.390625 -0.515625 -1.171875zm0.671875 -2.90625q0 0.953125 0.375 1.390625q0.390625 0.4375 0.953125 0.4375q0.5625 0 0.9375 -0.4375q0.390625 -0.4375 0.390625 -1.375q0 -0.875 -0.390625 -1.328125q-0.390625 -0.453125 -0.953125 -0.453125q-0.546875 0 -0.9375 0.453125q-0.375 0.4375 -0.375 1.3125zm4.656617 2.5l0 -4.84375l0.734375 0l0 0.734375q0.28125 -0.515625 0.515625 -0.671875q0.25 -0.171875 0.53125 -0.171875q0.421875 0 0.84375 0.265625l-0.28125 0.765625q-0.296875 -0.171875 -0.609375 -0.171875q-0.265625 0 -0.484375 0.15625q-0.203125 0.15625 -0.296875 0.453125q-0.140625 0.4375 -0.140625 0.953125l0 2.53125l-0.8125 0zm6.4188385 -1.5625l0.8437519 0.109375q-0.1875 0.75 -0.7343769 1.15625q-0.546875 0.40625 -1.390625 0.40625q-1.0625 0 -1.6875 -0.65625q-0.609375 -0.65625 -0.609375 -1.828125q0 -1.21875 0.625 -1.890625q0.625 -0.6875 1.625 -0.6875q0.984375 0 1.5937519 0.671875q0.609375 0.65625 0.609375 1.859375q0 0.0625 0 0.21875l-3.609377 0q0.046875 0.796875 0.453125 1.21875q0.40625 0.421875 1.015625 0.421875q0.453125 0 0.765625 -0.234375q0.3125 -0.234375 0.5 -0.765625zm-2.6875 -1.328125l2.703125 0q-0.0625 -0.609375 -0.3125 -0.90625q-0.390625 -0.46875 -1.015625 -0.46875q-0.5625 0 -0.953125 0.375q-0.375 0.375 -0.421875 1.0zm7.875368 1.328125l0.84375 0.109375q-0.1875 0.75 -0.734375 1.15625q-0.546875 0.40625 -1.390625 0.40625q-1.0625 0 -1.6875 -0.65625q-0.609375 -0.65625 -0.609375 -1.828125q0 -1.21875 0.625 -1.890625q0.625 -0.6875 1.625 -0.6875q0.984375 0 1.59375 0.671875q0.609375 0.65625 0.609375 1.859375q0 0.0625 0 0.21875l-3.609375 0q0.046875 0.796875 0.453125 1.21875q0.40625 0.421875 1.015625 0.421875q0.453125 0 0.765625 -0.234375q0.3125 -0.234375 0.5 -0.765625zm-2.6875 -1.328125l2.703125 0q-0.0625 -0.609375 -0.3125 -0.90625q-0.390625 -0.46875 -1.015625 -0.46875q-0.5625 0 -0.953125 0.375q-0.375 0.375 -0.421875 1.0zm4.562866 2.890625l0 -4.84375l0.75 0l0 0.6875q0.53125 -0.796875 1.53125 -0.796875q0.4375 0 0.796875 0.171875q0.375 0.15625 0.546875 0.40625q0.1875 0.25 0.265625 0.609375q0.046875 0.21875 0.046875 0.796875l0 2.96875l-0.828125 0l0 -2.9375q0 -0.5 -0.09375 -0.75q-0.09375 -0.25 -0.34375 -0.390625q-0.234375 -0.15625 -0.5625 -0.15625q-0.515625 0 -0.90625 0.328125q-0.375 0.328125 -0.375 1.265625l0 2.640625l-0.828125 0zm7.6076508 -5.796875l0 -0.796875l4.328125 0l0 0.640625q-0.640625 0.671875 -1.265625 1.796875q-0.625 1.125 -0.96875 2.328125q-0.25 0.828125 -0.3125 1.828125l-0.84375 0q0.015625 -0.78125 0.3125 -1.890625q0.296875 -1.125 0.84375 -2.15625q0.5625 -1.046875 1.1875 -1.75l-3.28125 0z" fill-rule="nonzero"/><path fill="#ff00ff" d="m6.8604236 16.900387l14.929132 0l0 22.3937l-14.929132 0z" fill-rule="evenodd"/><path fill="#000000" fill-opacity="0.0" d="m-5.21332 16.90681l37.76378 0l0 22.299213l-37.76378 0z" fill-rule="evenodd"/><path fill="#ffffff" d="m15.690847 35.736416l-1.875 0l0 -11.937498q-0.6875 0.640625 -1.78125 1.28125q-1.09375 0.640625 -1.96875 0.96875l0 -1.8125q1.5625 -0.734375 2.734375 -1.78125q1.1875 -1.0625 1.671875 -2.046875l1.21875 0l0 15.328123z" fill-rule="nonzero"/><path fill="#93c47d" d="m31.522943 16.900387l14.96063 0l0 22.3937l-14.96063 0z" fill-rule="evenodd"/><path fill="#000000" fill-opacity="0.0" d="m19.4492 16.90681l37.76378 0l0 22.299213l-37.76378 0z" fill-rule="evenodd"/><path fill="#ffffff" d="m33.415867 22.470793l0 -1.796875l9.875 0l0 1.453125q-1.453125 1.546875 -2.890625 4.125q-1.421875 2.5625 -2.203125 5.28125q-0.5625 1.9218731 -0.71875 4.203123l-1.9375 0q0.03125 -1.796875 0.703125 -4.343748q0.6875 -2.5625 1.953125 -4.921875q1.265625 -2.375 2.6875 -4.0l-7.46875 0z" fill-rule="nonzero"/></g></svg>