<svg version="1.1" viewBox="0.0 0.0 52.0 80.0" fill="none" stroke="none" stroke-linecap="square" stroke-miterlimit="10" xmlns:xlink="http://www.w3.org/1999/xlink" xmlns="http://www.w3.org/2000/svg"><clipPath id="p.0"><path d="m0 0l52.0 0l0 80.0l-52.0 0l0 -80.0z" clip-rule="nonzero"/></clipPath><g clip-path="url(#p.0)"><path fill="#c9daf8" d="m0 0l52.0 0l0 80.0l-52.0 0z" fill-rule="evenodd"/><path fill="#000000" fill-opacity="0.0" d="m-9.133859 42.700787l70.67717 0l0 42.01575l-70.67717 0z" fill-rule="evenodd"/><path fill="#0b5394" d="m12.283513 60.660786l-1.78125 -6.671875l0.90625 0l1.015625 4.375q0.171875 0.6875 0.28125 1.359375q0.265625 -1.0625 0.3125 -1.234375l1.265625 -4.5l1.0625 0l0.95312595 3.375q0.359375 1.25 0.53125 2.359375q0.125 -0.625 0.328125 -1.453125l1.046875 -4.28125l0.890625 0l-1.828125 6.671875l-0.859375 0l-1.406251 -5.09375q-0.171875 -0.625 -0.203125 -0.78125q-0.109375 0.46875 -0.203125 0.78125l-1.421875 5.09375l-0.890625 0zm7.5387125 -5.734375l0 -0.9375l0.8125 0l0 0.9375l-0.8125 0zm0 5.734375l0 -4.84375l0.8125 0l0 4.84375l-0.8125 0zm2.0567932 0l0 -4.84375l0.75 0l0 0.6875q0.5312519 -0.796875 1.5312519 -0.796875q0.4375 0 0.796875 0.171875q0.375 0.15625 0.546875 0.40625q0.1875 0.25 0.265625 0.609375q0.046875 0.21875 0.046875 0.796875l0 2.96875l-0.828125 0l0 -2.9375q0 -0.5 -0.09375 -0.75q-0.09375 -0.25 -0.34375 -0.390625q-0.234375 -0.15625 -0.5625 -0.15625q-0.515625 0 -0.90625 0.328125q-0.3750019 0.328125 -0.3750019 1.265625l0 2.640625l-0.828125 0zm9.576403 -0.734375l0.109375 0.71875q-0.34375 0.078125 -0.609375 0.078125q-0.453125 0 -0.703125 -0.140625q-0.234375 -0.140625 -0.34375 -0.359375q-0.09375 -0.234375 -0.09375 -0.984375l0 -2.78125l-0.609375 0l0 -0.640625l0.609375 0l0 -1.1875l0.8125 -0.5l0 1.6875l0.828125 0l0 0.640625l-0.828125 0l0 2.828125q0 0.359375 0.046875 0.46875q0.046875 0.09375 0.140625 0.15625q0.09375 0.046875 0.28125 0.046875q0.140625 0 0.359375 -0.03125zm0.79478455 0.734375l0 -6.671875l0.828125 0l0 2.390625q0.578125 -0.671875 1.453125 -0.671875q0.53125 0 0.921875 0.21875q0.40625 0.21875 0.578125 0.59375q0.171875 0.359375 0.171875 1.078125l0 3.0625l-0.828125 0l0 -3.0625q0 -0.625 -0.265625 -0.890625q-0.265625 -0.28125 -0.75 -0.28125q-0.375 0 -0.703125 0.1875q-0.3125 0.1875 -0.453125 0.515625q-0.125 0.3125 -0.125 0.890625l0 2.640625l-0.828125 0zm8.500366 -1.5625l0.84375 0.109375q-0.1875 0.75 -0.734375 1.15625q-0.546875 0.40625 -1.390625 0.40625q-1.0625 0 -1.6875 -0.65625q-0.609375 -0.65625 -0.609375 -1.828125q0 -1.21875 0.625 -1.890625q0.625 -0.6875 1.625 -0.6875q0.984375 0 1.59375 0.671875q0.609375 0.65625 0.609375 1.859375q0 0.0625 0 0.21875l-3.609375 0q0.046875 0.796875 0.453125 1.21875q0.40625 0.421875 1.015625 0.421875q0.453125 0 0.765625 -0.234375q0.3125 -0.234375 0.5 -0.765625zm-2.6875 -1.328125l2.703125 0q-0.0625 -0.609375 -0.3125 -0.90625q-0.390625 -0.46875 -1.015625 -0.46875q-0.5625 0 -0.953125 0.375q-0.375 0.375 -0.421875 1.0z" fill-rule="nonzero"/><path fill="#0b5394" d="m9.93253 73.72016l-0.09375 -0.765625q0.265625 0.078125 0.46875 0.078125q0.28125 0 0.4375 -0.09375q0.171875 -0.09375 0.265625 -0.265625q0.078125 -0.109375 0.25 -0.609375q0.03125 -0.0625 0.078125 -0.1875l-1.828125 -4.859375l0.875 0l1.015625 2.8125q0.1875 0.53125 0.34375 1.109375q0.140625 -0.5625 0.34375 -1.09375l1.03125 -2.828125l0.8125 0l-1.84375 4.921875q-0.28125 0.796875 -0.453125 1.09375q-0.21875 0.40625 -0.5 0.59375q-0.28125 0.203125 -0.671875 0.203125q-0.234375 0 -0.53125 -0.109375zm8.007813 -3.421875l0.84375 0.109375q-0.1875 0.75 -0.734375 1.15625q-0.546875 0.40625 -1.390625 0.40625q-1.062501 0 -1.687501 -0.65625q-0.609375 -0.65625 -0.609375 -1.828125q0 -1.21875 0.625 -1.890625q0.625 -0.6875 1.625001 -0.6875q0.984375 0 1.59375 0.671875q0.609375 0.65625 0.609375 1.859375q0 0.0625 0 0.21875l-3.609376 0q0.046875 0.796875 0.453125 1.21875q0.40625095 0.421875 1.015626 0.421875q0.453125 0 0.765625 -0.234375q0.3125 -0.234375 0.5 -0.765625zm-2.687501 -1.328125l2.703126 0q-0.0625 -0.609375 -0.3125 -0.90625q-0.390625 -0.46875 -1.015625 -0.46875q-0.5625 0 -0.95312595 0.375q-0.375 0.375 -0.421875 1.0zm4.547242 2.890625l0 -6.671875l0.828125 0l0 6.671875l-0.828125 0zm2.0724182 0l0 -6.671875l0.828125 0l0 6.671875l-0.828125 0zm1.7911701 -2.421875q0 -1.34375 0.75 -1.984375q0.625 -0.546875 1.515625 -0.546875q1.0 0 1.625 0.65625q0.640625 0.65625 0.640625 1.8125q0 0.9375 -0.28125 1.46875q-0.28125 0.53125 -0.8125 0.828125q-0.53125 0.296875 -1.171875 0.296875q-1.015625 0 -1.640625 -0.640625q-0.625 -0.65625 -0.625 -1.890625zm0.84375 0q0 0.9375 0.40625 1.40625q0.40625 0.453125 1.015625 0.453125q0.609375 0 1.015625 -0.46875q0.40625 -0.46875 0.40625 -1.421875q0 -0.890625 -0.40625 -1.34375q-0.40625 -0.46875 -1.015625 -0.46875q-0.609375 0 -1.015625 0.46875q-0.40625 0.453125 -0.40625 1.375zm5.531616 2.421875l-1.46875 -4.84375l0.84375 0l0.765625 2.796875l0.296875 1.046875q0.015625 -0.078125 0.25 -1.0l0.765625 -2.84375l0.84375 0l0.71875 2.8125l0.25 0.921875l0.265625 -0.9375l0.828125 -2.796875l0.796875 0l-1.5 4.84375l-0.859375 0l-0.765625 -2.890625l-0.1875 -0.828125l-0.984375 3.71875l-0.859375 0zm11.29689 0l-0.8125 0l0 -5.21875q-0.296875 0.28125 -0.78125 0.5625q-0.484375 0.28125 -0.859375 0.421875l0 -0.796875q0.6875 -0.328125 1.203125 -0.78125q0.515625 -0.453125 0.734375 -0.890625l0.515625 0l0 6.703125z" fill-rule="nonzero"/><path fill="#ffd966" d="m15.293537 8.595798l21.637794 0l0 32.503937l-21.637794 0z" fill-rule="evenodd"/><path fill="#000000" fill-opacity="0.0" d="m-1.4776903 8.596646l55.181103 0l0 32.503937l-55.181103 0z" fill-rule="evenodd"/><path fill="#ffffff" d="m29.1363 36.368614l-2.8125 0l0 -17.921873q-1.015625 0.96875 -2.671875 1.9375q-1.640625 0.96875 -2.953125 1.453125l0 -2.71875q2.359375 -1.109375 4.125 -2.6875q1.765625 -1.578126 2.5 -3.062501l1.8125 0l0 23.0z" fill-rule="nonzero"/></g></svg>