<svg version="1.1" viewBox="0.0 0.0 52.0 80.0" fill="none" stroke="none" stroke-linecap="square" stroke-miterlimit="10" xmlns:xlink="http://www.w3.org/1999/xlink" xmlns="http://www.w3.org/2000/svg"><clipPath id="p.0"><path d="m0 0l52.0 0l0 80.0l-52.0 0l0 -80.0z" clip-rule="nonzero"/></clipPath><g clip-path="url(#p.0)"><path fill="#c9daf8" d="m0 0l52.0 0l0 80.0l-52.0 0z" fill-rule="evenodd"/><path fill="#000000" fill-opacity="0.0" d="m-9.133859 42.700787l70.67717 0l0 42.01575l-70.67717 0z" fill-rule="evenodd"/><path fill="#0b5394" d="m12.283513 60.660786l-1.78125 -6.671875l0.90625 0l1.015625 4.375q0.171875 0.6875 0.28125 1.359375q0.265625 -1.0625 0.3125 -1.234375l1.265625 -4.5l1.0625 0l0.95312595 3.375q0.359375 1.25 0.53125 2.359375q0.125 -0.625 0.328125 -1.453125l1.046875 -4.28125l0.890625 0l-1.828125 6.671875l-0.859375 0l-1.406251 -5.09375q-0.171875 -0.625 -0.203125 -0.78125q-0.109375 0.46875 -0.203125 0.78125l-1.421875 5.09375l-0.890625 0zm7.5387125 -5.734375l0 -0.9375l0.8125 0l0 0.9375l-0.8125 0zm0 5.734375l0 -4.84375l0.8125 0l0 4.84375l-0.8125 0zm2.0567932 0l0 -4.84375l0.75 0l0 0.6875q0.5312519 -0.796875 1.5312519 -0.796875q0.4375 0 0.796875 0.171875q0.375 0.15625 0.546875 0.40625q0.1875 0.25 0.265625 0.609375q0.046875 0.21875 0.046875 0.796875l0 2.96875l-0.828125 0l0 -2.9375q0 -0.5 -0.09375 -0.75q-0.09375 -0.25 -0.34375 -0.390625q-0.234375 -0.15625 -0.5625 -0.15625q-0.515625 0 -0.90625 0.328125q-0.3750019 0.328125 -0.3750019 1.265625l0 2.640625l-0.828125 0zm9.576403 -0.734375l0.109375 0.71875q-0.34375 0.078125 -0.609375 0.078125q-0.453125 0 -0.703125 -0.140625q-0.234375 -0.140625 -0.34375 -0.359375q-0.09375 -0.234375 -0.09375 -0.984375l0 -2.78125l-0.609375 0l0 -0.640625l0.609375 0l0 -1.1875l0.8125 -0.5l0 1.6875l0.828125 0l0 0.640625l-0.828125 0l0 2.828125q0 0.359375 0.046875 0.46875q0.046875 0.09375 0.140625 0.15625q0.09375 0.046875 0.28125 0.046875q0.140625 0 0.359375 -0.03125zm0.79478455 0.734375l0 -6.671875l0.828125 0l0 2.390625q0.578125 -0.671875 1.453125 -0.671875q0.53125 0 0.921875 0.21875q0.40625 0.21875 0.578125 0.59375q0.171875 0.359375 0.171875 1.078125l0 3.0625l-0.828125 0l0 -3.0625q0 -0.625 -0.265625 -0.890625q-0.265625 -0.28125 -0.75 -0.28125q-0.375 0 -0.703125 0.1875q-0.3125 0.1875 -0.453125 0.515625q-0.125 0.3125 -0.125 0.890625l0 2.640625l-0.828125 0zm8.500366 -1.5625l0.84375 0.109375q-0.1875 0.75 -0.734375 1.15625q-0.546875 0.40625 -1.390625 0.40625q-1.0625 0 -1.6875 -0.65625q-0.609375 -0.65625 -0.609375 -1.828125q0 -1.21875 0.625 -1.890625q0.625 -0.6875 1.625 -0.6875q0.984375 0 1.59375 0.671875q0.609375 0.65625 0.609375 1.859375q0 0.0625 0 0.21875l-3.609375 0q0.046875 0.796875 0.453125 1.21875q0.40625 0.421875 1.015625 0.421875q0.453125 0 0.765625 -0.234375q0.3125 -0.234375 0.5 -0.765625zm-2.6875 -1.328125l2.703125 0q-0.0625 -0.609375 -0.3125 -0.90625q-0.390625 -0.46875 -1.015625 -0.46875q-0.5625 0 -0.953125 0.375q-0.375 0.375 -0.421875 1.0z" fill-rule="nonzero"/><path fill="#0b5394" d="m7.0924277 71.86079l-0.765625 0l0 -6.671875l0.828125 0l0 2.375q0.515625 -0.65625 1.3124995 -0.65625q0.453125 0 0.84375 0.1875q0.40625 0.171875 0.65625 0.5q0.265625 0.328125 0.40625 0.796875q0.15625 0.453125 0.15625 0.984375q0 1.234375 -0.625 1.921875q-0.609375 0.671875 -1.46875 0.671875q-0.8593745 0 -1.3437495 -0.71875l0 0.609375zm-0.015625 -2.453125q0 0.875 0.234375 1.25q0.390625 0.640625 1.0468745 0.640625q0.546875 0 0.9375 -0.46875q0.390625 -0.46875 0.390625 -1.390625q0 -0.953125 -0.375 -1.390625q-0.375 -0.453125 -0.90625 -0.453125q-0.5468745 0 -0.9374995 0.46875q-0.390625 0.453125 -0.390625 1.34375zm4.4222407 2.453125l0 -6.671875l0.828125 0l0 6.671875l-0.828125 0zm5.259919 0l0 -0.703125q-0.5625 0.8125 -1.531251 0.8125q-0.421875 0 -0.796875 -0.15625q-0.375 -0.171875 -0.5625 -0.421875q-0.171875 -0.25 -0.25 -0.609375q-0.046875 -0.234375 -0.046875 -0.765625l0 -3.0l0.828125 0l0 2.6875q0 0.640625 0.046875 0.875q0.078125 0.3125 0.328125 0.5q0.25 0.1875 0.609375 0.1875q0.375 0 0.70312595 -0.1875q0.328125 -0.1875 0.453125 -0.515625q0.140625 -0.328125 0.140625 -0.953125l0 -2.59375l0.8125 0l0 4.84375l-0.734375 0zm5.328491 -1.5625l0.8437519 0.109375q-0.1875019 0.75 -0.7343769 1.15625q-0.546875 0.40625 -1.390625 0.40625q-1.0625 0 -1.6875 -0.65625q-0.609375 -0.65625 -0.609375 -1.828125q0 -1.21875 0.625 -1.890625q0.625 -0.6875 1.625 -0.6875q0.984375 0 1.59375 0.671875q0.6093769 0.65625 0.6093769 1.859375q0 0.0625 0 0.21875l-3.609377 0q0.046875 0.796875 0.453125 1.21875q0.40625 0.421875 1.015625 0.421875q0.453125 0 0.765625 -0.234375q0.3125 -0.234375 0.5 -0.765625zm-2.6875 -1.328125l2.703125 0q-0.0625 -0.609375 -0.3125 -0.90625q-0.390625 -0.46875 -1.015625 -0.46875q-0.5625 0 -0.953125 0.375q-0.375 0.375 -0.421875 1.0zm10.013903 2.890625l-0.8125 0l0 -5.21875q-0.296875 0.28125 -0.78125 0.5625q-0.484375 0.28125 -0.859375 0.421875l0 -0.796875q0.6875 -0.328125 1.203125 -0.78125q0.515625 -0.453125 0.734375 -0.890625l0.515625 0l0 6.703125zm2.5472412 0l0 -0.9375l0.9375 0l0 0.9375q0 0.515625 -0.1875 0.828125q-0.1875 0.3125 -0.578125 0.5l-0.21875 -0.359375q0.25 -0.109375 0.375 -0.328125q0.125 -0.21875 0.140625 -0.640625l-0.46875 0zm6.4666595 -0.78125l0 0.78125l-4.421875 0q-0.015625 -0.296875 0.09375 -0.5625q0.171875 -0.453125 0.53125 -0.890625q0.375 -0.4375 1.078125 -1.015625q1.09375 -0.890625 1.46875 -1.40625q0.390625 -0.53125 0.390625 -1.0q0 -0.484375 -0.359375 -0.8125q-0.34375 -0.34375 -0.890625 -0.34375q-0.59375 0 -0.953125 0.359375q-0.359375 0.359375 -0.359375 0.984375l-0.84375 -0.078125q0.09375 -0.953125 0.65625 -1.4375q0.5625 -0.5 1.515625 -0.5q0.953125 0 1.515625 0.53125q0.5625 0.53125 0.5625 1.328125q0 0.390625 -0.171875 0.78125q-0.15625 0.390625 -0.546875 0.828125q-0.375 0.421875 -1.25 1.15625q-0.734375 0.625 -0.953125 0.84375q-0.203125 0.21875 -0.34375 0.453125l3.28125 0zm1.3128662 0.78125l0 -0.9375l0.9375 0l0 0.9375q0 0.515625 -0.1875 0.828125q-0.1875 0.3125 -0.578125 0.5l-0.21875 -0.359375q0.25 -0.109375 0.375 -0.328125q0.125 -0.21875 0.140625 -0.640625l-0.46875 0zm2.1541595 -1.765625l0.828125 -0.109375q0.140625 0.703125 0.46875 1.015625q0.34375 0.296875 0.828125 0.296875q0.578125 0 0.96875 -0.390625q0.40625 -0.40625 0.40625 -1.0q0 -0.5625 -0.375 -0.921875q-0.359375 -0.375 -0.921875 -0.375q-0.234375 0 -0.578125 0.09375l0.078125 -0.71875q0.09375 0 0.140625 0q0.515625 0 0.9375 -0.265625q0.421875 -0.28125 0.421875 -0.84375q0 -0.453125 -0.3125 -0.75q-0.296875 -0.296875 -0.78125 -0.296875q-0.484375 0 -0.796875 0.3125q-0.3125 0.296875 -0.40625 0.890625l-0.828125 -0.140625q0.15625 -0.828125 0.6875 -1.28125q0.53125 -0.453125 1.328125 -0.453125q0.546875 0 1.0 0.234375q0.46875 0.234375 0.703125 0.640625q0.25 0.40625 0.25 0.859375q0 0.4375 -0.234375 0.796875q-0.234375 0.34375 -0.6875 0.5625q0.59375 0.125 0.921875 0.5625q0.328125 0.421875 0.328125 1.078125q0 0.875 -0.640625 1.484375q-0.640625 0.609375 -1.609375 0.609375q-0.875 0 -1.46875 -0.515625q-0.578125 -0.53125 -0.65625 -1.375z" fill-rule="nonzero"/><path fill="#0000ff" d="m10.197168 6.7480016l12.3149605 0l0 18.48819l-12.3149605 0z" fill-rule="evenodd"/><path fill="#000000" fill-opacity="0.0" d="m0.5138349 6.753304l31.181103 0l0 18.393702l-31.181103 0z" fill-rule="evenodd"/><path fill="#ffffff" d="m17.869652 22.670153l-1.640625 0l0 -10.453124q-0.59374905 0.5625 -1.562499 1.140625q-0.953125 0.5625 -1.71875 0.84375l0 -1.59375q1.375 -0.640625 2.40625 -1.5625q1.031249 -0.921875 1.453124 -1.78125l1.0625 0l0 13.406249z" fill-rule="nonzero"/><path fill="#0000ff" d="m30.557407 6.7480016l12.3149605 0l0 18.48819l-12.3149605 0z" fill-rule="evenodd"/><path fill="#000000" fill-opacity="0.0" d="m21.01617 6.753304l31.181103 0l0 18.393702l-31.181103 0z" fill-rule="evenodd"/><path fill="#ffffff" d="m40.809486 21.092028l0 1.578125l-8.828123 0q-0.015625 -0.59375 0.1874981 -1.140625q0.34375 -0.90625 1.078125 -1.78125q0.75 -0.875 2.15625 -2.015625q2.171875 -1.781249 2.9375 -2.828124q0.765625 -1.046875 0.765625 -1.96875q0 -0.984375 -0.703125 -1.640625q-0.6875 -0.671875 -1.8125 -0.671875q-1.1875 0 -1.90625 0.71875q-0.703125 0.703125 -0.703125 1.953125l-1.6875 -0.171875q0.171875 -1.890625 1.296875 -2.875q1.140625 -0.984375 3.03125 -0.984375q1.921875 0 3.046875 1.0625q1.125 1.0625 1.125 2.640625q0 0.796875 -0.328125 1.578125q-0.328125 0.78125 -1.09375 1.640624q-0.75 0.84375 -2.53125 2.34375q-1.46875 1.234375 -1.890625 1.6875q-0.421875 0.4375 -0.6875 0.875l6.546875 0z" fill-rule="nonzero"/><path fill="#0000ff" d="m20.377287 29.368479l12.314962 0l0 18.488188l-12.314962 0z" fill-rule="evenodd"/><path fill="#000000" fill-opacity="0.0" d="m10.978147 29.373781l31.181103 0l0 18.393702l-31.181103 0z" fill-rule="evenodd"/><path fill="#ffffff" d="m22.162088 41.75938l1.640625 -0.21875q0.28125 1.40625 0.953125 2.015625q0.6875 0.609375 1.65625 0.609375q1.15625 0 1.953125 -0.796875q0.796875 -0.796875 0.796875 -1.984375q0 -1.125 -0.734375 -1.859375q-0.734375 -0.734375 -1.875 -0.734375q-0.46875 0 -1.15625 0.171875l0.1875 -1.4375q0.15625 0.015625 0.265625 0.015625q1.046875 0 1.875 -0.546875q0.84375 -0.546875 0.84375 -1.671875q0 -0.90625 -0.609375 -1.5q-0.609375 -0.59375 -1.578125 -0.59375q-0.953125 0 -1.59375 0.609375q-0.640625 0.59375 -0.8125 1.796875l-1.640625 -0.296875q0.296875 -1.640625 1.359375 -2.546875q1.0625 -0.90625 2.65625 -0.90625q1.09375 0 2.0 0.46875q0.921875 0.46875 1.40625 1.28125q0.5 0.8125 0.5 1.71875q0 0.859375 -0.46875 1.578125q-0.46875 0.703125 -1.375 1.125q1.1875 0.28125 1.84375 1.140625q0.65625 0.859375 0.65625 2.15625q0 1.734375 -1.28125 2.953125q-1.265625 1.21875 -3.21875 1.21875q-1.765625 0 -2.921875 -1.046875q-1.15625 -1.046875 -1.328125 -2.71875z" fill-rule="nonzero"/></g></svg>