<svg id="Layer_1" data-name="Layer 1" xmlns="http://www.w3.org/2000/svg" viewBox="0 0 103 160"><defs><style>.cls-1{fill:#f6d9cd;}.cls-2{fill:#010101;}</style></defs><title>reminder</title><rect class="cls-1" width="103" height="160"/><path class="cls-2" d="M88.63,62.31a3.56,3.56,0,1,0,3.56,3.56A3.57,3.57,0,0,0,88.63,62.31Zm0,5a1.44,1.44,0,1,1,1.44-1.44A1.44,1.44,0,0,1,88.63,67.31Z"/><path class="cls-2" d="M23.86,59.11a4.5,4.5,0,1,0-4.5,4.5A4.51,4.51,0,0,0,23.86,59.11Zm-4.5,2.38a2.38,2.38,0,1,1,2.38-2.37A2.38,2.38,0,0,1,19.36,61.48Z"/><path class="cls-2" d="M50.21,53.21A30.81,30.81,0,1,0,81,84,30.85,30.85,0,0,0,50.21,53.21Zm5.26,2.62a28.49,28.49,0,0,1,9.74,3.75,5.24,5.24,0,0,1-9.74-3.75Zm-6.61,56.85a3.22,3.22,0,0,1,6.4-.42,28.75,28.75,0,0,1-5.06.46C49.76,112.71,49.31,112.7,48.86,112.68Zm8.49-.87a5.34,5.34,0,0,0-10.59.68,28.68,28.68,0,0,1,6.59-57A7.39,7.39,0,0,0,67,60.79a28.67,28.67,0,0,1-9.66,51Z"/><path class="cls-2" d="M69.5,69.52a5.19,5.19,0,0,0-2.18,3.74,7.34,7.34,0,0,0-3.09,0h0a7.08,7.08,0,0,0-4.54,3,7.73,7.73,0,0,0-.48.78c-.12.26-1.19,2.48-3.05,1.64a1.06,1.06,0,0,0-.88,1.94,3.87,3.87,0,0,0,3,.15l.21-.1a7.14,7.14,0,0,0,.11.9,7.06,7.06,0,0,0,2.23,3.89A8.9,8.9,0,0,0,58.91,89a1.06,1.06,0,0,0,.77,1.29,1.1,1.1,0,0,0,.26,0,1.06,1.06,0,0,0,1-.81,7,7,0,0,1,1.69-2.85A6.87,6.87,0,0,0,67,87.2a1.06,1.06,0,0,0-.41-2.09,5,5,0,0,1-5.18-7.51c.06-.09.12-.19.18-.27s.2-.26.31-.38a5.09,5.09,0,0,1,.47-.46l.19-.16a5.33,5.33,0,0,1,.66-.44l.19-.1a5.21,5.21,0,0,1,.63-.26c.15,0,.3-.1.45-.14A5.25,5.25,0,0,1,70.39,83c-.08.17-1.94,4.14.32,6.94a1.06,1.06,0,1,0,1.65-1.33c-1.41-1.75-.07-4.64-.07-4.64a7.37,7.37,0,0,0-2.78-9.81v0a2.78,2.78,0,0,1,1.17-2.83,1.06,1.06,0,1,0-1.18-1.76Z"/><path class="cls-2" d="M33.84,71l.2,0a7,7,0,0,0,1.85-.7,5.31,5.31,0,0,0,3.49,3.92,4.18,4.18,0,0,1-.46,1.58,1.06,1.06,0,1,0,1.8,1.14,6.11,6.11,0,0,0,.77-2.45,5.27,5.27,0,0,0,3.15-1.35,10.68,10.68,0,0,0,2.45.85,1.09,1.09,0,0,0,.26,0,1.06,1.06,0,0,0,.26-2.1,11.22,11.22,0,0,1-1.68-.53,5.27,5.27,0,0,0,.48-2.12h.41a8,8,0,0,0,1-.07,1.06,1.06,0,0,0-.28-2.11,6.73,6.73,0,0,1-1.6,0,5.3,5.3,0,0,0-1.49-2,5.09,5.09,0,0,0,1.8-1.3,1.06,1.06,0,1,0-1.63-1.37c-.84,1-3,1.33-3.74,1.37a1,1,0,0,0-.36.09,5.29,5.29,0,0,0-4.19,2.91,1,1,0,0,0-.08.13,3.91,3.91,0,0,1-2.64,1.94A1.06,1.06,0,0,0,33.84,71Zm7.25-5a3.19,3.19,0,1,1-3.19,3.19A3.19,3.19,0,0,1,41.09,66Z"/><path class="cls-2" d="M48.83,98a9,9,0,0,0-2-8.59A4.89,4.89,0,0,0,49,87.3a1.06,1.06,0,0,0-2-.8,4.62,4.62,0,0,1-2,1.37,9,9,0,0,0-2.4-1.12,3.71,3.71,0,0,0,.82-.76,1.06,1.06,0,0,0-1.72-1.26,11,11,0,0,1-3.45,1.78l-.07,0a9.06,9.06,0,0,0-.41,17.64l.07.06C39.8,105.2,40,106,40,106.08a1.06,1.06,0,0,0,.94,1.1h.13a1.06,1.06,0,0,0,1.05-.94,2.69,2.69,0,0,0-.63-1.86A9.07,9.07,0,0,0,48,99.93a7.12,7.12,0,0,1,1.88,1.29,1.06,1.06,0,0,0,.92.54,1,1,0,0,0,.4-.08,1.06,1.06,0,0,0,.58-1.39C51.52,99.66,50.5,98.87,48.83,98Zm-8.7,4.41a6.94,6.94,0,1,1,6.94-6.94A6.94,6.94,0,0,1,40.13,102.38Z"/><path class="cls-2" d="M39.8,89.71a5.4,5.4,0,0,0-5.4,5.4,1.06,1.06,0,0,0,2.13,0,3.27,3.27,0,0,1,3.27-3.27,1.06,1.06,0,0,0,0-2.13Z"/><path class="cls-2" d="M61.9,80.28a1.06,1.06,0,0,0,2.13,0,2.11,2.11,0,0,1,2.11-2.11,1.06,1.06,0,1,0,0-2.13A4.24,4.24,0,0,0,61.9,80.28Z"/><path class="cls-2" d="M60.46,96.38a3.73,3.73,0,1,0,3.73,3.73A3.73,3.73,0,0,0,60.46,96.38Zm0,5.33a1.6,1.6,0,1,1,1.6-1.6A1.6,1.6,0,0,1,60.46,101.71Z"/><path class="cls-2" d="M30.86,78.44a3.73,3.73,0,1,0-3.73,3.73A3.73,3.73,0,0,0,30.86,78.44Zm-5.33,0a1.6,1.6,0,1,1,1.6,1.6A1.61,1.61,0,0,1,25.52,78.44Z"/><path class="cls-2" d="M31.71,81.84a1.06,1.06,0,0,0,1.44-.43,6.34,6.34,0,0,0,.57-4.57,1.06,1.06,0,0,0-2.06.52,4.22,4.22,0,0,1-.38,3A1.06,1.06,0,0,0,31.71,81.84Z"/><path class="cls-2" d="M60.64,67.78a11,11,0,0,0,1.19-.06,1.06,1.06,0,0,0-.23-2.11,8.85,8.85,0,0,1-8-3.41A1.06,1.06,0,1,0,52,63.48a11,11,0,0,0,8.69,4.3Z"/><circle class="cls-2" cx="66.15" cy="94.96" r="1.25"/><circle class="cls-2" cx="27.4" cy="91.46" r="2.19"/><circle class="cls-2" cx="30.27" cy="83.03" r="1.22"/></svg>