<svg id="Layer_1" data-name="Layer 1" xmlns="http://www.w3.org/2000/svg" viewBox="0 0 50 50"><defs><style>.cls-1{fill:#3c5e40;}.cls-2{fill:#f1f2f2;}</style></defs><title>com-good</title><circle class="cls-1" cx="25" cy="24.85" r="23.67"/><path class="cls-2" d="M27.13,16.07H21.42a5.21,5.21,0,0,0-5.25,5.13v.12A8.12,8.12,0,0,0,30,27C34.22,22.76,32.52,16.07,27.13,16.07Zm2.08,10.1a6.94,6.94,0,0,1-5.36,2,7.27,7.27,0,0,1-6.56-6.9v-.11a4.09,4.09,0,0,1,4.13-4h5.71a4.1,4.1,0,0,1,4.13,4A6.94,6.94,0,0,1,29.21,26.17Z"/><path class="cls-2" d="M34.67,24.7h1a1.65,1.65,0,0,0,1.65-1.65V14.54a2.4,2.4,0,1,0-1.12,0v3.18a1.62,1.62,0,0,0-.53-.09h-1a11,11,0,0,0-20.79,0h-1a1.65,1.65,0,0,0-1.65,1.65v3.79a1.65,1.65,0,0,0,1.65,1.65h1a11,11,0,0,0,3,4.58c-2.54,2.41-5.49,7.44-5.62,7.67a.56.56,0,0,0,.48.84h25a.56.56,0,0,0,.48-.84c-.13-.23-3.07-5.26-5.61-7.67A10.89,10.89,0,0,0,34.67,24.7Zm.84-12.49a1.28,1.28,0,1,1,1.28,1.28A1.28,1.28,0,0,1,35.51,12.21ZM35,18.79v0h.7a.53.53,0,0,1,.53.53v3.79c0,.74-1,.48-1.23.53A11.39,11.39,0,0,0,35,18.79Zm-21.46,4.8c-.23,0-1.22.21-1.22-.53.16-3-.39-4.32.53-4.32h.71A11.42,11.42,0,0,0,13.55,23.58ZM35.8,36.67h-23a37.06,37.06,0,0,1,5-6.67,10.91,10.91,0,0,0,13,0A37,37,0,0,1,35.8,36.67ZM14.61,23.19A9.87,9.87,0,1,1,33.73,24C30.89,33.6,16.74,33.37,14.61,23.19Z"/></svg>