<svg id="Layer_1" data-name="Layer 1" xmlns="http://www.w3.org/2000/svg" viewBox="0 0 103 160"><defs><style>.cls-1{fill:#231f20;}.cls-2{fill:#557abd;}</style></defs><title>back</title><rect class="cls-1" width="103" height="160"/><path class="cls-2" d="M56.27,89.73a1,1,0,0,1-.67-.26,14.85,14.85,0,0,1-2.56-3,14.87,14.87,0,0,1-2.47-8.31,15.22,15.22,0,0,1,5-11.22A1,1,0,1,1,57,68.34l-.09.08a13.21,13.21,0,0,0-4.3,9.74,13.59,13.59,0,0,0,.77,4.49,14.39,14.39,0,0,0,1.39,2.74A13.41,13.41,0,0,0,56.94,88a1,1,0,0,1-.67,1.74Z"/><path class="cls-2" d="M46.73,93.41A15.1,15.1,0,0,1,34,86.56a16.83,16.83,0,0,1-1.58-3.17,15.51,15.51,0,0,1-.89-5.16A15.2,15.2,0,0,1,46.73,63.05a13.93,13.93,0,0,1,1.75.11,14.21,14.21,0,0,1,3.76.94A1,1,0,1,1,51.53,66a12.61,12.61,0,0,0-3.29-.83,12.26,12.26,0,0,0-1.51-.09A13.19,13.19,0,0,0,33.55,78.23a13.48,13.48,0,0,0,.77,4.48,13.7,13.7,0,0,0,1.4,2.75,13.09,13.09,0,0,0,11,6,1,1,0,1,1,0,2Z"/><path class="cls-2" d="M56.27,89.73a1,1,0,0,1-.67-.26,14.85,14.85,0,0,1-2.56-3,14.87,14.87,0,0,1-2.47-8.31,15.22,15.22,0,0,1,5-11.22A1,1,0,1,1,57,68.34l-.09.08a13.21,13.21,0,0,0-4.3,9.74,13.59,13.59,0,0,0,.77,4.49,14.39,14.39,0,0,0,1.39,2.74A13.41,13.41,0,0,0,56.94,88a1,1,0,0,1-.67,1.74Z"/><path class="cls-2" d="M46.73,93.41A15.1,15.1,0,0,1,34,86.56a16.83,16.83,0,0,1-1.58-3.17,15.51,15.51,0,0,1-.89-5.16A15.2,15.2,0,0,1,46.73,63.05a13.93,13.93,0,0,1,1.75.11,14.69,14.69,0,0,1,3.72.92h.07a15,15,0,0,1,1.68.77,1,1,0,1,1-1,1.76h0A12.43,12.43,0,0,0,51.61,66h-.08a12.61,12.61,0,0,0-3.29-.83,12.26,12.26,0,0,0-1.51-.09A13.19,13.19,0,0,0,33.55,78.23a13.48,13.48,0,0,0,.77,4.48,13.7,13.7,0,0,0,1.4,2.75A13.18,13.18,0,0,0,53.89,89.3,1,1,0,1,1,55,91,15.21,15.21,0,0,1,46.73,93.41Z"/><path class="cls-2" d="M65.73,93.34a15,15,0,0,1-5.41-1,15.37,15.37,0,0,1-4.72-2.87,15.19,15.19,0,0,1-2.56-3,14.87,14.87,0,0,1-2.47-8.31A15.27,15.27,0,0,1,65.73,63a14,14,0,0,1,1.73.1A14.63,14.63,0,0,1,71.2,64h.08a15.18,15.18,0,0,1-5.55,29.35Zm0-28.35A13.16,13.16,0,0,0,52.55,78.16a13.59,13.59,0,0,0,.77,4.49,14.39,14.39,0,0,0,1.39,2.74A13.17,13.17,0,1,0,70.61,66h-.08a12.61,12.61,0,0,0-3.29-.83A15,15,0,0,0,65.73,65Z"/><path class="cls-2" d="M51.46,100a1,1,0,0,1-.66-.25,6.12,6.12,0,0,0-8.14,0,1,1,0,0,1-1.58-.36,6.15,6.15,0,0,0-7.34-3.54,1,1,0,0,1-1.27-1,2.62,2.62,0,0,0,0-.28,6.13,6.13,0,0,0-5.09-6A1,1,0,0,1,26.65,87,6,6,0,0,0,27.46,84a6.17,6.17,0,0,0-2.56-5,1,1,0,0,1,0-1.62,6.17,6.17,0,0,0,2.56-5,6.06,6.06,0,0,0-.75-2.94A1.1,1.1,0,0,1,27.39,68a6.13,6.13,0,0,0,5.07-6,2.62,2.62,0,0,0,0-.28,1,1,0,0,1,1.27-1,6.14,6.14,0,0,0,7.34-3.54,1,1,0,0,1,1.58-.36,6.12,6.12,0,0,0,8.14,0,1,1,0,0,1,1.58.36A6.13,6.13,0,0,0,58,60.88a5.71,5.71,0,0,0,1.67-.23,1,1,0,0,1,1.28,1V62a1,1,0,0,1-1.62.79A8.2,8.2,0,0,1,51.12,59a8.28,8.28,0,0,1-8.78,0,8.11,8.11,0,0,1-7.88,3.84A8.13,8.13,0,0,1,29,69.67a8,8,0,0,1,.5,2.76A8.16,8.16,0,0,1,27,78.23,8.17,8.17,0,0,1,29.46,84,8,8,0,0,1,29,86.79a8.13,8.13,0,0,1,5.48,6.86,8.11,8.11,0,0,1,7.9,3.81,8.32,8.32,0,0,1,8.78,0,8.13,8.13,0,0,1,8.24-3.76,1,1,0,0,1,1.62.78v.3a1,1,0,0,1-1.27,1,6.15,6.15,0,0,0-7.34,3.54,1,1,0,0,1-.7.59Z"/><path class="cls-2" d="M60.68,92.42a.92.92,0,0,1-.36-.07,15.37,15.37,0,0,1-4.72-2.87,15.19,15.19,0,0,1-2.56-3,15,15,0,0,1-2.47-8.32,15.22,15.22,0,0,1,5-11.22,14.75,14.75,0,0,1,4.71-3,1,1,0,0,1,.91,1.78l-.21.08a13.06,13.06,0,0,0-4.13,2.55,13.21,13.21,0,0,0-4.3,9.74,13.59,13.59,0,0,0,.77,4.49,14.39,14.39,0,0,0,1.39,2.74A13.15,13.15,0,0,0,61,90.45a1,1,0,0,1-.36,1.93Z"/><path class="cls-2" d="M75,76a3.5,3.5,0,1,1,3.5-3.5A3.5,3.5,0,0,1,75,76Zm0-5a1.5,1.5,0,1,0,1.5,1.5A1.5,1.5,0,0,0,75,71Z"/><path class="cls-2" d="M57.46,73a3,3,0,0,1,0-6,1,1,0,0,1,0,2,1,1,0,1,0,1,1,1,1,0,0,1,2,0A3,3,0,0,1,57.46,73Z"/><path class="cls-2" d="M63,85a3.5,3.5,0,0,1-3.5-3.5,1,1,0,0,1,2,0A1.5,1.5,0,1,0,63,80a1,1,0,0,1,0-2,3.5,3.5,0,0,1,0,7Z"/></svg>