<svg id="Layer_1" data-name="Layer 1" xmlns="http://www.w3.org/2000/svg" viewBox="0 0 50 50"><defs><style>.cls-1{fill:#fff;}</style></defs><title>commander</title><rect width="50" height="50"/><path class="cls-1" d="M32.91,13a11.59,11.59,0,0,0,2.38-.32,3.81,3.81,0,0,0,6.27-2.39c2.79-1.57,2.92-2.42,2.71-3-.13-.34-.48-1.21-4-.42A3.81,3.81,0,0,0,34,9.31c-2.79,1.57-2.92,2.42-2.71,3C31.35,12.53,31.55,13,32.91,13ZM42.58,8a9.89,9.89,0,0,1-1.13.79c0-.11-.06-.21-.1-.32s-.1-.2-.15-.31A9.72,9.72,0,0,1,42.58,8Zm-3.94,4.11a2.42,2.42,0,0,1-1.37.1c.43-.13.85-.28,1.25-.43s.8-.32,1.22-.51a2.42,2.42,0,0,1-1.1.84ZM35.54,8.82A2.44,2.44,0,0,1,40,9a2.51,2.51,0,0,1,.13.54,21.59,21.59,0,0,1-2.16,1,21.07,21.07,0,0,1-2.26.71,2.42,2.42,0,0,1-.26-.49h0A2.42,2.42,0,0,1,35.54,8.82Zm-1.46,2c0,.11.06.21.1.32s.1.2.15.31a9.72,9.72,0,0,1-1.39.16A9.89,9.89,0,0,1,34.08,10.86Z"/><path class="cls-1" d="M42.64,13.3a2.78,2.78,0,1,0,2.78,2.78A2.78,2.78,0,0,0,42.64,13.3Zm0,4.18A1.39,1.39,0,1,1,44,16.08,1.39,1.39,0,0,1,42.64,17.48Z"/><rect class="cls-1" x="38.46" y="24.44" width="1.39" height="1.39"/><rect class="cls-1" x="38.46" y="27.22" width="1.39" height="1.39"/><path class="cls-1" d="M30.18,33.45l.2-.05h0c2.71-.71,4.6-3.54,4.6-6.87s-1.89-6.16-4.6-6.87l-.2-.05a21.89,21.89,0,0,0-11.27,0l-.2.05c-2.71.71-4.6,3.54-4.6,6.87a8.3,8.3,0,0,0,.52,2.92,6.17,6.17,0,0,0,4.08,3.94h0l.2.05a21.9,21.9,0,0,0,11.28,0Zm1.05-6.23h-.89l-.93-.7H31Zm-.84-4.87h.41v2.78H23.58l.31-.62a1.39,1.39,0,0,1,1.25-.77h3.58a.7.7,0,0,0,.49-.2ZM19.06,21l.2-.05a20.53,20.53,0,0,1,10.56,0L30,21a.69.69,0,0,0-.35.18l-1.19,1.19H25.13a2.77,2.77,0,0,0-2.49,1.54l-.82,1.63a.7.7,0,0,0,.62,1h4.64l2.6,1.95a.7.7,0,0,0,.42.14H32.2a.7.7,0,0,0,.66-.92l-.66-2V22.45a6.42,6.42,0,0,1,1.39,4.07c0,2.66-1.5,5-3.56,5.53l-.2.05a20.75,20.75,0,0,1-4.85.68,9,9,0,0,0-8.79-7h-.66C15.77,23.47,17.17,21.49,19.06,21Zm4.48,11.76-.9-.07-.33,0-.75-.1L21,32.47l-.57-.1c-.39-.08-.78-.17-1.17-.27l-.2-.05a3.77,3.77,0,0,1-.64-.24l-.07,0a4.2,4.2,0,0,1-.56-.33l-.09-.06a4.63,4.63,0,0,1-.49-.43l-.08-.08a5.17,5.17,0,0,1-.43-.51l-.06-.09a5.64,5.64,0,0,1-.38-.61l0-.06a6.29,6.29,0,0,1-.31-.69v0a6.6,6.6,0,0,1-.22-.74l0-.1a6.68,6.68,0,0,1-.12-.75s0,0,0-.07h.66a7.62,7.62,0,0,1,7.35,5.54Z"/><rect class="cls-1" x="19.67" y="21.65" width="1.39" height="1.39"/><rect class="cls-1" x="26.63" y="29.31" width="1.39" height="1.39"/><rect class="cls-1" x="17.58" y="23.74" width="1.39" height="1.39"/><rect class="cls-1" x="5.05" y="5.64" width="1.39" height="1.39"/><rect class="cls-1" x="5.05" y="8.43" width="1.39" height="1.39"/><rect class="cls-1" x="6.44" y="7.03" width="1.39" height="1.39"/><rect class="cls-1" x="3.66" y="7.03" width="1.39" height="1.39"/><rect class="cls-1" x="10.62" y="9.82" width="1.39" height="1.39"/><rect class="cls-1" x="10.62" y="14" width="1.39" height="1.39"/><rect class="cls-1" x="12.71" y="11.91" width="1.39" height="1.39"/><rect class="cls-1" x="8.53" y="11.91" width="1.39" height="1.39"/><path class="cls-1" d="M37.77,38.39v-7h3.48a.7.7,0,0,0,.7-.7V22.35a.7.7,0,0,0-.7-.7H36.82a13.21,13.21,0,0,0-25,1.4,4.18,4.18,0,0,0-4,4.17v4.87a.7.7,0,0,0,.7.7v6.33a8.36,8.36,0,0,0-4.87,7.59.7.7,0,0,0,.7.7H44.73a.7.7,0,0,0,.7-.7A8.36,8.36,0,0,0,37.77,38.39ZM40.55,23v7H37.77V26.52A13.15,13.15,0,0,0,37.29,23Zm-27.84,9V26.52a11.83,11.83,0,0,1,23.67,0v9H35V33.48H33.59v2.09H32.2V34.18H30.8v1.39H12.71ZM36.37,37v1.39H25.24V37ZM12.71,37H23.84v1.39H12.71ZM9.23,27.22a2.78,2.78,0,0,1,2.26-2.73,13.2,13.2,0,0,0-.17,2V31.4H9.23Zm.7,8.35v-.7h1.39v.7ZM11.32,37v.7H9.92V37ZM9.92,33.48v-.7h1.39v.7ZM5.09,46A7,7,0,0,1,8.87,40.5L12.17,46Zm8.71,0-3.61-6a7,7,0,0,1,1.45-.23l4,6.25Zm17,0H18.28v-.7H30.8Zm0-2.09H18.28V42.53H30.8Zm7,2.09V43.23H36.37V46H32.2V41.84a.7.7,0,0,0-.7-.7H17.58a.7.7,0,0,0-.7.7v3.58l-3.6-5.66H37.07A7,7,0,0,1,44,46Z"/></svg>